<svg width="25" height="25" viewBox="0 0 25 25" fill="none" xmlns="http://www.w3.org/2000/svg">
<path fill-rule="evenodd" clip-rule="evenodd" d="M24.1394 1.14118C23.9683 1.41494 22.9156 1.85582 22.3794 1.87854C22.0835 1.89104 21.3505 1.84972 20.7507 1.78667C19.8358 1.69055 19.5725 1.71312 19.117 1.92682C18.4888 2.22131 18.0342 2.87207 18.0335 3.47823L18.0329 3.90038L18.4503 3.44884C19.0108 2.84267 19.4274 2.76742 20.6216 3.05651C21.8074 3.34362 22.6741 3.26184 23.3723 2.79709C23.9204 2.43217 24.5 1.64213 24.5 1.26017C24.5 0.97689 24.2863 0.906462 24.1394 1.14118ZM16.9401 5.07948C16.8973 5.21608 16.7963 5.44838 16.7158 5.59548C16.6116 5.78575 16.6187 5.8931 16.74 5.96722C16.8712 6.0473 16.8742 6.75514 16.7533 9.0202C16.6667 10.6419 16.5958 12.2478 16.5958 12.5888V13.2086H14.512H12.4281V12.0726C12.4281 11.2093 12.3812 10.9367 12.2326 10.9367C12.1251 10.9367 10.9772 11.4156 9.68165 12.0009C8.38623 12.5863 7.24558 13.0656 7.14671 13.0659C7.01895 13.0664 6.96707 12.7593 6.96707 12.0016C6.96707 11.236 6.91576 10.9367 6.78484 10.9367C6.68453 10.9367 5.47188 11.4429 4.09023 12.0617L1.57784 13.1866L1.5399 17.6704L1.50196 22.1541H1.00098H0.5V23.077V24H12.5H24.5V23.077V22.1541H23.997H23.494V17.6813V13.2086H21.5017H19.5094L19.4203 11.8951C19.173 8.24833 19.1394 6.0811 19.3284 5.9658C19.4788 5.87379 19.4688 5.80336 19.2778 5.61465C19.1464 5.48487 19.0389 5.25541 19.0389 5.1049C19.0389 4.86039 18.9307 4.831 18.0285 4.831C17.1915 4.831 17.0045 4.87374 16.9401 5.07948ZM4.78407 16.0839L4.82877 16.6164H3.74216H2.65569V16.1431C2.65569 15.8827 2.70139 15.6246 2.75744 15.5693C2.81334 15.5141 3.28213 15.4874 3.79935 15.5101L4.73952 15.5514L4.78407 16.0839ZM7.22719 16.0839L7.27188 16.6164H6.25713H5.24252V16.1431C5.24252 15.8827 5.28836 15.6244 5.34441 15.569C5.40046 15.5137 5.83691 15.4871 6.31447 15.51L7.18263 15.5514L7.22719 16.0839ZM9.81401 16.0839L9.85871 16.6164H8.7721H7.68563V16.1431C7.68563 15.8827 7.73133 15.6246 7.78738 15.5693C7.84328 15.5141 8.31207 15.4874 8.82929 15.5101L9.76946 15.5514L9.81401 16.0839ZM12.2571 16.0839L12.3018 16.6164H11.2152H10.1287V16.1431C10.1287 15.8827 10.1744 15.6246 10.2305 15.5693C10.2864 15.5141 10.7552 15.4874 11.2724 15.5101L12.2126 15.5514L12.2571 16.0839ZM14.844 16.0839L14.8886 16.6164H13.802H12.7156V16.1431C12.7156 15.8827 12.7613 15.6246 12.8173 15.5693C12.8732 15.5141 13.342 15.4874 13.8592 15.5101L14.7994 15.5514L14.844 16.0839ZM17.2871 16.0839L17.3318 16.6164H16.2451H15.1587V16.1431C15.1587 15.8827 15.2044 15.6246 15.2604 15.5693C15.3163 15.5141 15.7851 15.4874 16.3023 15.5101L17.2425 15.5514L17.2871 16.0839ZM19.8108 15.921C19.8598 16.1633 19.8641 16.4189 19.8203 16.489C19.7765 16.559 19.2917 16.6164 18.743 16.6164H17.7455V16.1431C17.7455 15.8827 17.7886 15.6271 17.8414 15.5752C17.894 15.523 18.3386 15.4804 18.8294 15.4804C19.7122 15.4804 19.7224 15.485 19.8108 15.921ZM22.317 16.0839L22.3617 16.6164H21.2751H20.1886V16.1431C20.1886 15.8827 20.2343 15.6246 20.2904 15.5693C20.3463 15.5141 20.8151 15.4874 21.3323 15.5101L22.2725 15.5514L22.317 16.0839ZM16.7513 17.6103C17.299 17.6103 17.3144 17.624 17.3144 18.1073V18.6043H16.2365H15.1587V18.1172C15.1587 17.7248 15.2215 17.6183 15.482 17.5692C15.6598 17.5356 15.8915 17.5312 15.9968 17.5592C16.102 17.5873 16.4416 17.6103 16.7513 17.6103ZM4.81138 18.1073V18.6043H3.73353H2.65569V18.1073V17.6103H3.73353H4.81138V18.1073ZM7.25449 18.1073V18.6043H6.2485H5.24252V18.1073V17.6103H6.2485H7.25449V18.1073ZM9.84132 18.1073V18.6043H8.76347H7.68563V18.1073V17.6103H8.76347H9.84132V18.1073ZM12.2844 18.1073V18.6043H11.2066H10.1287V18.1073V17.6103H11.2066H12.2844V18.1073ZM14.8713 18.1073V18.6043H13.7934H12.7156V18.1073V17.6103H13.7934H14.8713V18.1073ZM19.8743 18.0718L19.8293 18.5333L18.7874 18.575L17.7455 18.6168V18.1136V17.6103H18.8324H19.9194L19.8743 18.0718ZM22.3443 18.1073V18.6043H21.2665H20.1886V18.1073V17.6103H21.2665H22.3443V18.1073Z" fill="#005396"/>
</svg>
