<svg width="25" height="25" viewBox="0 0 25 25" fill="none" xmlns="http://www.w3.org/2000/svg">
<path d="M12.4997 0C12.8538 0 13.2015 0.0975586 13.5036 0.282227C13.8058 0.466905 14.0512 0.731733 14.2126 1.04688L24.7937 22.21C24.9413 22.5028 25.0115 22.8286 24.9978 23.1562C24.984 23.4839 24.8871 23.8025 24.7156 24.082C24.5441 24.3614 24.3041 24.5924 24.0183 24.7529C23.7323 24.9135 23.4097 24.999 23.0818 25H1.91868C1.59072 24.999 1.26811 24.9135 0.982153 24.7529C0.696329 24.5924 0.456392 24.3614 0.284887 24.082C0.113335 23.8025 0.0154176 23.4839 0.00168406 23.1562C-0.0120381 22.8287 0.0582861 22.5028 0.205786 22.21L10.7878 1.04688C10.9493 0.731733 11.1947 0.466905 11.4968 0.282227C11.7988 0.0976771 12.1458 7.44128e-05 12.4997 0ZM12.3933 19.417C11.9824 19.417 11.6484 19.7503 11.6482 20.1611V20.7363C11.6482 21.1474 11.9822 21.4805 12.3933 21.4805C12.804 21.4801 13.1374 21.1471 13.1374 20.7363V20.1611C13.1372 19.7505 12.8039 19.4174 12.3933 19.417ZM11.8015 8.53711C11.5922 8.53711 11.3927 8.62568 11.2517 8.78027C11.1108 8.93488 11.0411 9.14133 11.0603 9.34961L11.6501 15.7129C11.6507 15.7474 11.6556 15.781 11.6609 15.8145C11.6631 15.8289 11.6656 15.8433 11.6687 15.8574C11.7347 16.1586 11.982 16.3992 12.3054 16.4375H12.3103C12.3222 16.4388 12.3344 16.4396 12.3464 16.4404C12.3591 16.4412 12.3719 16.4422 12.3845 16.4424C12.3912 16.4425 12.3982 16.4425 12.405 16.4424C12.4236 16.4421 12.4423 16.4411 12.4607 16.4395H12.4636C12.5502 16.4314 12.631 16.4056 12.7058 16.3711C12.7157 16.3665 12.7264 16.3634 12.7361 16.3584C12.9663 16.2393 13.1232 16.0061 13.1374 15.7393L13.8894 9.36816C13.9142 9.15732 13.8477 8.94587 13.7068 8.78711C13.5656 8.62829 13.3626 8.53719 13.1501 8.53711H11.8015Z" fill="#005396"/>
</svg>
