<svg width="25" height="25" viewBox="0 0 25 25" fill="none" xmlns="http://www.w3.org/2000/svg">
<path d="M18.5568 3.28907C18.8941 3.28907 19.1695 3.42434 19.383 3.69434C19.5955 3.96442 19.6644 4.26526 19.5881 4.59669L18.8322 7.89454H20.508C20.8408 7.8946 21.1604 7.97048 21.466 8.12306C21.7715 8.2756 22.0197 8.48297 22.2111 8.74415L24.5803 11.8994C24.7718 12.1555 24.8952 12.4231 24.9523 12.7012C25.0103 12.9782 25.0151 13.2692 24.966 13.5742L24.1779 17.5703C24.1287 17.8264 24.0042 18.0323 23.8049 18.1875C23.6055 18.3427 23.3777 18.4208 23.1213 18.4209H22.4846C22.4845 19.3323 22.164 20.1088 21.5226 20.75C20.8813 21.3912 20.1034 21.7108 19.1896 21.71C18.2761 21.7091 17.499 21.3893 16.8586 20.75C16.2181 20.1106 15.8976 19.334 15.8967 18.4209H9.54804C9.54801 19.3323 9.22736 20.1088 8.58515 20.75C7.94292 21.3912 7.16497 21.7108 6.25214 21.71L6.08515 21.7061C5.24533 21.6685 4.5241 21.3503 3.92206 20.75C3.28074 20.1088 2.96018 19.3323 2.96015 18.4209C2.96015 17.9735 3.0657 17.5632 3.27656 17.1904C5.69376 12.9167 8.45295 8.69309 11.0168 4.50294H7.26093C7.07382 4.50294 6.91811 4.44085 6.79511 4.31544C6.68261 4.1999 6.62812 4.08822 6.62812 3.90138C6.62817 3.71487 6.66582 3.60369 6.7912 3.47755C6.91684 3.35123 7.0738 3.28819 7.26093 3.28907H18.5568ZM19.2609 16.2539C18.0256 16.2539 17.0236 17.2558 17.0236 18.4912C17.0238 19.7265 18.0257 20.7275 19.2609 20.7275C20.4961 20.7274 21.4971 19.7264 21.4973 18.4912C21.4973 17.2559 20.4962 16.254 19.2609 16.2539ZM6.32343 16.2344C5.08807 16.2344 4.08613 17.2363 4.08613 18.4717C4.08637 19.7069 5.08822 20.708 6.32343 20.708C7.55843 20.7078 8.55952 19.7067 8.55976 18.4717C8.55976 17.2365 7.55858 16.2346 6.32343 16.2344ZM17.3674 14.1445H23.715L23.9475 12.9736L21.0851 9.01954H18.6896L17.3674 14.1445ZM3.11152 4.60743C3.23707 4.6425 3.29991 4.73111 3.29999 4.87306V7.56544H4.78535C4.99789 7.56544 5.15628 7.65526 5.25995 7.83497C5.36363 8.0148 5.356 8.19773 5.23652 8.38282L2.52363 12.708C2.44811 12.8217 2.34722 12.8652 2.22089 12.8389C2.09459 12.8125 2.03165 12.7287 2.03242 12.5869V9.89454H0.547065C0.334571 9.89447 0.176088 9.80369 0.0724551 9.62306C-0.0318426 9.44337 -0.0233969 9.26113 0.0968692 9.07618L2.80878 4.72559C2.88425 4.61187 2.98527 4.57254 3.11152 4.60743Z" fill="#005396"/>
</svg>
