<svg width="25" height="25" viewBox="0 0 25 25" fill="none" xmlns="http://www.w3.org/2000/svg">
<path d="M0.775285 0.137885C0.503477 0.0615632 0.22099 0.21877 0.14259 0.489986C0.0638174 0.76249 0.220707 1.04729 0.493135 1.12633L5.38874 2.54662C5.57761 2.60034 5.72005 2.75596 5.7569 2.94883L8.4948 17.2797C8.55797 17.6104 8.89984 17.8027 9.23078 17.741C9.38688 17.7139 9.49606 17.5684 9.46631 17.4128L6.58603 2.34462C6.51484 1.97222 6.23918 1.67211 5.87415 1.56961L0.775285 0.137885ZM16.4335 4.36682C16.33 3.82654 15.8096 3.4713 15.2687 3.57176L9.12708 4.71254C8.5818 4.81383 8.2231 5.33952 8.32762 5.88419L9.13669 10.1003C9.24024 10.6399 9.75972 10.9949 10.3001 10.8953L16.4419 9.76317C16.9877 9.66256 17.3471 9.13671 17.2427 8.59161L16.4335 4.36682ZM21.4668 10.8893C21.3635 10.3491 20.8432 9.99369 20.3024 10.0939L18.6556 10.399C18.654 10.3993 18.6528 10.4007 18.6528 10.4024C18.6528 10.404 18.6516 10.4055 18.65 10.4058L11.1838 11.7854L10.5038 11.9114C9.95882 12.0124 9.59998 12.5374 9.70373 13.0819L10.4508 17.002C10.5311 17.4232 10.8751 17.7354 11.2842 17.864C12.0187 18.0949 12.6783 18.5184 13.189 19.084C13.4602 19.3843 13.8554 19.5656 14.2533 19.4919L21.8197 18.0903C22.365 17.9893 22.7239 17.4639 22.6198 16.9192L21.4668 10.8893ZM24.9156 19.0291C24.8691 18.7794 24.6291 18.6147 24.3794 18.661L14.5666 20.4809C14.2948 20.5313 14.128 20.8087 14.183 21.0797C14.2202 21.2906 14.4233 21.441 14.634 21.402L24.5471 19.5658C24.7972 19.5195 24.9622 19.2791 24.9156 19.0291ZM10.0678 18.6974C9.85853 18.6974 9.64346 18.7146 9.42259 18.7547C7.68466 19.0753 6.54542 20.7189 6.87673 22.4311C7.20223 24.1491 8.86459 25.2658 10.6083 24.9451C12.3521 24.6244 13.4855 22.9866 13.16 21.2686C12.8694 19.7625 11.5616 18.7203 10.0678 18.6974ZM9.97477 19.9172C10.8641 19.9343 11.6604 20.5643 11.8348 21.4576C12.0266 22.4712 11.3349 23.4677 10.3003 23.6624C9.26565 23.8513 8.2601 23.1756 8.06247 22.1563C7.87066 21.1369 8.55653 20.1405 9.59115 19.9458C9.71903 19.9229 9.8469 19.9114 9.97477 19.9172ZM9.96315 20.9422C9.90502 20.9422 9.8469 20.9479 9.78878 20.9594C9.30634 21.051 8.99828 21.492 9.09128 21.9616C9.17847 22.4369 9.63184 22.7404 10.1085 22.6487C10.5909 22.5571 10.8931 22.1162 10.806 21.6466C10.7246 21.2285 10.37 20.9479 9.96315 20.9422Z" fill="#005396"/>
</svg>
