<svg width="25" height="25" viewBox="0 0 25 25" fill="none" xmlns="http://www.w3.org/2000/svg">
<path fill-rule="evenodd" clip-rule="evenodd" d="M6.55227 1.03081C6.30106 1.12051 5.53208 1.61098 5.07229 1.97478C4.70296 2.26701 3.93446 3.04241 3.65158 3.40824C2.56886 4.80856 1.96029 6.36549 1.80689 8.12755C1.74173 8.87601 1.80267 9.80571 1.95044 10.5316C2.11682 11.3489 2.32596 11.9563 2.71688 12.7572L2.90904 13.151L2.9278 13.5448C2.9418 13.8382 2.96024 13.9799 3.00021 14.1007L3.04717 17.8479L3.04049 21.433C2.99132 21.6024 2.94236 21.7718 2.8926 21.9411C2.84026 22.1191 2.78639 22.1315 2.06823 22.1316C1.38961 22.1316 1.30844 22.1458 1.242 22.2757C1.18217 22.3926 1.14839 22.7434 1.14844 23.2471C1.14845 23.5572 1.14844 23.9989 1.3807 23.9989C7.76484 24.0024 17.5605 23.9989 23.6468 23.9702C23.7351 23.9374 23.7669 23.9081 23.805 23.8243C23.8941 23.6278 23.8574 22.4808 23.7558 22.291C23.6864 22.1614 23.6403 22.1466 23.2486 22.129C23.0436 22.1199 22.8716 22.111 22.8664 22.1093C22.3883 22.1093 22.0885 21.9212 22.0885 21.5515L22.0758 20.4588C22.0758 19.8996 22.0758 19.7931 22.0758 19.4827C22.0758 19.073 21.3404 19.181 20.9965 19.181C20.7866 19.181 20.7989 19.2099 20.7866 17.1777C20.7772 15.638 20.7769 15.0851 20.7769 14.9036C20.7769 14.7222 20.9185 14.6698 21.0071 14.6503C21.0612 14.6384 21.1337 14.6556 21.2678 14.7122C21.5323 14.8237 21.7168 14.8388 21.7613 14.7632C21.8277 14.6503 21.9361 14.7053 22.0774 14.7034C22.2649 14.7007 22.2743 14.6975 22.4754 14.5654C22.7447 14.3886 22.7805 14.3204 22.7376 14.0675C22.69 13.7872 22.6617 13.7219 22.5311 13.5912C22.4312 13.4913 22.4956 13.3637 22.4021 13.3224C19.8096 12.178 14.3957 9.6745 14.3957 9.6745C14.2245 9.58472 14.1729 9.51414 14.0995 9.2699C13.9519 8.77849 13.622 8.37629 13.1614 8.12595C12.9072 7.98779 12.6806 7.92731 12.3613 7.91229C12.0135 7.89593 11.7558 7.95139 11.3809 8.1233C11.1763 8.2171 11.1047 8.23852 11.0294 8.2284C10.9411 8.21657 7.81993 6.89765 7.48504 6.73066C7.24922 6.61309 7.13542 6.48192 7.06067 6.24159C7.04632 6.19538 7.03817 5.19281 7.04028 3.73081C7.04381 1.30384 7.04366 1.29665 6.99027 1.18634C6.90661 1.01343 6.75334 0.959016 6.55227 1.03081ZM6.33093 2.88887C6.44448 2.99768 6.45449 3.0933 6.42612 3.79735C6.38879 4.72325 6.40425 4.70412 5.69452 4.70328C5.15127 4.70267 4.77313 4.63647 4.67863 4.44133C4.48435 4.04041 5.54233 3.14912 5.78702 2.95436C5.9967 2.78748 6.19965 2.76304 6.33093 2.88887ZM4.29248 5.4902C4.442 5.5454 4.61577 5.60378 4.67863 5.61989C4.84833 5.66341 4.92699 5.71175 4.97306 5.80087C5.02916 5.9094 5.00828 6.03688 4.89991 6.24729C4.85135 6.34156 4.77384 6.51017 4.72764 6.62196C4.6197 6.88314 4.54112 6.96492 4.39801 6.96492C4.28972 6.96492 3.99269 6.8583 3.64683 6.69525C3.32799 6.54493 3.30778 6.43426 3.51035 5.94764C3.66735 5.5705 3.72135 5.47729 3.81108 5.42854C3.91622 5.37143 3.99978 5.38212 4.29248 5.4902ZM4.19349 7.6035C4.34018 7.63482 4.44009 7.7086 4.47321 7.81006C4.48797 7.85523 4.51735 8.02522 4.53851 8.18778C4.58339 8.53245 4.66405 8.82768 4.79434 9.12413C4.93072 9.43437 4.92026 9.49966 4.65531 9.99173C4.25985 10.7262 3.82784 11.4712 3.74862 11.5553C3.65199 11.6579 3.5668 11.6635 3.47657 11.5733C3.3269 11.4236 3.07427 10.5076 2.97278 9.74675C2.90833 9.26354 2.82321 8.55451 2.98513 8.08985C3.04159 7.92794 3.21891 7.72432 3.36517 7.65352C3.56777 7.5554 3.88003 7.53655 4.19349 7.6035ZM7.38193 8.77987C8.1087 9.09085 8.82751 9.39897 9.55145 9.70539C10.3554 10.0457 10.3505 10.042 10.4801 10.4112C10.5618 10.6443 10.6353 10.7782 10.804 11.002C10.9832 11.2396 10.995 11.2988 10.9273 11.6172C10.8389 12.0326 9.9735 15.9755 9.27749 19.1338C8.68481 21.8231 8.63757 22.0212 8.57596 22.0748L8.5099 22.1324C7.41278 22.1292 4.83634 22.0748 3.79792 22.0658C3.71934 22.0076 3.69001 21.9308 3.61267 21.5807C3.56223 21.3524 3.56114 21.271 3.56114 17.7786C3.56114 14.7119 3.5665 14.1817 3.59924 14.0106C3.62019 13.9011 3.63733 13.6847 3.63733 13.5298C3.63733 13.3682 3.65178 13.2 3.67119 13.1355C3.6898 13.0736 3.91714 12.6288 4.17634 12.147C4.66095 11.2463 5.7107 9.26228 5.94644 8.80144C6.0237 8.65045 6.11589 8.50979 6.16709 8.46482C6.31904 8.33137 6.35686 8.3412 7.38193 8.77987ZM12.4957 9.32511C12.8055 9.48404 12.8931 9.87977 12.6738 10.1297C12.4097 10.4305 11.9868 10.3743 11.8008 10.0135C11.6387 9.69909 11.904 9.27676 12.2636 9.27676C12.3492 9.27676 12.4372 9.2951 12.4957 9.32511ZM12.1278 9.52969C12.0171 9.59722 11.9556 9.69919 11.9585 9.81041C11.9671 10.1402 12.4119 10.2325 12.565 9.93629C12.6149 9.83993 12.6124 9.76428 12.5562 9.65941C12.5051 9.56406 12.3722 9.47995 12.2729 9.4801C12.2377 9.48015 12.1724 9.50246 12.1278 9.52969ZM20.081 14.2585C20.2486 14.3564 20.247 16.3639 20.2486 17.1768C20.2525 19.0733 20.2515 19.089 20.1261 19.1561C20.0517 19.1959 19.7825 19.2333 19.4757 19.2464C19.1735 19.2593 18.9769 19.282 18.9769 19.4162C18.9769 19.5223 18.9769 19.9077 18.9769 20.4676C18.9763 21.2971 18.8693 22.1389 18.4708 22.1389C18.1124 22.1389 17.9043 22.1252 17.3138 22.1389C16.8389 22.15 16.3865 22.1614 16.3084 22.1643C16.1374 22.1708 15.9528 22.0986 15.909 21.9198C15.8651 21.7409 14.61 16.2289 14.151 14.0783C13.9979 13.3605 13.6482 12.6519 13.6734 11.9113C13.6813 11.6804 13.687 11.6562 13.7446 11.6096C13.7873 11.575 13.8292 11.5634 13.8769 11.5729C15.1997 12.1264 20.081 14.2585 20.081 14.2585ZM12.689 11.764C12.7883 11.8574 12.9507 12.148 12.9673 12.2618C13.0569 12.8777 13.5142 14.0881 13.3397 14.6707C13.2902 14.8358 13.2613 14.8404 12.2669 14.8404C11.4889 14.8403 11.3868 14.8356 11.3073 14.7959C10.7035 14.4942 11.5673 12.672 11.6889 12.1124C11.7745 11.7185 11.8212 11.6861 12.2895 11.6959C12.603 11.7025 12.6282 11.7068 12.689 11.764ZM13.028 15.7566C13.1197 15.7886 13.1411 15.8476 13.0975 15.9483C13.056 16.0441 12.4569 16.6332 12.3657 16.6679C12.2503 16.7118 12.1571 16.6495 11.8072 16.2938C11.507 15.9888 11.4822 15.9564 11.4897 15.8786C11.5032 15.7381 11.5446 15.7304 12.2877 15.73C12.6913 15.7297 12.9809 15.7402 13.028 15.7566ZM11.8407 16.9909V17.1096C11.8407 17.2279 11.8393 17.2298 11.4504 17.6412C11.2357 17.8683 10.9386 18.172 10.79 18.3161C10.5467 18.5522 10.5118 18.5773 10.4374 18.5702C10.3609 18.5628 10.3544 18.5549 10.3474 18.4603C10.3397 18.3554 10.7516 16.4573 10.8075 16.34C10.8491 16.2529 10.9411 16.211 11.0248 16.2411C11.3178 16.3462 11.6158 16.773 11.8407 16.9909ZM13.7336 16.3409C13.7712 16.4135 14.1522 18.07 14.1891 18.3211C14.2112 18.4719 14.1661 18.5394 14.0606 18.5134C13.9795 18.4934 12.8302 17.3708 12.7658 17.2488C12.6903 17.1058 12.7147 17.0403 12.9264 16.818C13.0347 16.7043 13.2119 16.533 13.3202 16.4372C13.483 16.2933 13.5325 16.2631 13.6053 16.2631C13.6779 16.2631 13.7005 16.2768 13.7336 16.3409ZM12.4181 17.5667C12.4801 17.6011 13.5337 18.5946 13.7429 18.8159C13.8383 18.9168 13.8725 18.9727 13.8725 19.0276C13.8725 19.1625 13.8408 19.1702 13.1893 19.1924C12.4707 19.2169 12.5515 19.2169 11.5715 19.192C10.7349 19.1707 10.6968 19.1645 10.6987 19.0482C10.6992 19.0184 10.7135 18.9701 10.7304 18.9407C10.7769 18.8603 12.0358 17.6563 12.142 17.5906C12.2449 17.5271 12.3331 17.5194 12.4181 17.5667ZM14.4459 20.0965C14.5154 20.1281 14.5632 20.1727 14.5914 20.2322C14.6364 20.3271 14.9646 21.7667 14.9646 21.8694C14.9646 21.9807 14.895 22.0769 14.793 22.1064C14.7267 22.1257 13.9442 22.1317 12.2046 22.1265L9.7114 22.1189L9.64585 22.0573C9.55023 21.9674 9.55864 21.8748 9.73314 21.0975C9.90739 20.3212 9.91918 20.2797 9.99232 20.1867C10.1027 20.0464 10.0351 20.0504 12.2725 20.05C14.2332 20.0496 14.3478 20.052 14.4459 20.0965Z" fill="#005396"/>
</svg>
