<svg width="25" height="25" viewBox="0 0 25 25" fill="none" xmlns="http://www.w3.org/2000/svg">
<path d="M12.4947 1.00025C14.4843 1.00025 16.123 1.17444 17.3766 1.38502C18.6469 1.59783 19.2822 1.70424 19.8131 2.35377C20.3439 3.00325 20.3142 3.7055 20.2584 5.10865C20.0665 9.92897 19.0207 15.9487 13.3316 16.4807V20.3977H14.9264C15.1841 20.3979 15.4341 20.4862 15.6334 20.6487C15.8326 20.8111 15.9686 21.0373 16.0191 21.2883L16.2311 22.3372H19.1871C19.4089 22.3372 19.6221 22.4244 19.7789 22.5803C19.9357 22.7362 20.023 22.9478 20.0231 23.1682C20.0231 23.3886 19.9356 23.6002 19.7789 23.7561C19.6221 23.912 19.4089 23.9993 19.1871 23.9993H5.80333C5.58147 23.9993 5.36841 23.912 5.21153 23.7561C5.05471 23.6002 4.96641 23.3887 4.96641 23.1682C4.96648 22.9478 5.05471 22.7362 5.21153 22.5803C5.36839 22.4245 5.58155 22.3372 5.80333 22.3372H8.75841L8.97032 21.2883C9.02087 21.0372 9.15783 20.8111 9.35704 20.6487C9.55627 20.4863 9.80643 20.3979 10.0641 20.3977H11.6588V16.4807C5.97076 15.9487 4.92392 9.92789 4.73204 5.10865C4.67516 3.70542 4.64743 3.00218 5.17833 2.35377C5.70807 1.70429 6.34273 1.59779 7.6129 1.38502C9.2265 1.12234 10.8596 0.993536 12.4947 1.00025ZM4.14513 2.23072C4.16447 2.7079 4.16309 3.19293 4.15196 3.68287C3.39025 3.74413 2.17653 3.98696 2.03282 4.18482C1.54428 4.85967 1.62193 6.53529 1.82677 7.34595C2.00237 8.04062 3.32185 8.9272 3.88927 9.24146L4.10118 9.35767C4.1672 10.0232 4.27965 10.677 4.46837 11.3108L3.58263 10.8235C2.71242 10.3415 0.690388 8.98173 0.420516 7.91627C0.1062 6.67284 -0.0137797 4.10169 0.735946 3.06666C0.990247 2.71644 3.10704 2.23085 4.14513 2.23072ZM20.8522 2.23072C21.89 2.23076 24.0075 2.71642 24.2623 3.06666C25.0118 4.10189 24.892 6.67298 24.5777 7.91627C24.3081 8.98176 22.2849 10.3415 21.4147 10.8235L20.5299 11.3108C20.7188 10.6764 20.8311 10.0219 20.8971 9.35572L21.1051 9.24146C21.6728 8.92697 22.991 8.04042 23.1666 7.34595C23.3715 6.5352 23.4493 4.85952 22.9606 4.18482C22.8166 3.98729 21.6071 3.74458 20.8453 3.68287C20.8342 3.19295 20.8328 2.70788 20.8522 2.23072Z" fill="#005396"/>
</svg>
