<svg width="51" height="50" viewBox="0 0 51 50" fill="none" xmlns="http://www.w3.org/2000/svg">
<path fill-rule="evenodd" clip-rule="evenodd" d="M5.61533 1.58311C5.61533 0.713099 6.33483 0.0078125 7.22238 0.0078125H14.2886C15.7203 0.0078125 16.4373 1.70453 15.425 2.69694L14.0554 4.03965L15.4601 5.46102C16.4478 6.46038 15.7254 8.13241 14.3059 8.13241H8.17533V14.278H17.7923C16.2695 13.3324 15.2586 11.6662 15.2586 9.76845C15.2586 6.82235 17.695 4.43406 20.7005 4.43406C23.5241 4.43406 25.8454 6.54201 26.1161 9.24007C26.9615 7.36933 28.8723 6.06425 31.094 6.06425C33.6902 6.06425 35.8618 7.84637 36.4051 10.2307C37.3994 9.17525 38.823 8.51424 40.4042 8.51424C43.4097 8.51424 45.8461 10.9025 45.8461 13.8486C45.8461 15.9146 44.6479 17.7063 42.8956 18.5924C46.9225 19.5153 49.9216 23.0572 49.9216 27.2858V34.186C49.9216 36.3133 47.8036 38.1023 45.7993 38.62L45.7993 47.4984H48.9503C49.6573 47.4984 50.2303 48.0601 50.2303 48.7531C50.2303 49.4461 49.6573 50.0078 48.9503 50.0078H2.86472C2.15779 50.0078 1.58472 49.4461 1.58472 48.7531C1.58472 48.0601 2.15779 47.4984 2.86472 47.4984H5.61533V22.0581C4.00544 21.5243 2.84656 20.0313 2.84656 18.273C2.84656 16.5146 4.00544 15.0216 5.61533 14.4878V1.58311ZM27.4836 35.6164V47.4984H29.7745V36.4309C29.7745 36.4309 31.2565 35.8999 32.2117 34.3847C33.1669 32.8696 32.9821 23.6631 32.9821 23.6631C32.9821 22.9702 32.4474 18.573 27.9666 15.7647C27.9666 15.7647 27.9666 15.7647 26.8129 15.7666C26.8129 15.7666 28.3831 16.7491 29.4761 18.2741C30.5692 19.7992 31.2108 21.6577 31.2108 23.6631V30.9391C31.2108 33.1988 29.6243 35.0952 27.4836 35.6164ZM27.9666 15.7647L26.8129 15.7666C25.7786 15.1137 24.6077 14.6508 23.3516 14.4282C24.3779 13.8659 25.1993 12.9873 25.6785 11.927C25.8375 13.5129 26.7051 14.8948 27.9666 15.7647ZM33.9281 15.9534C34.5425 16.0816 35.133 16.2727 35.6925 16.5195C35.4195 16.0579 35.2152 15.5524 35.0931 15.0166C34.7517 15.3789 34.3597 15.6948 33.9281 15.9534ZM40.116 20.8676C40.6045 21.9394 40.876 23.1271 40.876 24.3769V31.0908C40.876 33.0856 38.8664 34.7669 36.9987 35.2803V47.4984H39.065V36.4309C40.2013 36.4309 42.5589 34.2006 42.5589 31.6212C42.5589 29.0418 42.5589 25.2976 42.5589 25.2976C42.5589 23.1254 42.3127 20.8676 40.8141 20.8676L40.116 20.8676ZM14.1716 47.4984V22.2679H8.17533V47.4984H14.1716Z" fill="url(#paint0_linear_1288_3331)"/>
<defs>
<linearGradient id="paint0_linear_1288_3331" x1="25.9075" y1="0.0078125" x2="25.9075" y2="50.0078" gradientUnits="userSpaceOnUse">
<stop stop-color="#FEFEFE"/>
<stop offset="0.971154" stop-color="white" stop-opacity="0.17"/>
<stop offset="1" stop-color="white" stop-opacity="0"/>
</linearGradient>
</defs>
</svg>
