<svg width="51" height="50" viewBox="0 0 51 50" fill="none" xmlns="http://www.w3.org/2000/svg">
<path d="M48.6589 0.0118384C49.435 -0.046728 50.121 0.540114 50.2271 1.35331V7.74441L50.2362 48.4501C50.2362 48.4501 50.2408 47.5897 50.2408 48.4501C50.2408 49.3104 49.5798 50.0078 48.7643 50.0078H1.7174C0.901919 50.0078 0.240845 49.3104 0.240845 48.4501V1.70989C0.240845 0.849569 0.901919 0.15214 1.7174 0.15214C2.53287 0.15214 3.19395 0.849569 3.19395 1.70989V43.3614L12.8942 28.2128C13.4655 27.3207 14.5406 26.9559 15.4977 27.3293L21.7531 29.7699L43.0386 5.1569C41.4759 3.74752 40.669 2.95528 40.6108 2.09715C40.5526 1.23902 41.1649 0.493603 41.9783 0.432221L48.6589 0.0118384Z" fill="url(#paint0_linear_1288_3346)"/>
<defs>
<linearGradient id="paint0_linear_1288_3346" x1="25.2408" y1="0.0078125" x2="25.2408" y2="50.0078" gradientUnits="userSpaceOnUse">
<stop stop-color="#FEFEFE"/>
<stop offset="0.971154" stop-color="white" stop-opacity="0.17"/>
<stop offset="1" stop-color="white" stop-opacity="0"/>
</linearGradient>
</defs>
</svg>
