<svg width="51" height="51" viewBox="0 0 51 51" fill="none" xmlns="http://www.w3.org/2000/svg">
<path fill-rule="evenodd" clip-rule="evenodd" d="M5.62437 2.20811C5.62437 1.3381 6.34387 0.632812 7.23142 0.632812H14.2976C15.7293 0.632812 16.4463 2.32953 15.4341 3.32194L14.0645 4.66465L15.4692 6.08602C16.4568 7.08538 15.7344 8.75741 14.3149 8.75741H8.18437V14.903H17.8013C16.2786 13.9574 15.2676 12.2912 15.2676 10.3935C15.2676 7.44735 17.7041 5.05906 20.7095 5.05906C23.5331 5.05906 25.8545 7.16701 26.1251 9.86507C26.9706 7.99433 28.8813 6.68925 31.1031 6.68925C33.6993 6.68925 35.8708 8.47137 36.4141 10.8557C37.4084 9.80025 38.8321 9.13924 40.4132 9.13924C43.4187 9.13924 45.8551 11.5275 45.8551 14.4736C45.8551 16.5396 44.657 18.3313 42.9046 19.2174C46.9315 20.1403 49.9307 23.6822 49.9307 27.9108V34.811C49.9307 36.9383 47.8127 38.7273 45.8083 39.245L45.8084 48.1234H48.9594C49.6663 48.1234 50.2394 48.6851 50.2394 49.3781C50.2394 50.0711 49.6663 50.6328 48.9594 50.6328H2.87375C2.16683 50.6328 1.59375 50.0711 1.59375 49.3781C1.59375 48.6851 2.16683 48.1234 2.87375 48.1234H5.62437V22.6831C4.01447 22.1493 2.85559 20.6563 2.85559 18.898C2.85559 17.1396 4.01447 15.6466 5.62437 15.1128V2.20811ZM27.4926 36.2414V48.1234H29.7835V37.0559C29.7835 37.0559 31.2655 36.5249 32.2207 35.0097C33.1759 33.4946 32.9911 24.2881 32.9911 24.2881C32.9911 23.5952 32.4564 19.198 27.9756 16.3897C27.9756 16.3897 27.9756 16.3897 26.8219 16.3916C26.8219 16.3916 28.3921 17.3741 29.4851 18.8991C30.5782 20.4242 31.2199 22.2827 31.2199 24.2881V31.5641C31.2199 33.8238 29.6333 35.7202 27.4926 36.2414ZM27.9756 16.3897L26.8219 16.3916C25.7876 15.7387 24.6167 15.2758 23.3606 15.0532C24.3869 14.4909 25.2083 13.6123 25.6875 12.552C25.8466 14.1379 26.7141 15.5198 27.9756 16.3897ZM33.9372 16.5784C34.5515 16.7066 35.1421 16.8977 35.7015 17.1445C35.4286 16.6829 35.2242 16.1774 35.1021 15.6416C34.7608 16.0039 34.3688 16.3198 33.9372 16.5784ZM40.125 21.4926C40.6135 22.5644 40.8851 23.7521 40.8851 25.0019V31.7158C40.8851 33.7106 38.8755 35.3919 37.0077 35.9053V48.1234H39.0741V37.0559C40.2104 37.0559 42.568 34.8256 42.568 32.2462C42.568 29.6668 42.568 25.9226 42.568 25.9226C42.568 23.7504 42.3217 21.4926 40.8231 21.4926L40.125 21.4926ZM14.1806 48.1234V22.8929H8.18437V48.1234H14.1806Z" fill="url(#paint0_linear_1720_1650)"/>
<path fill-rule="evenodd" clip-rule="evenodd" d="M5.62437 2.20811C5.62437 1.3381 6.34387 0.632812 7.23142 0.632812H14.2976C15.7293 0.632812 16.4463 2.32953 15.4341 3.32194L14.0645 4.66465L15.4692 6.08602C16.4568 7.08538 15.7344 8.75741 14.3149 8.75741H8.18437V14.903H17.8013C16.2786 13.9574 15.2676 12.2912 15.2676 10.3935C15.2676 7.44735 17.7041 5.05906 20.7095 5.05906C23.5331 5.05906 25.8545 7.16701 26.1251 9.86507C26.9706 7.99433 28.8813 6.68925 31.1031 6.68925C33.6993 6.68925 35.8708 8.47137 36.4141 10.8557C37.4084 9.80025 38.8321 9.13924 40.4132 9.13924C43.4187 9.13924 45.8551 11.5275 45.8551 14.4736C45.8551 16.5396 44.657 18.3313 42.9046 19.2174C46.9315 20.1403 49.9307 23.6822 49.9307 27.9108V34.811C49.9307 36.9383 47.8127 38.7273 45.8083 39.245L45.8084 48.1234H48.9594C49.6663 48.1234 50.2394 48.6851 50.2394 49.3781C50.2394 50.0711 49.6663 50.6328 48.9594 50.6328H2.87375C2.16683 50.6328 1.59375 50.0711 1.59375 49.3781C1.59375 48.6851 2.16683 48.1234 2.87375 48.1234H5.62437V22.6831C4.01447 22.1493 2.85559 20.6563 2.85559 18.898C2.85559 17.1396 4.01447 15.6466 5.62437 15.1128V2.20811ZM27.4926 36.2414V48.1234H29.7835V37.0559C29.7835 37.0559 31.2655 36.5249 32.2207 35.0097C33.1759 33.4946 32.9911 24.2881 32.9911 24.2881C32.9911 23.5952 32.4564 19.198 27.9756 16.3897C27.9756 16.3897 27.9756 16.3897 26.8219 16.3916C26.8219 16.3916 28.3921 17.3741 29.4851 18.8991C30.5782 20.4242 31.2199 22.2827 31.2199 24.2881V31.5641C31.2199 33.8238 29.6333 35.7202 27.4926 36.2414ZM27.9756 16.3897L26.8219 16.3916C25.7876 15.7387 24.6167 15.2758 23.3606 15.0532C24.3869 14.4909 25.2083 13.6123 25.6875 12.552C25.8466 14.1379 26.7141 15.5198 27.9756 16.3897ZM33.9372 16.5784C34.5515 16.7066 35.1421 16.8977 35.7015 17.1445C35.4286 16.6829 35.2242 16.1774 35.1021 15.6416C34.7608 16.0039 34.3688 16.3198 33.9372 16.5784ZM40.125 21.4926C40.6135 22.5644 40.8851 23.7521 40.8851 25.0019V31.7158C40.8851 33.7106 38.8755 35.3919 37.0077 35.9053V48.1234H39.0741V37.0559C40.2104 37.0559 42.568 34.8256 42.568 32.2462C42.568 29.6668 42.568 25.9226 42.568 25.9226C42.568 23.7504 42.3217 21.4926 40.8231 21.4926L40.125 21.4926ZM14.1806 48.1234V22.8929H8.18437V48.1234H14.1806Z" fill="url(#paint1_linear_1720_1650)"/>
<defs>
<linearGradient id="paint0_linear_1720_1650" x1="25.9166" y1="0.632812" x2="25.9166" y2="50.6328" gradientUnits="userSpaceOnUse">
<stop stop-color="#FEFEFE"/>
<stop offset="0.971154" stop-color="white" stop-opacity="0.17"/>
<stop offset="1" stop-color="white" stop-opacity="0"/>
</linearGradient>
<linearGradient id="paint1_linear_1720_1650" x1="25.9166" y1="0.632812" x2="25.9166" y2="50.6328" gradientUnits="userSpaceOnUse">
<stop stop-color="#005396"/>
<stop offset="0.971154" stop-color="#0074CA" stop-opacity="0.17"/>
<stop offset="1" stop-color="white" stop-opacity="0"/>
</linearGradient>
</defs>
</svg>
