<svg width="51" height="51" viewBox="0 0 51 51" fill="none" xmlns="http://www.w3.org/2000/svg">
<path d="M9.57048 29.0227V49.4081C9.57048 50.0845 10.1188 50.6328 10.7951 50.6328H28.4823C29.1587 50.6328 29.707 50.0845 29.707 49.4081V45.0353C29.707 43.5592 30.9036 42.3626 32.3797 42.3626H33.5574C37.6156 42.3626 40.6794 38.7944 41.4413 34.6984L42.2632 31.5837C42.2632 31.5837 41.0894 32.0917 43.8471 31.5837C46.6049 31.0757 46.9177 29.5805 45.5508 27.1315L40.9039 17.9025C40.78 8.34358 32.9926 0.632812 23.4042 0.632812H21.7597C13.5835 0.632812 2.53611 7.00584 4.79168 17.9025C6.36702 25.5131 12.5396 30.2648 19.3816 30.2648C22.4871 30.2648 25.0186 27.7462 25.0186 24.6519V21.1805L24.4659 21.7332C23.9876 22.2114 23.2122 22.2114 22.734 21.7332C22.2557 21.2549 22.2557 20.4795 22.734 20.0012L25.3773 17.3579C25.6069 17.1283 25.9184 16.9992 26.2432 16.9992C26.568 16.9992 26.8795 17.1283 27.1092 17.3579L29.7525 20.0012C30.2308 20.4795 30.2308 21.2549 29.7525 21.7332C29.2743 22.2114 28.4988 22.2114 28.0206 21.7332L27.4679 21.1805V24.6519C27.4679 29.1102 23.8286 32.7141 19.3816 32.7141C15.6311 32.7141 12.1939 31.3209 9.57048 29.0227Z" fill="url(#paint0_linear_1720_3786)"/>
<path d="M9.57048 29.0227V49.4081C9.57048 50.0845 10.1188 50.6328 10.7951 50.6328H28.4823C29.1587 50.6328 29.707 50.0845 29.707 49.4081V45.0353C29.707 43.5592 30.9036 42.3626 32.3797 42.3626H33.5574C37.6156 42.3626 40.6794 38.7944 41.4413 34.6984L42.2632 31.5837C42.2632 31.5837 41.0894 32.0917 43.8471 31.5837C46.6049 31.0757 46.9177 29.5805 45.5508 27.1315L40.9039 17.9025C40.78 8.34358 32.9926 0.632812 23.4042 0.632812H21.7597C13.5835 0.632812 2.53611 7.00584 4.79168 17.9025C6.36702 25.5131 12.5396 30.2648 19.3816 30.2648C22.4871 30.2648 25.0186 27.7462 25.0186 24.6519V21.1805L24.4659 21.7332C23.9876 22.2114 23.2122 22.2114 22.734 21.7332C22.2557 21.2549 22.2557 20.4795 22.734 20.0012L25.3773 17.3579C25.6069 17.1283 25.9184 16.9992 26.2432 16.9992C26.568 16.9992 26.8795 17.1283 27.1092 17.3579L29.7525 20.0012C30.2308 20.4795 30.2308 21.2549 29.7525 21.7332C29.2743 22.2114 28.4988 22.2114 28.0206 21.7332L27.4679 21.1805V24.6519C27.4679 29.1102 23.8286 32.7141 19.3816 32.7141C15.6311 32.7141 12.1939 31.3209 9.57048 29.0227Z" fill="url(#paint1_linear_1720_3786)"/>
<defs>
<linearGradient id="paint0_linear_1720_3786" x1="25.4169" y1="0.632812" x2="25.4169" y2="50.6328" gradientUnits="userSpaceOnUse">
<stop stop-color="#FEFEFE"/>
<stop offset="0.971154" stop-color="white" stop-opacity="0.17"/>
<stop offset="1" stop-color="white" stop-opacity="0"/>
</linearGradient>
<linearGradient id="paint1_linear_1720_3786" x1="25.4169" y1="0.632812" x2="25.4169" y2="50.6328" gradientUnits="userSpaceOnUse">
<stop stop-color="#005396"/>
<stop offset="0.971154" stop-color="#0074CA" stop-opacity="0.17"/>
<stop offset="1" stop-color="white" stop-opacity="0"/>
</linearGradient>
</defs>
</svg>
