<svg width="51" height="51" viewBox="0 0 51 51" fill="none" xmlns="http://www.w3.org/2000/svg">
<path d="M49.3351 0.636838C50.1112 0.578272 50.7972 1.16511 50.9032 1.97831V8.36941L50.9123 49.0751C50.9123 49.0751 50.917 48.2147 50.917 49.0751C50.917 49.9354 50.2559 50.6328 49.4404 50.6328H2.39354C1.57807 50.6328 0.916992 49.9354 0.916992 49.0751V2.33489C0.916992 1.47457 1.57807 0.77714 2.39354 0.77714C3.20902 0.77714 3.87009 1.47457 3.87009 2.33489V43.9864L13.5704 28.8378C14.1416 27.9457 15.2167 27.5809 16.1739 27.9543L22.4292 30.3949L43.7147 5.7819C42.1521 4.37252 41.3452 3.58028 41.287 2.72215C41.2288 1.86402 41.841 1.1186 42.6544 1.05722L49.3351 0.636838Z" fill="url(#paint0_linear_1720_3809)"/>
<path d="M49.3351 0.636838C50.1112 0.578272 50.7972 1.16511 50.9032 1.97831V8.36941L50.9123 49.0751C50.9123 49.0751 50.917 48.2147 50.917 49.0751C50.917 49.9354 50.2559 50.6328 49.4404 50.6328H2.39354C1.57807 50.6328 0.916992 49.9354 0.916992 49.0751V2.33489C0.916992 1.47457 1.57807 0.77714 2.39354 0.77714C3.20902 0.77714 3.87009 1.47457 3.87009 2.33489V43.9864L13.5704 28.8378C14.1416 27.9457 15.2167 27.5809 16.1739 27.9543L22.4292 30.3949L43.7147 5.7819C42.1521 4.37252 41.3452 3.58028 41.287 2.72215C41.2288 1.86402 41.841 1.1186 42.6544 1.05722L49.3351 0.636838Z" fill="url(#paint1_linear_1720_3809)"/>
<defs>
<linearGradient id="paint0_linear_1720_3809" x1="25.917" y1="0.632812" x2="25.917" y2="50.6328" gradientUnits="userSpaceOnUse">
<stop stop-color="#FEFEFE"/>
<stop offset="0.971154" stop-color="white" stop-opacity="0.17"/>
<stop offset="1" stop-color="white" stop-opacity="0"/>
</linearGradient>
<linearGradient id="paint1_linear_1720_3809" x1="25.917" y1="0.632812" x2="25.917" y2="50.6328" gradientUnits="userSpaceOnUse">
<stop stop-color="#005396"/>
<stop offset="0.971154" stop-color="#0074CA" stop-opacity="0.17"/>
<stop offset="1" stop-color="white" stop-opacity="0"/>
</linearGradient>
</defs>
</svg>
