<svg width="51" height="50" viewBox="0 0 51 50" fill="none" xmlns="http://www.w3.org/2000/svg">
<path d="M9.72784 28.3977V48.7831C9.72784 49.4595 10.2761 50.0078 10.9525 50.0078H28.6397C29.316 50.0078 29.8643 49.4595 29.8643 48.7831V44.4103C29.8643 42.9342 31.061 41.7376 32.5371 41.7376H33.7148C37.773 41.7376 40.8367 38.1694 41.5986 34.0734L42.4205 30.9587C42.4205 30.9587 41.2468 31.4667 44.0045 30.9587C46.7622 30.4507 47.0751 28.9555 45.7081 26.5065L41.0613 17.2775C40.9374 7.71858 33.1499 0.0078125 23.5616 0.0078125H21.9171C13.7408 0.0078125 2.69347 6.38084 4.94904 17.2775C6.52438 24.8881 12.697 29.6398 19.539 29.6398C22.6445 29.6398 25.1759 27.1212 25.1759 24.0269V20.5555L24.6233 21.1082C24.145 21.5864 23.3696 21.5864 22.8913 21.1082C22.4131 20.6299 22.4131 19.8545 22.8913 19.3762L25.5346 16.7329C25.7643 16.5033 26.0758 16.3742 26.4006 16.3742C26.7254 16.3742 27.0369 16.5033 27.2666 16.7329L29.9099 19.3762C30.3881 19.8545 30.3881 20.6299 29.9099 21.1082C29.4316 21.5864 28.6562 21.5864 28.1779 21.1082L27.6253 20.5555V24.0269C27.6253 28.4852 23.986 32.0891 19.539 32.0891C15.7885 32.0891 12.3512 30.6959 9.72784 28.3977Z" fill="url(#paint0_linear_1288_3310)"/>
<defs>
<linearGradient id="paint0_linear_1288_3310" x1="25.5742" y1="0.0078125" x2="25.5742" y2="50.0078" gradientUnits="userSpaceOnUse">
<stop stop-color="#FEFEFE"/>
<stop offset="0.971154" stop-color="white" stop-opacity="0.17"/>
<stop offset="1" stop-color="white" stop-opacity="0"/>
</linearGradient>
</defs>
</svg>
