<svg width="50" height="50" viewBox="0 0 50 50" fill="none" xmlns="http://www.w3.org/2000/svg">
<g clip-path="url(#clip0_1310_4934)">
<path d="M25.0001 13.5C25.3257 13.5 25.6451 13.59 25.9229 13.7598C26.2009 13.9297 26.4267 14.173 26.5753 14.4629L36.3106 33.9336C36.4463 34.203 36.5117 34.5024 36.4991 34.8037C36.4865 35.1051 36.3962 35.3982 36.2384 35.6553C36.0805 35.9124 35.8599 36.1257 35.5968 36.2734C35.3337 36.4211 35.0371 36.4991 34.7354 36.5H15.2647C14.9631 36.4991 14.6664 36.421 14.4034 36.2734C14.1403 36.1257 13.9187 35.9124 13.7608 35.6553C13.6032 35.3982 13.5137 35.105 13.5011 34.8037C13.4885 34.5025 13.553 34.2029 13.6886 33.9336L23.4249 14.4629C23.5734 14.173 23.7993 13.9296 24.0772 13.7598C24.3551 13.59 24.6744 13.5 25.0001 13.5ZM24.8946 31.3047C24.4838 31.3049 24.1506 31.638 24.1505 32.0488V32.5781C24.1506 32.9889 24.4838 33.322 24.8946 33.3223C25.3055 33.3221 25.6386 32.989 25.6388 32.5781V32.0488C25.6387 31.6379 25.3055 31.3048 24.8946 31.3047ZM24.3507 21.2949C24.1415 21.295 23.9418 21.3835 23.8009 21.5381C23.6601 21.6927 23.5903 21.8992 23.6095 22.1074L24.1524 27.96C24.1532 27.9945 24.1587 28.0281 24.1641 28.0615C24.1665 28.076 24.1688 28.0904 24.172 28.1045C24.2389 28.4043 24.4854 28.6444 24.8077 28.6826C24.8341 28.6857 24.8608 28.6862 24.8868 28.6865C24.9127 28.6868 24.9396 28.687 24.9659 28.6846C25.2868 28.6547 25.5379 28.4239 25.6143 28.1289C25.619 28.1107 25.6227 28.0921 25.6261 28.0732C25.6318 28.0411 25.6383 28.0089 25.6397 27.9756L26.3311 22.126L26.336 22.0469C26.338 21.8629 26.271 21.6838 26.1475 21.5449C26.024 21.4061 25.8539 21.3185 25.671 21.2988L25.5919 21.2949H24.3507Z" fill="#005396"/>
</g>
<defs>
<clipPath id="clip0_1310_4934">
<rect width="50" height="50" rx="25" fill="white"/>
</clipPath>
</defs>
</svg>
