<svg width="50" height="50" viewBox="0 0 50 50" fill="none" xmlns="http://www.w3.org/2000/svg">
<g clip-path="url(#clip0_1310_4933)">
<path d="M32.2687 13.9473C32.6735 13.9473 33.0038 14.1095 33.26 14.4336C33.5151 14.7578 33.5968 15.1188 33.5051 15.5166L32.5988 19.4736H34.6096C35.009 19.4737 35.3922 19.565 35.759 19.7481C36.1259 19.9312 36.4237 20.1805 36.6535 20.4941L39.4953 24.2803C39.7251 24.5876 39.875 24.9076 39.9436 25.2412C40.0131 25.5739 40.0182 25.9237 39.9592 26.29L39.0139 31.085C38.9548 31.3923 38.8049 31.6399 38.5656 31.8262C38.3264 32.0123 38.0529 32.1054 37.7453 32.1055H36.9816C36.9816 33.1991 36.596 34.131 35.8264 34.9004C35.0568 35.6696 34.1238 36.0538 33.0275 36.0527C31.9312 36.0516 30.9982 35.6677 30.2297 34.9004C29.4612 34.1331 29.0765 33.2012 29.0754 32.1055H21.4582C21.4582 33.1991 21.0726 34.131 20.302 34.9004C19.5314 35.6697 18.5983 36.0537 17.5031 36.0527L17.3029 36.0479C16.295 36.0029 15.4298 35.6207 14.7072 34.9004C13.9376 34.131 13.552 33.1991 13.552 32.1055C13.552 31.5686 13.6788 31.0763 13.9318 30.6289C16.8325 25.5004 20.1433 20.4325 23.2199 15.4043H18.7121C18.4878 15.4042 18.302 15.3291 18.1545 15.1787C18.0195 15.0401 17.9543 14.9068 17.9543 14.6826C17.9543 14.4584 17.9988 14.3244 18.1496 14.1729C18.3002 14.0215 18.4878 13.9463 18.7121 13.9473H32.2687ZM33.1115 29.502C31.6292 29.5021 30.427 30.7042 30.427 32.1865C30.4273 33.6686 31.6294 34.87 33.1115 34.8701C34.5937 34.87 35.7948 33.6686 35.7951 32.1865C35.7951 30.7041 34.5939 29.5021 33.1115 29.502ZM17.5891 29.4775C16.1068 29.4777 14.9045 30.6798 14.9045 32.1621C14.9048 33.6442 16.107 34.8455 17.5891 34.8457C19.0713 34.8457 20.2733 33.6443 20.2736 32.1621C20.2736 30.6797 19.0715 29.4775 17.5891 29.4775ZM30.841 26.9736H38.4582L38.7365 25.5684L35.302 20.8233H32.427L30.841 26.9736ZM13.3703 15.6719C13.461 15.535 13.5828 15.4872 13.7346 15.5293C13.8852 15.5715 13.9602 15.6782 13.9602 15.8486V19.0791H15.7424C15.9974 19.0791 16.1873 19.1868 16.3117 19.4024C16.4361 19.6181 16.4268 19.8375 16.2834 20.0596L13.0285 25.249C12.9378 25.3859 12.817 25.4388 12.6652 25.4072C12.5135 25.3757 12.4377 25.2749 12.4387 25.1045V21.874H10.6564C10.4015 21.8739 10.2115 21.7655 10.0871 21.5488C9.96165 21.333 9.97197 21.1137 10.1164 20.8916L13.3703 15.6719Z" fill="#005396"/>
</g>
<defs>
<clipPath id="clip0_1310_4933">
<rect width="50" height="50" rx="25" fill="white"/>
</clipPath>
</defs>
</svg>
