<svg width="50" height="50" viewBox="0 0 50 50" fill="none" xmlns="http://www.w3.org/2000/svg">
<g clip-path="url(#clip0_1310_4935)">
<path d="M24.9956 11.0001C27.4175 11.0001 29.4122 11.2115 30.938 11.4678C32.484 11.7269 33.2567 11.8569 33.9029 12.6475C34.5489 13.4382 34.5137 14.2929 34.4458 16.001C34.2123 21.8693 32.9385 29.1978 26.0142 29.8458V34.6143H27.9546C28.2682 34.6145 28.5725 34.7224 28.815 34.92C29.0575 35.1178 29.2242 35.3935 29.2857 35.6993L29.5435 36.9756H33.1412C33.411 36.9757 33.67 37.0819 33.8609 37.2715C34.0518 37.4613 34.1587 37.719 34.1587 37.9874C34.1587 38.2558 34.0518 38.5134 33.8609 38.7032C33.67 38.8929 33.4111 39 33.1412 39.0001H16.8501C16.5802 39 16.3213 38.8929 16.1304 38.7032C15.9395 38.5134 15.8326 38.2558 15.8326 37.9874C15.8326 37.719 15.9395 37.4613 16.1304 37.2715C16.3213 37.0819 16.5803 36.9757 16.8501 36.9756H20.4478L20.7056 35.6993C20.7671 35.3935 20.9338 35.1178 21.1763 34.92C21.4187 34.7225 21.7223 34.6146 22.0357 34.6143H23.9771V29.8458C17.054 29.1979 15.7809 21.868 15.5474 16.001C15.4782 14.2927 15.4442 13.4369 16.0904 12.6475C16.7351 11.8569 17.5073 11.7269 19.0533 11.4678C21.0174 11.148 23.0054 10.9919 24.9956 11.0001ZM14.8326 12.4962C14.8561 13.0769 14.8539 13.6675 14.8404 14.2637C13.9136 14.3383 12.4375 14.6343 12.2613 14.8751C11.6663 15.6964 11.7609 17.7367 12.0103 18.7237C12.2241 19.5692 13.8291 20.6485 14.5201 21.0313L14.7788 21.1739C14.8593 21.9839 14.9964 22.7795 15.2261 23.5508L14.148 22.9571C13.0886 22.3704 10.6257 20.7152 10.2974 19.418C9.91474 17.9043 9.76937 14.7737 10.6822 13.5137C10.9929 13.0874 13.5692 12.4963 14.8326 12.4962ZM35.1675 12.4962C36.4312 12.4964 39.0076 13.0874 39.3179 13.5137C40.2304 14.774 40.0853 17.9044 39.7027 19.418C39.3743 20.715 36.9116 22.3702 35.8521 22.9571L34.774 23.5508C35.0036 22.7796 35.1408 21.9838 35.2212 21.1739L35.48 21.0313C36.1711 20.6484 37.776 19.5691 37.9898 18.7237C38.2391 17.7368 38.3335 15.6966 37.7388 14.8751C37.563 14.6343 36.0867 14.3384 35.1597 14.2637C35.1462 13.6676 35.144 13.0768 35.1675 12.4962Z" fill="#005396"/>
</g>
<defs>
<clipPath id="clip0_1310_4935">
<rect width="50" height="50" rx="25" fill="white"/>
</clipPath>
</defs>
</svg>
