<svg width="50" height="50" viewBox="0 0 50 50" fill="none" xmlns="http://www.w3.org/2000/svg">
<g clip-path="url(#clip0_1310_4972)">
<path d="M25 10C16.7212 10 10 16.7212 10 25C10 33.2788 16.7212 40 25 40C33.2638 40 39.9733 33.3028 39.9976 25.0444C39.9989 25.0296 39.9998 25.0148 40 25C39.9998 24.9867 39.9992 24.9734 39.9982 24.9601C39.9766 16.6996 33.2656 10 25 10ZM25 10.9C25.6573 10.9 26.3032 10.9486 26.9365 11.0353C26.9095 11.0713 26.9833 11.1523 27.2413 11.3002L27.5482 11.4046C27.9322 11.3569 27.7687 11.2255 27.5152 11.128C28.4419 11.2945 29.3495 11.554 30.2242 11.9026C29.9818 11.9572 29.6128 11.9872 29.248 11.9728C29.257 12.6961 29.578 14.6287 30.679 14.278C30.4834 14.3209 31.3006 15.1297 30.8782 15.265C30.6532 16.777 29.4277 14.2567 28.8058 14.2897C27.8758 14.4466 28.9822 14.9062 28.6468 15.1315C27.7669 15.8875 29.4082 16.6804 29.2756 15.4099C29.3836 16.4341 29.7304 16.4026 30.5605 16.3492C28.6642 16.6696 31.6165 17.4043 30.6577 18.0181C29.7076 17.9305 29.1751 18.2851 29.7121 19.2151C29.4601 20.0761 30.3112 20.1139 30.6031 20.4115L30.922 20.3821L31.1284 20.3551C31.1203 20.3542 31.1116 20.356 31.1038 20.3548C32.2879 19.9903 31.6756 17.6206 32.9377 17.7754C32.6734 18.6919 34.132 19.5646 33.3496 18.2353C32.8162 17.5615 35.0797 18.7201 34.0825 19.0513C35.0524 20.3317 34.3687 17.8555 35.0911 18.5284C35.5606 19.3462 36.1105 18.7375 36.2383 18.7069C36.5491 18.6202 37.018 18.7567 37.1413 18.8296C38.3308 19.9654 36.0145 19.4944 35.9803 20.3629C36.1063 20.9188 34.7083 20.2144 34.4992 20.0629C33.8863 18.4108 32.4901 20.0587 31.4632 20.3242C31.4284 20.3515 30.5848 21.0097 30.4855 21.097C30.2449 22.5445 29.0815 23.4244 28.6498 24.8887C28.5631 25.7347 28.8436 26.905 28.726 27.8179C28.9996 28.9885 30.1072 29.6587 31.0726 30.2317C31.7992 30.6997 32.5567 29.8033 33.3385 29.7931C34.0225 28.7869 35.1175 29.5246 35.7361 29.4502C35.0236 30.5722 36.2659 31.4392 35.9143 32.653C35.3632 33.3274 35.2081 34.2235 34.9129 35.0284C32.3668 37.5454 28.867 39.1 25 39.1C23.126 39.1023 21.2704 38.7302 19.5421 38.0056C19.8604 37.7161 20.0461 37.2847 20.4742 37.1611C22.4185 37.6312 21.5722 35.2255 22.8922 34.6813C23.7769 33.0601 20.953 32.8021 19.945 32.2117C18.2404 31.9543 18.4006 29.8795 16.8526 29.4307C15.5848 29.2288 16.0447 27.4018 15.1153 27.4996C14.3131 27.6487 13.9948 26.5447 13.5478 26.6236C13.4398 26.7376 12.988 25.8826 12.502 26.8246C11.1295 26.5207 12.0898 24.9448 11.5099 24.0625C11.2696 23.6584 12.1957 21.5863 11.2036 22.7905C11.1646 22.7215 11.1382 22.6276 11.122 22.5175C11.2489 21.8029 11.4307 21.0993 11.6659 20.4127C11.812 20.2504 11.98 20.1697 12.1651 20.2306C12.8986 20.0638 12.6547 21.2161 12.7153 21.9298C13.2682 22.1668 13.0093 19.8376 14.1583 19.7833C14.9404 18.9028 15.8473 18.1531 16.7983 17.5468C17.1691 17.8114 17.9671 17.7793 18.5929 17.1919C17.8957 17.0518 17.8456 16.5199 18.7774 16.3105C20.26 15.6733 18.1084 17.0089 19.3189 17.2015C20.6329 17.5885 19.5187 16.0591 20.1415 15.4609C19.4893 15.0169 20.536 13.2907 19.3954 14.0575C19.7899 13.7755 19.1764 13.2463 19.5286 13.0399C19.6741 13.4479 20.4076 14.0083 20.6683 13.0675C21.4012 13.1926 21.2983 12.1309 21.6943 11.5597C23.5528 10.9048 22.0141 12.7066 21.9442 13.6006C22.5424 15.3436 23.5513 12.9286 24.6142 12.8686C25.9066 12.9127 25.759 11.6773 25.7389 11.0161C25.4597 10.9639 25.178 10.9258 24.895 10.9021C24.9301 10.9021 24.9649 10.9 25 10.9ZM20.0137 12.3901C20.2516 12.361 19.8763 12.8773 19.3633 12.9625C18.6793 13.5328 19.2622 12.7621 19.5538 12.6367C19.7869 12.4699 19.9345 12.3997 20.0137 12.3901ZM30.5047 12.7675C30.5254 12.7657 30.5578 12.7714 30.6067 12.7879C30.8269 13.1527 30.3622 12.7789 30.5047 12.7675ZM18.4288 12.9391C18.9547 12.9772 18.3943 14.2045 17.8099 14.2651C17.4967 14.236 17.2828 14.7301 17.0407 14.8915C17.0167 14.9995 17.0599 13.2007 17.8777 13.1314C18.1282 12.9844 18.3073 12.9304 18.4288 12.9391ZM26.0002 12.9721C25.732 12.9832 25.5328 13.0963 25.6423 13.3879C25.7989 13.5388 26.0272 13.5754 26.2351 13.5766C27.5161 13.4176 26.5903 12.9475 26.0002 12.9721ZM30.5377 13.2058C30.5947 13.2112 30.7276 13.2616 30.9748 13.3864C31.474 14.0164 30.2917 13.1836 30.5377 13.2061M28.0708 13.6687C28.0546 13.6756 28.0411 13.7059 28.0363 13.7722C28.2712 14.0362 28.1413 13.6375 28.0708 13.6687ZM28.978 13.8865C28.9588 13.8814 28.957 13.9231 28.9954 14.0545C29.2477 14.3419 29.035 13.9021 28.978 13.8865ZM31.546 13.8895C31.7524 13.8886 32.3299 14.2477 32.2135 14.6395C31.6558 15.0901 31.9141 14.8495 31.8052 14.35C31.4317 14.0197 31.4224 13.8901 31.546 13.8895ZM15.2863 15.7117C15.3271 15.7165 15.3853 15.7654 15.4651 15.8857C15.2659 16.4971 15.1099 15.691 15.2863 15.7117ZM18.0718 16.0663C18.109 16.0666 18.1696 16.0963 18.2587 16.1803C18.064 16.3273 17.9608 16.0648 18.0718 16.0663ZM35.1388 16.1743C35.1919 16.168 35.2963 16.2424 35.4706 16.4437C35.6788 16.1017 36.7534 16.8955 35.821 17.0389C35.6452 17.7403 34.9099 16.2007 35.1391 16.174M15.3082 16.4557C15.3277 16.4512 15.3484 16.4632 15.3691 16.4989C15.0895 17.323 15.1717 16.486 15.3082 16.4557ZM33.4537 17.3023C33.4633 17.3001 33.4733 17.3003 33.4828 17.3029C33.6508 17.3308 34.3129 17.7073 34.5769 17.9695C34.7386 18.3313 34.0468 17.6869 33.9067 17.7289C33.5149 17.4367 33.4069 17.3164 33.4537 17.3023ZM14.9632 17.3092C14.9974 17.3161 15.0241 17.3512 15.0316 17.4322C14.5255 17.7841 14.815 17.2792 14.9632 17.3092ZM35.476 17.98C35.5018 17.9689 35.5762 18.0106 35.7298 18.1552C35.7568 18.5218 35.3983 18.013 35.476 17.98ZM32.3938 18.6742C32.3317 18.6841 32.2363 18.7924 32.1061 19.0798C32.4691 19.5034 32.5801 18.6448 32.3938 18.6742ZM36.2152 18.9766C36.1474 18.9856 36.0763 19.0615 36.0289 19.2577C36.5929 19.5268 36.4186 18.9502 36.2152 18.9766ZM25.2529 19.8106C25.18 19.804 25.078 19.8346 24.9538 19.9375C25.432 20.1847 25.4725 19.8298 25.2532 19.8103M25.915 20.0356C25.885 20.0245 25.8256 20.0452 25.7245 20.1301C25.8286 20.3905 26.0044 20.0692 25.915 20.0356ZM28.297 21.559C28.2679 21.5659 28.2301 21.598 28.1815 21.6709C28.3657 21.9757 28.4215 21.529 28.2967 21.559M13.2466 21.6874C13.2193 21.6877 13.2028 21.7558 13.219 21.9511C13.5118 22.2997 13.3288 21.6865 13.2466 21.6874ZM13.0837 22.1824C13.0564 22.1779 13.0153 22.2592 12.9607 22.5013C13.1257 22.9816 13.1662 22.1965 13.0837 22.1824ZM12.2458 22.4356C11.6635 22.3756 12.7351 23.4037 12.7774 23.857C13.8559 24.148 12.6265 24.4774 13.5385 24.8449C14.9116 25.3393 14.0629 24.235 13.4806 24.0025C13.7089 23.6356 12.9013 23.365 12.6046 22.5328C12.4459 22.4749 12.3292 22.4443 12.2458 22.4356ZM29.2567 22.6654C29.1949 22.6654 29.1268 22.7794 29.098 23.1193C29.5006 23.2162 29.3929 22.6654 29.2567 22.6654ZM13.3795 22.9102C13.3757 22.9092 13.3717 22.9089 13.3678 22.9094C13.3639 22.9099 13.3601 22.9112 13.3567 22.9132C13.3252 22.9333 13.3231 23.0311 13.4107 23.2441L13.4785 23.2891C13.5346 23.0902 13.4392 22.9255 13.3795 22.9102ZM28.2313 22.9354C28.0549 22.9456 27.9412 23.0254 28.0663 23.2342L28.1191 23.2588H28.4188C29.3089 23.2294 28.6189 22.9132 28.2313 22.9354ZM12.544 24.0292C12.4651 24.0124 12.454 24.1039 12.643 24.4228C13.2202 24.6235 12.718 24.0658 12.544 24.0292ZM10.9333 24.0742C11.1334 24.9409 11.2609 25.9486 11.6323 26.7103C11.8777 27.6427 12.0586 26.4691 12.1198 27.2038C12.328 28.5916 11.482 30.0214 12.523 31.3522C13.018 32.6941 14.1052 33.6343 14.866 34.8028C12.412 32.266 10.9 28.8118 10.9 25C10.9 24.6886 10.9135 24.3805 10.9333 24.0742ZM14.5228 24.8746C14.4508 24.8836 14.3866 24.9604 14.3692 25.1587C15.0304 25.429 14.7391 24.8473 14.5228 24.8746ZM15.5758 25.9681C15.5467 25.9564 15.5164 26.0878 15.4966 26.4823L15.5086 26.6998C15.7426 27.325 15.6634 26.0026 15.5758 25.9681ZM26.0986 26.8483C26.0239 26.8402 26.023 26.8984 26.2306 27.0955C26.7847 27.2053 26.263 26.8663 26.0986 26.8483ZM26.9044 27.0328C26.8699 27.0334 26.8249 27.0583 26.7685 27.1231C26.9983 27.4843 27.0535 27.0301 26.9044 27.0328ZM26.7706 27.4282C26.7178 27.4366 26.6437 27.4717 26.5435 27.5476C26.8192 27.8452 26.9995 27.391 26.7706 27.4282ZM26.3836 27.4861C26.3554 27.4831 26.3128 27.5245 26.2546 27.6496C26.4196 27.9034 26.4676 27.4951 26.3836 27.4861ZM35.1496 30.28C35.1214 30.277 35.0788 30.3181 35.0206 30.4435C35.1856 30.6973 35.2339 30.2887 35.1496 30.28Z" fill="#005396"/>
</g>
<defs>
<clipPath id="clip0_1310_4972">
<rect width="50" height="50" rx="25" fill="white"/>
</clipPath>
</defs>
</svg>
