<svg width="50" height="50" viewBox="0 0 50 50" fill="none" xmlns="http://www.w3.org/2000/svg">
<g clip-path="url(#clip0_1310_4936)">
<path d="M10.9426 9.94657C10.6104 9.8519 10.2644 10.0445 10.1698 10.3767V10.3767C10.0758 10.7067 10.2653 11.0509 10.5945 11.1478L16.4665 12.8769V12.8769C16.6932 12.9424 16.8637 13.1299 16.9073 13.3618L20.1957 30.8318C20.2703 31.2282 20.6806 31.4586 21.0769 31.3836V31.3836V31.3836C21.2645 31.3505 21.3957 31.1758 21.3605 30.9886L17.8782 12.4979C17.8081 12.1257 17.5338 11.8251 17.1696 11.7213L10.9426 9.94657ZM29.6811 14.8868C29.5787 14.3442 29.0559 13.9872 28.5132 14.0896L20.7488 15.5534C20.2059 15.6557 19.8489 16.179 19.9515 16.7218L21.0031 22.284C21.1056 22.8259 21.6275 23.1826 22.1696 23.0812L29.9341 21.6284C30.4776 21.5268 30.8354 21.0034 30.7329 20.4601L29.6811 14.8868ZM35.7211 22.8312C35.6189 22.2886 35.0962 21.9315 34.5536 22.0336L32.3868 22.441C32.3848 22.4414 32.3833 22.4431 32.3833 22.4452V22.4452C32.3833 22.4472 32.3819 22.4489 32.3799 22.4493L23.4205 24.1296L22.4011 24.3214C21.8585 24.4235 21.5013 24.9461 21.6032 25.4887L22.5696 30.6361C22.6488 31.0578 22.9914 31.3727 23.4036 31.4916C24.3834 31.7742 25.2598 32.3445 25.9149 33.1209C26.178 33.4328 26.5779 33.615 26.9789 33.5396L36.3873 31.7707C36.9302 31.6686 37.2875 31.1456 37.1852 30.6028L35.7211 22.8312ZM39.8993 32.9554C39.8433 32.6501 39.5497 32.4486 39.2447 32.506L27.4882 34.7191C27.1568 34.7815 26.9535 35.1193 27.0196 35.45V35.45V35.45C27.0642 35.7066 27.3114 35.8895 27.5674 35.8414L39.4519 33.607C39.755 33.55 39.955 33.2587 39.8993 32.9554V32.9554ZM22.0813 32.5484C21.8302 32.5484 21.5722 32.5693 21.3071 32.6181C19.2216 33.0087 17.8545 35.0106 18.2521 37.0961C18.6427 39.1886 20.6375 40.5487 22.73 40.1581C24.8225 39.7675 26.1826 37.7726 25.792 35.6801C25.4433 33.8457 23.8739 32.5763 22.0813 32.5484ZM21.9697 34.0341C23.0369 34.055 23.9925 34.8222 24.2017 35.9103C24.4319 37.1449 23.6019 38.3585 22.3603 38.5957C21.1188 38.8259 19.9121 38.0028 19.675 36.7613C19.4448 35.5197 20.2678 34.3061 21.5094 34.0689C21.6628 34.041 21.8163 34.0271 21.9697 34.0341ZM21.9558 35.2826C21.886 35.2826 21.8163 35.2896 21.7465 35.3035C21.1676 35.4151 20.7979 35.9522 20.9095 36.5241C21.0142 37.103 21.5582 37.4727 22.1302 37.3611C22.7091 37.2495 23.0718 36.7124 22.9671 36.1405C22.8695 35.6313 22.444 35.2896 21.9558 35.2826Z" fill="#005396"/>
</g>
<defs>
<clipPath id="clip0_1310_4936">
<rect width="50" height="50" rx="25" fill="white"/>
</clipPath>
</defs>
</svg>
