<svg width="97" height="34" viewBox="0 0 97 34" fill="none" xmlns="http://www.w3.org/2000/svg">
<path d="M30.4633 -5.24521e-05C28.0724 -5.24521e-05 26.1368 1.93797 26.1368 4.33189C26.1368 5.05256 26.3271 5.699 26.6311 6.30767L20.6729 12.2709C21.4328 12.7274 22.0383 13.3744 22.4942 14.1328L28.4901 8.16959C29.098 8.47149 29.7417 8.62368 30.4633 8.62368C32.8549 8.62368 34.7521 6.68625 34.7521 4.33189C34.7521 1.93797 32.8549 -5.24521e-05 30.4633 -5.24521e-05Z" fill="#73CBFF"/>
<path d="M30.4649 12.6872C28.5299 12.6872 26.8983 13.9399 26.3664 15.688H21.8903C21.8143 15.4616 21.7383 15.2333 21.624 15.0051C21.2064 14.2442 20.5602 13.6002 19.765 13.1815C19.1948 12.8771 18.5109 12.6872 17.7936 12.6872C17.072 12.6872 16.3881 12.8771 15.8203 13.1815L14.9084 12.2685L8.91261 6.30345C9.21656 5.6966 9.40684 5.01184 9.40684 4.32708C9.40684 1.93559 7.47125 0 5.11802 0C2.72893 0 0.793945 1.93559 0.793945 4.32708C0.793945 6.68387 2.72893 8.62128 5.11802 8.62128C5.80192 8.62128 6.48582 8.43137 7.0913 8.12703L13.0494 14.1304L13.9613 15.0051C13.847 15.2333 13.771 15.4616 13.695 15.688H9.21656C8.64938 13.9399 7.01531 12.6872 5.11802 12.6872C2.72893 12.6872 0.793945 14.6246 0.793945 17.0192C0.793945 19.3729 2.72893 21.311 5.11802 21.311C7.01531 21.311 8.64938 20.0577 9.21656 18.3102H13.695C14.1133 19.6395 15.1364 20.6664 16.4641 21.1229V25.5668C14.7188 26.1377 13.4671 27.7708 13.4671 29.6681C13.4671 32.0626 15.4027 34 17.7936 34C20.1426 34 22.0775 32.0626 22.0775 29.6681C22.0775 27.7708 20.8265 26.1377 19.0811 25.5668V21.1229C20.4082 20.7047 21.4721 19.6395 21.8903 18.3102H26.3664C26.8983 20.0577 28.5299 21.311 30.4649 21.311C32.8564 21.311 34.7537 19.3729 34.7537 17.0192C34.7537 14.6246 32.8564 12.6872 30.4649 12.6872Z" fill="#005396"/>
<path d="M90.096 23.115C88.9586 23.115 88.0467 22.7346 87.3245 21.9385C86.6054 21.1776 86.2631 20.2287 86.2631 19.0874C86.2631 17.9486 86.6054 16.9979 87.3245 16.2011C88.0467 15.4403 88.9586 15.0215 90.096 15.0215C91.2334 15.0215 92.1452 15.4403 92.8674 16.2011C93.6249 16.9979 93.9666 17.9486 93.9666 19.0497C93.9666 20.191 93.6249 21.1393 92.8674 21.9385C92.1452 22.6969 91.2334 23.115 90.096 23.115ZM93.8529 14.7555C92.7532 13.4262 91.3854 12.7798 89.7543 12.7798C88.0467 12.7798 86.6054 13.3884 85.4655 14.5674C84.3682 15.7446 83.7986 17.1878 83.7986 19.0114C83.7986 20.7972 84.3682 22.3165 85.4655 23.5338C86.6054 24.7488 88.0467 25.3574 89.7543 25.3574C91.3854 25.3574 92.7532 24.7104 93.8529 23.4194V25.0531H96.2061V13.0841H93.8529V14.7555ZM82.2053 22.4303C81.4472 22.8868 80.7256 23.115 80.0794 23.115C78.866 23.115 78.2581 22.3542 78.2581 20.7972V15.1737H82.395V13.0841H78.2581V8.8325H75.8313V13.0841H73.7444V15.1737H75.8313V20.7589C75.8313 23.7237 77.159 25.3574 79.7402 25.3574C81.0296 25.3574 82.167 25.0147 83.0412 24.33L82.2053 22.4303ZM66.9121 14.9077C68.6957 14.9077 70.1012 16.125 70.2914 18.0247H63.3454C63.6877 16.1628 65.0531 14.9077 66.9121 14.9077ZM72.7565 18.8215C72.7565 16.9595 72.2246 15.5164 71.1249 14.4153C70.0252 13.3124 68.6197 12.7798 66.9121 12.7798C65.1291 12.7798 63.6117 13.3884 62.512 14.5674C61.3722 15.7446 60.8044 17.2261 60.8044 19.0497C60.8044 22.2021 62.74 25.3191 67.216 25.3191C69.2276 25.3191 71.1626 24.5582 72.4143 23.6476L71.3528 21.8624C70.2914 22.6208 68.6574 23.1534 67.3303 23.1534C65.0148 23.1534 63.6877 21.9001 63.3454 20.0005H72.6805C72.7565 19.5823 72.7565 19.1636 72.7565 18.8215ZM58.6031 8.64259L54.583 16.5791L50.6364 8.64259H47.7537L53.2936 19.2019V25.0531H55.8724V19.2019L61.4864 8.64259" fill="#005396"/>
</svg>
