<svg width="51" height="50" viewBox="0 0 51 50" fill="none" xmlns="http://www.w3.org/2000/svg">
<g clip-path="url(#clip0_1670_4946)">
<rect x="0.666748" y="-0.0078125" width="50" height="50" rx="25" fill="white"/>
<path d="M36.1309 10.9948C34.1599 10.9948 32.5642 12.5906 32.5642 14.5618C32.5642 15.1552 32.7211 15.6875 32.9716 16.1887L28.0598 21.0989C28.6863 21.4748 29.1854 22.0076 29.5613 22.6321L34.5042 17.7218C35.0053 17.9704 35.5361 18.0957 36.1309 18.0957C38.1025 18.0957 39.6666 16.5004 39.6666 14.5618C39.6666 12.5906 38.1025 10.9948 36.1309 10.9948Z" fill="#61B4FA"/>
<path d="M36.1271 21.4408C34.532 21.4408 33.1868 22.4723 32.7483 23.9117H29.0583C28.9957 23.7253 28.933 23.5373 28.8388 23.3494C28.4945 22.7229 27.9618 22.1926 27.3063 21.8478C26.8362 21.5972 26.2724 21.4408 25.681 21.4408C25.0862 21.4408 24.5224 21.5972 24.0543 21.8478L23.3026 21.096L18.3597 16.1843C18.6103 15.6846 18.7671 15.1207 18.7671 14.5569C18.7671 12.5877 17.1714 10.9939 15.2315 10.9939C13.2619 10.9939 11.6667 12.5877 11.6667 14.5569C11.6667 16.4975 13.2619 18.0928 15.2315 18.0928C15.7953 18.0928 16.3591 17.9365 16.8582 17.6859L21.77 22.6292L22.5218 23.3494C22.4276 23.5373 22.3649 23.7253 22.3023 23.9117H18.6103C18.1427 22.4723 16.7956 21.4408 15.2315 21.4408C13.2619 21.4408 11.6667 23.0361 11.6667 25.0078C11.6667 26.946 13.2619 28.5418 15.2315 28.5418C16.7956 28.5418 18.1427 27.5098 18.6103 26.0709H22.3023C22.6471 27.1655 23.4905 28.011 24.585 28.3869V32.0461C23.1462 32.5163 22.1143 33.861 22.1143 35.4232C22.1143 37.3949 23.71 38.9902 25.681 38.9902C27.6175 38.9902 29.2127 37.3949 29.2127 35.4232C29.2127 33.861 28.1813 32.5163 26.7425 32.0461V28.3869C27.8365 28.0426 28.7135 27.1655 29.0583 26.0709H32.7483C33.1868 27.5098 34.532 28.5418 36.1271 28.5418C38.0987 28.5418 39.6628 26.946 39.6628 25.0078C39.6628 23.0361 38.0987 21.4408 36.1271 21.4408Z" fill="#005396"/>
</g>
<defs>
<clipPath id="clip0_1670_4946">
<rect x="0.666748" y="-0.0078125" width="50" height="50" rx="25" fill="white"/>
</clipPath>
</defs>
</svg>
