<svg width="80" height="28" viewBox="0 0 80 28" fill="none" xmlns="http://www.w3.org/2000/svg">
<path d="M24.8856 0.00112543C22.8802 0.00112543 21.2567 1.5971 21.2567 3.56852C21.2567 4.16199 21.4163 4.69434 21.6712 5.19559L16.6738 10.1063C17.3112 10.4823 17.819 11.0151 18.2015 11.6396L23.2305 6.72889C23.7404 6.9775 24.2803 7.10283 24.8856 7.10283C26.8915 7.10283 28.4828 5.50735 28.4828 3.56852C28.4828 1.5971 26.8915 0.00112543 24.8856 0.00112543Z" fill="#73CBFF"/>
<path d="M24.8866 10.4478C23.2636 10.4478 21.8951 11.4794 21.4489 12.9189H17.6946C17.6309 12.7325 17.5672 12.5445 17.4713 12.3565C17.121 11.73 16.579 11.1997 15.9121 10.8548C15.4338 10.6042 14.8602 10.4478 14.2585 10.4478C13.6533 10.4478 13.0796 10.6042 12.6034 10.8548L11.8386 10.1029L6.80955 5.1907C7.0645 4.69096 7.22409 4.12705 7.22409 3.56314C7.22409 1.59374 5.60061 -0.000239727 3.62683 -0.000239727C1.62297 -0.000239727 0 1.59374 0 3.56314C0 5.50398 1.62297 7.09945 3.62683 7.09945C4.20045 7.09945 4.77408 6.94305 5.28193 6.69243L10.2793 11.6363L11.0442 12.3565C10.9483 12.5445 10.8846 12.7325 10.8208 12.9189H7.0645C6.58877 11.4794 5.21819 10.4478 3.62683 10.4478C1.62297 10.4478 0 12.0433 0 14.0152C0 15.9535 1.62297 17.5495 3.62683 17.5495C5.21819 17.5495 6.58877 16.5174 7.0645 15.0783H10.8208C11.1716 16.173 12.0298 17.0187 13.1434 17.3946V21.0542C11.6795 21.5244 10.6296 22.8692 10.6296 24.4316C10.6296 26.4035 12.2531 27.999 14.2585 27.999C16.2287 27.999 17.8517 26.4035 17.8517 24.4316C17.8517 22.8692 16.8023 21.5244 15.3384 21.0542V17.3946C16.4515 17.0502 17.3438 16.173 17.6946 15.0783H21.4489C21.8951 16.5174 23.2636 17.5495 24.8866 17.5495C26.8925 17.5495 28.4839 15.9535 28.4839 14.0152C28.4839 12.0433 26.8925 10.4478 24.8866 10.4478Z" fill="#FEFFFF"/>
<path d="M74.8751 19.0352C73.9211 19.0352 73.1562 18.722 72.5505 18.0663C71.9473 17.4398 71.6602 16.6583 71.6602 15.7185C71.6602 14.7806 71.9473 13.9977 72.5505 13.3416C73.1562 12.715 73.9211 12.3701 74.8751 12.3701C75.8291 12.3701 76.5939 12.715 77.1996 13.3416C77.8349 13.9977 78.1215 14.7806 78.1215 15.6874C78.1215 16.6272 77.8349 17.4082 77.1996 18.0663C76.5939 18.6909 75.8291 19.0352 74.8751 19.0352ZM78.0262 12.1511C77.1038 11.0564 75.9565 10.524 74.5885 10.524C73.1562 10.524 71.9473 11.0253 70.9912 11.9962C70.0709 12.9656 69.5931 14.1541 69.5931 15.6558C69.5931 17.1265 70.0709 18.3776 70.9912 19.3801C71.9473 20.3806 73.1562 20.8818 74.5885 20.8818C75.9565 20.8818 77.1038 20.349 78.0262 19.2858V20.6312H79.9999V10.7747H78.0262V12.1511ZM68.2567 18.4713C67.6209 18.8473 67.0156 19.0352 66.4736 19.0352C65.4559 19.0352 64.946 18.4087 64.946 17.1265V12.4954H68.4158V10.7747H64.946V7.27344H62.9105V10.7747H61.1601V12.4954H62.9105V17.0949C62.9105 19.5365 64.0241 20.8818 66.1891 20.8818C67.2706 20.8818 68.2246 20.5996 68.9578 20.0357L68.2567 18.4713ZM55.4295 12.2764C56.9255 12.2764 58.1043 13.2789 58.2639 14.8433H52.438C52.725 13.31 53.8702 12.2764 55.4295 12.2764ZM60.3315 15.4994C60.3315 13.9661 59.8854 12.7776 58.963 11.8709C58.0406 10.9626 56.8617 10.524 55.4295 10.524C53.934 10.524 52.6613 11.0253 51.7389 11.9962C50.7829 12.9656 50.3066 14.1857 50.3066 15.6874C50.3066 18.2834 51.9301 20.8503 55.6844 20.8503C57.3716 20.8503 58.9946 20.2237 60.0445 19.4738L59.1542 18.0037C58.2639 18.6282 56.8933 19.0668 55.7803 19.0668C53.8381 19.0668 52.725 18.0347 52.438 16.4703H60.2678C60.3315 16.126 60.3315 15.7811 60.3315 15.4994ZM48.4603 7.11704L45.0884 13.6528L41.7782 7.11704H39.3604L44.007 15.8127V20.6312H46.1699V15.8127L50.8787 7.11704" fill="#FEFFFF"/>
</svg>
