<svg width="26" height="26" viewBox="0 0 26 26" fill="none" xmlns="http://www.w3.org/2000/svg">
<path d="M25.126 0.634825C25.5141 0.605542 25.8571 0.898963 25.9101 1.30556V4.50111L25.9146 24.8539C25.9146 24.8539 25.917 24.4238 25.917 24.8539C25.917 25.2841 25.5865 25.6328 25.1787 25.6328H1.65527C1.24753 25.6328 0.916992 25.2841 0.916992 24.8539V1.48385C0.916992 1.05369 1.24753 0.704976 1.65527 0.704976C2.06301 0.704976 2.39354 1.05369 2.39354 1.48385V22.3096L7.24367 14.7353C7.5293 14.2893 8.06686 14.1068 8.54543 14.2936L11.6731 15.5138L22.3159 3.20736C21.5345 2.50267 21.1311 2.10654 21.102 1.67748C21.0729 1.24841 21.379 0.875708 21.7857 0.845017L25.126 0.634825Z" fill="#FEFFFF"/>
</svg>
