<svg width="26" height="26" viewBox="0 0 26 26" fill="none" xmlns="http://www.w3.org/2000/svg">
<path fill-rule="evenodd" clip-rule="evenodd" d="M2.98841 1.62041C2.98841 1.18541 3.35818 0.832764 3.81431 0.832764H7.44577C8.18154 0.832764 8.55004 1.68112 8.02981 2.17733L7.32596 2.84868L8.04786 3.55937C8.55543 4.05905 8.18417 4.89506 7.45467 4.89506H4.30405V7.96787H9.24641C8.46383 7.49508 7.94429 6.66194 7.94429 5.71308C7.94429 4.24003 9.19642 3.04589 10.741 3.04589C12.1921 3.04589 13.3851 4.09986 13.5242 5.44889C13.9587 4.51352 14.9407 3.86098 16.0824 3.86098C17.4167 3.86098 18.5327 4.75204 18.8119 5.94422C19.3229 5.41648 20.0545 5.08598 20.8671 5.08598C22.4117 5.08598 23.6638 6.28012 23.6638 7.75317C23.6638 8.78617 23.0481 9.68201 22.1475 10.1251C24.217 10.5865 25.7583 12.3575 25.7583 14.4717V17.9219C25.7583 18.9855 24.6699 19.88 23.6398 20.1388L23.6398 24.5781H25.2592C25.6225 24.5781 25.917 24.8589 25.917 25.2054C25.917 25.5519 25.6225 25.8328 25.2592 25.8328H1.57481C1.21151 25.8328 0.916992 25.5519 0.916992 25.2054C0.916992 24.8589 1.21151 24.5781 1.57481 24.5781H2.98841V11.8579C2.16105 11.591 1.56548 10.8445 1.56548 9.96534C1.56548 9.08617 2.16105 8.33966 2.98841 8.07275V1.62041ZM14.2269 18.6371V24.5781H15.4043V19.0443C15.4043 19.0443 16.1659 18.7788 16.6568 18.0212C17.1477 17.2637 17.0528 12.6604 17.0528 12.6604C17.0528 12.3139 17.1581 10.067 15.1386 8.71213C15.1386 8.71213 14.4752 8.71121 13.8823 8.71213C13.8823 8.71213 14.6892 9.20338 15.251 9.96592C15.8127 10.7285 16.1425 11.6577 16.1425 12.6604V16.2984C16.1425 17.4282 15.3271 18.3765 14.2269 18.6371ZM15.1386 8.71213H13.8823C13.3507 8.38572 12.749 8.15428 12.1034 8.04294C12.6309 7.76182 13.053 7.32253 13.2993 6.79237C13.381 7.58528 14.4902 8.27719 15.1386 8.71213ZM17.5389 8.80557C17.8547 8.86965 18.1582 8.96521 18.4457 9.08862C18.3054 8.8578 18.2004 8.60507 18.1376 8.33713C17.9622 8.51833 17.7608 8.67627 17.5389 8.80557ZM20.719 11.2627C20.97 11.7986 21.1096 12.3924 21.1096 13.0173V16.5313C21.1096 17.5288 20.0762 18.3918 19.117 18.469V24.5781H20.1789V19.0443C20.7629 19.0443 21.9745 18.187 21.9745 16.8973C21.9745 15.6076 21.9745 13.4777 21.9745 13.4777C21.9745 12.3916 21.848 11.2627 21.0778 11.2627L20.719 11.2627ZM7.38563 24.5781V11.9628H4.30405V24.5781H7.38563Z" fill="#FEFFFF"/>
</svg>
