<svg width="25" height="25" viewBox="0 0 25 25" fill="none" xmlns="http://www.w3.org/2000/svg">
<path fill-rule="evenodd" clip-rule="evenodd" d="M25 0C20.2351 0 17.8537 1.21025 15.6924 3.30331C13.5312 5.39638 12.4659 9.01682 12.4659 9.01682C11.4625 7.70299 10.0285 6.04038 8.10331 5.08369C5.5455 3.81261 3.19506 3.30331 0 3.30331C0 7.11134 1.67278 10.8279 3.63649 12.7231C5.60019 14.6184 8.66501 15.6592 11.7064 15.6592V24.0831C11.7064 24.6307 12.0384 25 12.4659 25C12.8934 25 13.1904 24.6531 13.1904 24.0831V13.4066C16.0545 13.4066 19.3939 11.8395 21.5309 9.8444C23.5142 7.99275 25 4.55968 25 0Z" fill="url(#paint0_linear_1994_19566)"/>
<path fill-rule="evenodd" clip-rule="evenodd" d="M25 0C20.2351 0 17.8537 1.21025 15.6924 3.30331C13.5312 5.39638 12.4659 9.01682 12.4659 9.01682C11.4625 7.70299 10.0285 6.04038 8.10331 5.08369C5.5455 3.81261 3.19506 3.30331 0 3.30331C0 7.11134 1.67278 10.8279 3.63649 12.7231C5.60019 14.6184 8.66501 15.6592 11.7064 15.6592V24.0831C11.7064 24.6307 12.0384 25 12.4659 25C12.8934 25 13.1904 24.6531 13.1904 24.0831V13.4066C16.0545 13.4066 19.3939 11.8395 21.5309 9.8444C23.5142 7.99275 25 4.55968 25 0Z" fill="url(#paint1_linear_1994_19566)"/>
<path fill-rule="evenodd" clip-rule="evenodd" d="M25 0C20.2351 0 17.8537 1.21025 15.6924 3.30331C13.5312 5.39638 12.4659 9.01682 12.4659 9.01682C11.4625 7.70299 10.0285 6.04038 8.10331 5.08369C5.5455 3.81261 3.19506 3.30331 0 3.30331C0 7.11134 1.67278 10.8279 3.63649 12.7231C5.60019 14.6184 8.66501 15.6592 11.7064 15.6592V24.0831C11.7064 24.6307 12.0384 25 12.4659 25C12.8934 25 13.1904 24.6531 13.1904 24.0831V13.4066C16.0545 13.4066 19.3939 11.8395 21.5309 9.8444C23.5142 7.99275 25 4.55968 25 0Z" fill="white"/>
<defs>
<linearGradient id="paint0_linear_1994_19566" x1="12.5" y1="0" x2="12.5" y2="25" gradientUnits="userSpaceOnUse">
<stop stop-color="#FEFEFE"/>
<stop offset="0.971154" stop-color="white" stop-opacity="0.17"/>
<stop offset="1" stop-color="white" stop-opacity="0"/>
</linearGradient>
<linearGradient id="paint1_linear_1994_19566" x1="12.5" y1="0" x2="12.5" y2="25" gradientUnits="userSpaceOnUse">
<stop stop-color="#005396"/>
<stop offset="0.971154" stop-color="#0074CA" stop-opacity="0.17"/>
<stop offset="1" stop-color="white" stop-opacity="0"/>
</linearGradient>
</defs>
</svg>
