<svg width="21" height="25" viewBox="0 0 21 25" fill="none" xmlns="http://www.w3.org/2000/svg">
<path d="M2.54755 14.195V24.3877C2.54755 24.7258 2.82271 25 3.16214 25H12.0384C12.3778 25 12.653 24.7258 12.653 24.3877V22.2013C12.653 21.4632 13.2535 20.8649 13.9943 20.8649H14.5853C16.6219 20.8649 18.1594 19.0808 18.5418 17.0328L18.9543 15.4754C18.9543 15.4754 18.3652 15.7295 19.7492 15.4754C21.1331 15.2214 21.2901 14.4738 20.6041 13.2494L18.2721 8.63487C18.2099 3.85539 14.3018 0 9.48995 0H8.66467C4.56145 0 -0.982631 3.18651 0.149318 8.63487C0.939899 12.4401 4.03761 14.816 7.47122 14.816C9.02972 14.816 10.3001 13.5567 10.3001 12.0096V10.2738L10.0228 10.5502C9.78275 10.7893 9.39361 10.7893 9.1536 10.5502C8.91358 10.311 8.91358 9.92334 9.1536 9.68421L10.4801 8.36255C10.5954 8.24772 10.7517 8.18321 10.9147 8.18321C11.0777 8.18321 11.234 8.24772 11.3493 8.36255L12.6758 9.68421C12.9159 9.92334 12.9159 10.311 12.6758 10.5502C12.4358 10.7893 12.0467 10.7893 11.8067 10.5502L11.5293 10.2738V12.0096C11.5293 14.2387 9.70294 16.0407 7.47122 16.0407C5.58905 16.0407 3.86408 15.3441 2.54755 14.195Z" fill="url(#paint0_linear_1994_19567)"/>
<path d="M2.54755 14.195V24.3877C2.54755 24.7258 2.82271 25 3.16214 25H12.0384C12.3778 25 12.653 24.7258 12.653 24.3877V22.2013C12.653 21.4632 13.2535 20.8649 13.9943 20.8649H14.5853C16.6219 20.8649 18.1594 19.0808 18.5418 17.0328L18.9543 15.4754C18.9543 15.4754 18.3652 15.7295 19.7492 15.4754C21.1331 15.2214 21.2901 14.4738 20.6041 13.2494L18.2721 8.63487C18.2099 3.85539 14.3018 0 9.48995 0H8.66467C4.56145 0 -0.982631 3.18651 0.149318 8.63487C0.939899 12.4401 4.03761 14.816 7.47122 14.816C9.02972 14.816 10.3001 13.5567 10.3001 12.0096V10.2738L10.0228 10.5502C9.78275 10.7893 9.39361 10.7893 9.1536 10.5502C8.91358 10.311 8.91358 9.92334 9.1536 9.68421L10.4801 8.36255C10.5954 8.24772 10.7517 8.18321 10.9147 8.18321C11.0777 8.18321 11.234 8.24772 11.3493 8.36255L12.6758 9.68421C12.9159 9.92334 12.9159 10.311 12.6758 10.5502C12.4358 10.7893 12.0467 10.7893 11.8067 10.5502L11.5293 10.2738V12.0096C11.5293 14.2387 9.70294 16.0407 7.47122 16.0407C5.58905 16.0407 3.86408 15.3441 2.54755 14.195Z" fill="url(#paint1_linear_1994_19567)"/>
<path d="M2.54755 14.195V24.3877C2.54755 24.7258 2.82271 25 3.16214 25H12.0384C12.3778 25 12.653 24.7258 12.653 24.3877V22.2013C12.653 21.4632 13.2535 20.8649 13.9943 20.8649H14.5853C16.6219 20.8649 18.1594 19.0808 18.5418 17.0328L18.9543 15.4754C18.9543 15.4754 18.3652 15.7295 19.7492 15.4754C21.1331 15.2214 21.2901 14.4738 20.6041 13.2494L18.2721 8.63487C18.2099 3.85539 14.3018 0 9.48995 0H8.66467C4.56145 0 -0.982631 3.18651 0.149318 8.63487C0.939899 12.4401 4.03761 14.816 7.47122 14.816C9.02972 14.816 10.3001 13.5567 10.3001 12.0096V10.2738L10.0228 10.5502C9.78275 10.7893 9.39361 10.7893 9.1536 10.5502C8.91358 10.311 8.91358 9.92334 9.1536 9.68421L10.4801 8.36255C10.5954 8.24772 10.7517 8.18321 10.9147 8.18321C11.0777 8.18321 11.234 8.24772 11.3493 8.36255L12.6758 9.68421C12.9159 9.92334 12.9159 10.311 12.6758 10.5502C12.4358 10.7893 12.0467 10.7893 11.8067 10.5502L11.5293 10.2738V12.0096C11.5293 14.2387 9.70294 16.0407 7.47122 16.0407C5.58905 16.0407 3.86408 15.3441 2.54755 14.195Z" fill="white"/>
<defs>
<linearGradient id="paint0_linear_1994_19567" x1="10.5" y1="0" x2="10.5" y2="25" gradientUnits="userSpaceOnUse">
<stop stop-color="#FEFEFE"/>
<stop offset="0.971154" stop-color="white" stop-opacity="0.17"/>
<stop offset="1" stop-color="white" stop-opacity="0"/>
</linearGradient>
<linearGradient id="paint1_linear_1994_19567" x1="10.5" y1="0" x2="10.5" y2="25" gradientUnits="userSpaceOnUse">
<stop stop-color="#005396"/>
<stop offset="0.971154" stop-color="#0074CA" stop-opacity="0.17"/>
<stop offset="1" stop-color="white" stop-opacity="0"/>
</linearGradient>
</defs>
</svg>
