<svg width="36" height="36" viewBox="0 0 36 36" fill="none" xmlns="http://www.w3.org/2000/svg">
<path d="M25.2291 22.3452L25.3082 22.3492C25.6969 22.3917 26 22.7442 26 23.1726C26 23.601 25.6969 23.9535 25.3082 23.996L25.2291 24H10.7709C10.345 24 10 23.6297 10 23.1726C10 22.7155 10.345 22.3452 10.7709 22.3452H25.2291ZM25.2291 17.1726L25.3082 17.1766C25.6969 17.2191 26 17.5716 26 18C26 18.4284 25.6969 18.7809 25.3082 18.8234L25.2291 18.8274H10.7709C10.345 18.8274 10 18.4571 10 18C10 17.5429 10.345 17.1726 10.7709 17.1726H25.2291ZM25.2291 12L25.3082 12.004C25.6969 12.0465 26 12.399 26 12.8274C26 13.2558 25.6969 13.6083 25.3082 13.6508L25.2291 13.6548H10.7709C10.345 13.6548 10 13.2845 10 12.8274C10 12.3703 10.345 12 10.7709 12H25.2291Z" fill="#005396"/>
</svg>
