<svg width="51" height="50" viewBox="0 0 51 50" fill="none" xmlns="http://www.w3.org/2000/svg">
<g clip-path="url(#clip0_1846_12921)">
<rect x="0.916504" width="50" height="50" rx="25" fill="white"/>
<path d="M25.9165 0C12.1185 0 0.916504 11.202 0.916504 25C0.916504 38.798 12.1185 50 25.9165 50C39.6895 50 50.872 38.838 50.9125 25.074C50.9147 25.0494 50.9161 25.0247 50.9165 25C50.9162 24.9778 50.9152 24.9556 50.9135 24.9335C50.8775 11.166 39.6925 0 25.9165 0ZM25.9165 1.5C27.012 1.5 28.0885 1.581 29.144 1.7255C29.099 1.7855 29.222 1.9205 29.652 2.167L30.1635 2.341C30.8035 2.2615 30.531 2.0425 30.1085 1.88C31.6531 2.15752 33.1657 2.59004 34.6235 3.171C34.2195 3.262 33.6045 3.312 32.9965 3.288C33.0115 4.4935 33.5465 7.7145 35.3815 7.13C35.0555 7.2015 36.4175 8.5495 35.7135 8.775C35.3385 11.295 33.296 7.0945 32.2595 7.1495C30.7095 7.411 32.5535 8.177 31.9945 8.5525C30.528 9.8125 33.2635 11.134 33.0425 9.0165C33.2225 10.7235 33.8005 10.671 35.184 10.582C32.0235 11.116 36.944 12.3405 35.346 13.3635C33.7625 13.2175 32.875 13.8085 33.77 15.3585C33.35 16.7935 34.7685 16.8565 35.255 17.3525L35.7865 17.3035L36.1305 17.2585C36.117 17.257 36.1025 17.26 36.0895 17.258C38.063 16.6505 37.0425 12.701 39.146 12.959C38.7055 14.4865 41.1365 15.941 39.8325 13.7255C38.9435 12.6025 42.716 14.5335 41.054 15.0855C42.6705 17.2195 41.531 13.0925 42.735 14.214C43.5175 15.577 44.434 14.5625 44.647 14.5115C45.165 14.367 45.9465 14.5945 46.152 14.716C48.1345 16.609 44.274 15.824 44.217 17.2715C44.427 18.198 42.097 17.024 41.7485 16.7715C40.727 14.018 38.4 16.7645 36.6885 17.207C36.6305 17.2525 35.2245 18.3495 35.059 18.495C34.658 20.9075 32.719 22.374 31.9995 24.8145C31.855 26.2245 32.3225 28.175 32.1265 29.6965C32.5825 31.6475 34.4285 32.7645 36.0375 33.7195C37.2485 34.4995 38.511 33.0055 39.814 32.9885C40.954 31.3115 42.779 32.541 43.81 32.417C42.6225 34.287 44.693 35.732 44.107 37.755C43.1885 38.879 42.93 40.3725 42.438 41.714C38.1945 45.909 32.3615 48.5 25.9165 48.5C22.7931 48.5039 19.7004 47.8837 16.82 46.676C17.3505 46.1935 17.66 45.4745 18.3735 45.2685C21.614 46.052 20.2035 42.0425 22.4035 41.1355C23.878 38.4335 19.1715 38.0035 17.4915 37.0195C14.6505 36.5905 14.9175 33.1325 12.3375 32.3845C10.2245 32.048 10.991 29.003 9.442 29.166C8.105 29.4145 7.5745 27.5745 6.8295 27.706C6.6495 27.896 5.8965 26.471 5.0865 28.041C2.799 27.5345 4.3995 24.908 3.433 23.4375C3.0325 22.764 4.576 19.3105 2.9225 21.3175C2.8575 21.2025 2.8135 21.046 2.7865 20.8625C2.99794 19.6716 3.30101 18.4988 3.693 17.3545C3.9365 17.084 4.2165 16.9495 4.525 17.051C5.7475 16.773 5.341 18.6935 5.442 19.883C6.3635 20.278 5.932 16.396 7.847 16.3055C9.1505 14.838 10.662 13.5885 12.247 12.578C12.865 13.019 14.195 12.9655 15.238 11.9865C14.076 11.753 13.9925 10.8665 15.5455 10.5175C18.0165 9.4555 14.4305 11.6815 16.448 12.0025C18.638 12.6475 16.781 10.0985 17.819 9.1015C16.732 8.3615 18.4765 5.4845 16.5755 6.7625C17.233 6.2925 16.2105 5.4105 16.7975 5.0665C17.04 5.7465 18.2625 6.6805 18.697 5.1125C19.9185 5.321 19.747 3.5515 20.407 2.5995C23.5045 1.508 20.94 4.511 20.8235 6.001C21.8205 8.906 23.502 4.881 25.2735 4.781C27.4275 4.8545 27.1815 2.7955 27.148 1.6935C26.6827 1.60643 26.2132 1.54301 25.7415 1.5035C25.8 1.5035 25.858 1.5 25.9165 1.5ZM17.606 3.9835C18.0025 3.935 17.377 4.7955 16.522 4.9375C15.382 5.888 16.3535 4.6035 16.8395 4.3945C17.228 4.1165 17.474 3.9995 17.606 3.9835ZM35.091 4.6125C35.1255 4.6095 35.1795 4.619 35.261 4.6465C35.628 5.2545 34.8535 4.6315 35.091 4.6125ZM14.9645 4.8985C15.841 4.962 14.907 7.0075 13.933 7.1085C13.411 7.06 13.0545 7.8835 12.651 8.1525C12.611 8.3325 12.683 5.3345 14.046 5.219C14.4635 4.974 14.762 4.884 14.9645 4.8985ZM27.5835 4.9535C27.1365 4.972 26.8045 5.1605 26.987 5.6465C27.248 5.898 27.6285 5.959 27.975 5.961C30.11 5.696 28.567 4.9125 27.5835 4.9535ZM35.146 5.343C35.241 5.352 35.4625 5.436 35.8745 5.644C36.7065 6.694 34.736 5.306 35.146 5.3435M31.0345 6.1145C31.0075 6.126 30.985 6.1765 30.977 6.287C31.3685 6.727 31.152 6.0625 31.0345 6.1145ZM32.5465 6.4775C32.5145 6.469 32.5115 6.5385 32.5755 6.7575C32.996 7.2365 32.6415 6.5035 32.5465 6.4775ZM36.8265 6.4825C37.1705 6.481 38.133 7.0795 37.939 7.7325C37.0095 8.4835 37.44 8.0825 37.2585 7.25C36.636 6.6995 36.6205 6.4835 36.8265 6.4825ZM9.727 9.5195C9.795 9.5275 9.892 9.609 10.025 9.8095C9.693 10.8285 9.433 9.485 9.727 9.5195ZM14.3695 10.1105C14.4315 10.111 14.5325 10.1605 14.681 10.3005C14.3565 10.5455 14.1845 10.108 14.3695 10.1105ZM42.8145 10.2905C42.903 10.28 43.077 10.404 43.3675 10.7395C43.7145 10.1695 45.5055 11.4925 43.9515 11.7315C43.6585 12.9005 42.433 10.3345 42.815 10.29M9.7635 10.7595C9.796 10.752 9.8305 10.772 9.865 10.8315C9.399 12.205 9.536 10.81 9.7635 10.7595ZM40.006 12.1705C40.022 12.1668 40.0387 12.1672 40.0545 12.1715C40.3345 12.218 41.438 12.8455 41.878 13.2825C42.1475 13.8855 40.9945 12.8115 40.761 12.8815C40.108 12.3945 39.928 12.194 40.006 12.1705ZM9.1885 12.182C9.2455 12.1935 9.29 12.252 9.3025 12.387C8.459 12.9735 8.9415 12.132 9.1885 12.182ZM43.3765 13.3C43.4195 13.2815 43.5435 13.351 43.7995 13.592C43.8445 14.203 43.247 13.355 43.3765 13.3ZM38.2395 14.457C38.136 14.4735 37.977 14.654 37.76 15.133C38.365 15.839 38.55 14.408 38.2395 14.457ZM44.6085 14.961C44.4955 14.976 44.377 15.1025 44.298 15.4295C45.238 15.878 44.9475 14.917 44.6085 14.961ZM26.338 16.351C26.2165 16.34 26.0465 16.391 25.8395 16.5625C26.6365 16.9745 26.704 16.383 26.3385 16.3505M27.4415 16.726C27.3915 16.7075 27.2925 16.742 27.124 16.8835C27.2975 17.3175 27.5905 16.782 27.4415 16.726ZM31.4115 19.265C31.363 19.2765 31.3 19.33 31.219 19.4515C31.526 19.9595 31.619 19.215 31.411 19.265M6.3275 19.479C6.282 19.4795 6.2545 19.593 6.2815 19.9185C6.7695 20.4995 6.4645 19.4775 6.3275 19.479ZM6.056 20.304C6.0105 20.2965 5.942 20.432 5.851 20.8355C6.126 21.636 6.1935 20.3275 6.056 20.304ZM4.6595 20.726C3.689 20.626 5.475 22.3395 5.5455 23.095C7.343 23.58 5.294 24.129 6.814 24.7415C9.1025 25.5655 7.688 23.725 6.7175 23.3375C7.098 22.726 5.752 22.275 5.2575 20.888C4.993 20.7915 4.7985 20.7405 4.6595 20.726ZM33.011 21.109C32.908 21.109 32.7945 21.299 32.7465 21.8655C33.4175 22.027 33.238 21.109 33.011 21.109ZM6.549 21.517C6.54265 21.5153 6.53603 21.5149 6.52951 21.5157C6.52299 21.5166 6.5167 21.5187 6.511 21.522C6.4585 21.5555 6.455 21.7185 6.601 22.0735L6.714 22.1485C6.8075 21.817 6.6485 21.5425 6.549 21.517ZM31.302 21.559C31.008 21.576 30.8185 21.709 31.027 22.057L31.115 22.098H31.6145C33.098 22.049 31.948 21.522 31.302 21.559ZM5.1565 23.382C5.025 23.354 5.0065 23.5065 5.3215 24.038C6.2835 24.3725 5.4465 23.443 5.1565 23.382ZM2.472 23.457C2.8055 24.9015 3.018 26.581 3.637 27.8505C4.046 29.4045 4.3475 27.4485 4.4495 28.673C4.7965 30.986 3.3865 33.369 5.1215 35.587C5.9465 37.8235 7.7585 39.3905 9.0265 41.338C4.9365 37.11 2.4165 31.353 2.4165 25C2.4165 24.481 2.439 23.9675 2.472 23.457ZM8.4545 24.791C8.3345 24.806 8.2275 24.934 8.1985 25.2645C9.3005 25.715 8.815 24.7455 8.4545 24.791ZM10.2095 26.6135C10.161 26.594 10.1105 26.813 10.0775 27.4705L10.0975 27.833C10.4875 28.875 10.3555 26.671 10.2095 26.6135ZM27.7475 28.0805C27.623 28.067 27.6215 28.164 27.9675 28.4925C28.891 28.6755 28.0215 28.1105 27.7475 28.0805ZM29.0905 28.388C29.033 28.389 28.958 28.4305 28.864 28.5385C29.247 29.1405 29.339 28.3835 29.0905 28.388ZM28.8675 29.047C28.7795 29.061 28.656 29.1195 28.489 29.246C28.9485 29.742 29.249 28.985 28.8675 29.047ZM28.2225 29.1435C28.1755 29.1385 28.1045 29.2075 28.0075 29.416C28.2825 29.839 28.3625 29.1585 28.2225 29.1435ZM42.8325 33.8C42.7855 33.795 42.7145 33.8635 42.6175 34.0725C42.8925 34.4955 42.973 33.8145 42.8325 33.8Z" fill="#005396"/>
</g>
<defs>
<clipPath id="clip0_1846_12921">
<rect x="0.916504" width="50" height="50" rx="25" fill="white"/>
</clipPath>
</defs>
</svg>
