<svg width="94" height="34" viewBox="0 0 94 34" fill="none" xmlns="http://www.w3.org/2000/svg">
<path d="M29.671 12.6873C27.736 12.6873 26.1043 13.9399 25.5724 15.688H21.0964C21.0204 15.4616 20.9444 15.2334 20.8301 15.0051C20.4125 14.2443 19.7663 13.6003 18.9711 13.1815C18.4009 12.8772 17.717 12.6873 16.9996 12.6873C16.278 12.6873 15.5941 12.8772 15.0264 13.1815L14.1145 12.2685L8.11866 6.30351C8.42262 5.69666 8.61289 5.01189 8.61289 4.32713C8.61289 1.93565 6.6773 5.39074e-05 4.32407 5.39074e-05C1.93498 5.39074e-05 0 1.93565 0 4.32713C0 6.68392 1.93498 8.62133 4.32407 8.62133C5.00798 8.62133 5.69188 8.43142 6.29736 8.12708L12.2555 14.1305L13.1674 15.0051C13.0531 15.2334 12.9771 15.4616 12.9011 15.688H8.42262C7.85544 13.9399 6.22137 12.6873 4.32407 12.6873C1.93498 12.6873 0 14.6247 0 17.0192C0 19.373 1.93498 21.311 4.32407 21.311C6.22137 21.311 7.85544 20.0577 8.42262 18.3102H12.9011C13.3193 19.6396 14.3425 20.6664 15.6701 21.1229V25.5668C13.9248 26.1378 12.6731 27.7709 12.6731 29.6681C12.6731 32.0626 14.6087 34.0001 16.9996 34.0001C19.3486 34.0001 21.2836 32.0626 21.2836 29.6681C21.2836 27.7709 20.0325 26.1378 18.2872 25.5668V21.1229C19.6143 20.7048 20.6781 19.6396 21.0964 18.3102H25.5724C26.1043 20.0577 27.736 21.311 29.671 21.311C32.0625 21.311 33.9598 19.373 33.9598 17.0192C33.9598 14.6247 32.0625 12.6873 29.671 12.6873Z" fill="#005396"/>
<path d="M29.671 12.6873C27.736 12.6873 26.1043 13.9399 25.5724 15.688H21.0964C21.0204 15.4616 20.9444 15.2334 20.8301 15.0051C20.4125 14.2443 19.7663 13.6003 18.9711 13.1815C18.4009 12.8772 17.717 12.6873 16.9996 12.6873C16.278 12.6873 15.5941 12.8772 15.0264 13.1815L14.1145 12.2685L8.11866 6.30351C8.42262 5.69666 8.61289 5.01189 8.61289 4.32713C8.61289 1.93565 6.6773 5.39074e-05 4.32407 5.39074e-05C1.93498 5.39074e-05 0 1.93565 0 4.32713C0 6.68392 1.93498 8.62133 4.32407 8.62133C5.00798 8.62133 5.69188 8.43142 6.29736 8.12708L12.2555 14.1305L13.1674 15.0051C13.0531 15.2334 12.9771 15.4616 12.9011 15.688H8.42262C7.85544 13.9399 6.22137 12.6873 4.32407 12.6873C1.93498 12.6873 0 14.6247 0 17.0192C0 19.373 1.93498 21.311 4.32407 21.311C6.22137 21.311 7.85544 20.0577 8.42262 18.3102H12.9011C13.3193 19.6396 14.3425 20.6664 15.6701 21.1229V25.5668C13.9248 26.1378 12.6731 27.7709 12.6731 29.6681C12.6731 32.0626 14.6087 34.0001 16.9996 34.0001C19.3486 34.0001 21.2836 32.0626 21.2836 29.6681C21.2836 27.7709 20.0325 26.1378 18.2872 25.5668V21.1229C19.6143 20.7048 20.6781 19.6396 21.0964 18.3102H25.5724C26.1043 20.0577 27.736 21.311 29.671 21.311C32.0625 21.311 33.9598 19.373 33.9598 17.0192C33.9598 14.6247 32.0625 12.6873 29.671 12.6873Z" fill="black" fill-opacity="0.2"/>
<path d="M29.6693 0C27.2784 0 25.3428 1.93802 25.3428 4.33194C25.3428 5.05262 25.5331 5.69905 25.8371 6.30772L19.8789 12.2709C20.6388 12.7274 21.2443 13.3745 21.7002 14.1329L27.696 8.16964C28.304 8.47154 28.9477 8.62373 29.6693 8.62373C32.0609 8.62373 33.9581 6.6863 33.9581 4.33194C33.9581 1.93802 32.0609 0 29.6693 0Z" fill="#73CBFF"/>
<path d="M29.6693 0C27.2784 0 25.3428 1.93802 25.3428 4.33194C25.3428 5.05262 25.5331 5.69905 25.8371 6.30772L19.8789 12.2709C20.6388 12.7274 21.2443 13.3745 21.7002 14.1329L27.696 8.16964C28.304 8.47154 28.9477 8.62373 29.6693 8.62373C32.0609 8.62373 33.9581 6.6863 33.9581 4.33194C33.9581 1.93802 32.0609 0 29.6693 0Z" fill="black" fill-opacity="0.2"/>
<path d="M87.302 23.1151C86.1646 23.1151 85.2528 22.7347 84.5306 21.9385C83.8114 21.1777 83.4691 20.2288 83.4691 19.0875C83.4691 17.9487 83.8114 16.9979 84.5306 16.2012C85.2528 15.4403 86.1646 15.0215 87.302 15.0215C88.4394 15.0215 89.3513 15.4403 90.0735 16.2012C90.831 16.9979 91.1726 17.9487 91.1726 19.0498C91.1726 20.191 90.831 21.1393 90.0735 21.9385C89.3513 22.6969 88.4394 23.1151 87.302 23.1151ZM91.0589 14.7556C89.9592 13.4262 88.5914 12.7798 86.9604 12.7798C85.2528 12.7798 83.8114 13.3885 82.6716 14.5675C81.5743 15.7447 81.0047 17.1878 81.0047 19.0114C81.0047 20.7973 81.5743 22.3165 82.6716 23.5339C83.8114 24.7488 85.2528 25.3575 86.9604 25.3575C88.5914 25.3575 89.9592 24.7104 91.0589 23.4194V25.0531H93.4121V13.0841H91.0589V14.7556ZM79.4113 22.4303C78.6533 22.8868 77.9317 23.1151 77.2855 23.1151C76.0721 23.1151 75.4642 22.3543 75.4642 20.7973V15.1737H79.601V13.0841H75.4642V8.83255H73.0374V13.0841H70.9504V15.1737H73.0374V20.7589C73.0374 23.7238 74.3651 25.3575 76.9463 25.3575C78.2356 25.3575 79.373 25.0148 80.2472 24.33L79.4113 22.4303ZM64.1181 14.9077C65.9017 14.9077 67.3072 16.1251 67.4975 18.0248H60.5515C60.8937 16.1628 62.2591 14.9077 64.1181 14.9077ZM69.9626 18.8215C69.9626 16.9596 69.4306 15.5164 68.3309 14.4153C67.2312 13.3124 65.8257 12.7798 64.1181 12.7798C62.3351 12.7798 60.8177 13.3885 59.718 14.5675C58.5782 15.7447 58.0104 17.2262 58.0104 19.0498C58.0104 22.2021 59.946 25.3191 64.4221 25.3191C66.4336 25.3191 68.3686 24.5583 69.6203 23.6477L68.5589 21.8625C67.4975 22.6209 65.8634 23.1535 64.5363 23.1535C62.2208 23.1535 60.8937 21.9002 60.5515 20.0005H69.8866C69.9626 19.5823 69.9626 19.1636 69.9626 18.8215ZM55.8092 8.64264L51.789 16.5792L47.8425 8.64264H44.9598L50.4997 19.202V25.0531H53.0784V19.202L58.6925 8.64264" fill="#005396"/>
<path d="M87.302 23.1151C86.1646 23.1151 85.2528 22.7347 84.5306 21.9385C83.8114 21.1777 83.4691 20.2288 83.4691 19.0875C83.4691 17.9487 83.8114 16.9979 84.5306 16.2012C85.2528 15.4403 86.1646 15.0215 87.302 15.0215C88.4394 15.0215 89.3513 15.4403 90.0735 16.2012C90.831 16.9979 91.1726 17.9487 91.1726 19.0498C91.1726 20.191 90.831 21.1393 90.0735 21.9385C89.3513 22.6969 88.4394 23.1151 87.302 23.1151ZM91.0589 14.7556C89.9592 13.4262 88.5914 12.7798 86.9604 12.7798C85.2528 12.7798 83.8114 13.3885 82.6716 14.5675C81.5743 15.7447 81.0047 17.1878 81.0047 19.0114C81.0047 20.7973 81.5743 22.3165 82.6716 23.5339C83.8114 24.7488 85.2528 25.3575 86.9604 25.3575C88.5914 25.3575 89.9592 24.7104 91.0589 23.4194V25.0531H93.4121V13.0841H91.0589V14.7556ZM79.4113 22.4303C78.6533 22.8868 77.9317 23.1151 77.2855 23.1151C76.0721 23.1151 75.4642 22.3543 75.4642 20.7973V15.1737H79.601V13.0841H75.4642V8.83255H73.0374V13.0841H70.9504V15.1737H73.0374V20.7589C73.0374 23.7238 74.3651 25.3575 76.9463 25.3575C78.2356 25.3575 79.373 25.0148 80.2472 24.33L79.4113 22.4303ZM64.1181 14.9077C65.9017 14.9077 67.3072 16.1251 67.4975 18.0248H60.5515C60.8937 16.1628 62.2591 14.9077 64.1181 14.9077ZM69.9626 18.8215C69.9626 16.9596 69.4306 15.5164 68.3309 14.4153C67.2312 13.3124 65.8257 12.7798 64.1181 12.7798C62.3351 12.7798 60.8177 13.3885 59.718 14.5675C58.5782 15.7447 58.0104 17.2262 58.0104 19.0498C58.0104 22.2021 59.946 25.3191 64.4221 25.3191C66.4336 25.3191 68.3686 24.5583 69.6203 23.6477L68.5589 21.8625C67.4975 22.6209 65.8634 23.1535 64.5363 23.1535C62.2208 23.1535 60.8937 21.9002 60.5515 20.0005H69.8866C69.9626 19.5823 69.9626 19.1636 69.9626 18.8215ZM55.8092 8.64264L51.789 16.5792L47.8425 8.64264H44.9598L50.4997 19.202V25.0531H53.0784V19.202L58.6925 8.64264" fill="black" fill-opacity="0.2"/>
</svg>
