<svg width="27" height="26" viewBox="0 0 27 26" fill="none" xmlns="http://www.w3.org/2000/svg">
<rect x="0.307129" width="26" height="26" rx="13" fill="#C7D6E5"/>
<path d="M18.2119 7.03952C18.5063 6.79932 18.9411 6.81698 19.2158 7.09128C19.4903 7.36585 19.5078 7.8006 19.2675 8.09518L19.2158 8.15182L19.1767 8.19089C19.1756 8.19197 19.1749 8.19365 19.1738 8.19479C19.1727 8.1959 19.171 8.19659 19.1699 8.19772L19.0429 8.32467C19.0406 8.32704 19.0385 8.33007 19.0361 8.33249C19.0337 8.33487 19.0307 8.3369 19.0283 8.33932L18.9287 8.43893C18.9256 8.44196 18.9229 8.44562 18.9199 8.4487C18.9168 8.45175 18.9132 8.45439 18.9101 8.45749L18.9003 8.46725C18.8973 8.47031 18.8946 8.47392 18.8915 8.47702L18.8818 8.48678C18.8785 8.49002 18.8743 8.49327 18.871 8.49655L18.4179 8.94967C18.4132 8.95436 18.409 8.9596 18.4042 8.96432L18.3896 8.97897C18.3847 8.98385 18.3789 8.9887 18.374 8.99362L17.9873 9.38034C17.9816 9.386 17.9763 9.39222 17.9706 9.39792L17.9355 9.43307C17.9296 9.43895 17.9229 9.44474 17.9169 9.45065L17.79 9.5776C17.784 9.5836 17.7784 9.59013 17.7724 9.59616C17.7662 9.60233 17.7591 9.60851 17.7529 9.61471L17.3212 10.0464C17.3144 10.0532 17.3076 10.061 17.3007 10.0678C17.2938 10.0747 17.2862 10.0814 17.2792 10.0883L17.2587 10.1089C17.2518 10.1158 17.2452 10.1234 17.2382 10.1303C17.2313 10.1373 17.2237 10.1439 17.2167 10.1508L17.0244 10.3432C17.0171 10.3504 17.0101 10.3584 17.0029 10.3657C16.9956 10.373 16.9877 10.3799 16.9804 10.3872L16.6894 10.6782C16.6818 10.6858 16.6746 10.694 16.6669 10.7016C16.6593 10.7092 16.6511 10.7164 16.6435 10.7241L16.3388 11.0288C16.3309 11.0367 16.3233 11.0452 16.3154 11.0532C16.3074 11.0611 16.2989 11.0687 16.291 11.0766L15.9492 11.4184C15.9409 11.4267 15.933 11.4355 15.9248 11.4438C15.9165 11.4521 15.9076 11.46 15.8994 11.4682C15.8911 11.4765 15.8832 11.4853 15.8749 11.4936C15.8667 11.5019 15.8578 11.5097 15.8496 11.518L15.8242 11.5434C15.8159 11.5517 15.808 11.5605 15.7998 11.5688C15.7915 11.5771 15.7827 11.5849 15.7744 11.5932L15.5712 11.7964C15.5627 11.8049 15.5544 11.8142 15.5458 11.8227C15.5373 11.8313 15.528 11.8396 15.5195 11.8481L15.4941 11.8735C15.4855 11.8821 15.4773 11.8913 15.4687 11.8999C15.4601 11.9084 15.4509 11.9167 15.4423 11.9253L15.3906 11.977C15.382 11.9856 15.3738 11.9948 15.3652 12.0034C15.3566 12.012 15.3474 12.0202 15.3388 12.0288L15.1552 12.2124C15.1466 12.221 15.1384 12.2301 15.1298 12.2387L15.1035 12.2651C15.0947 12.2739 15.0849 12.2827 15.0761 12.2915L14.8105 12.5571C14.8016 12.566 14.793 12.5755 14.7841 12.5844C14.7752 12.5934 14.7657 12.6019 14.7568 12.6108C14.7479 12.6197 14.7394 12.6292 14.7304 12.6382C14.7215 12.6471 14.712 12.6556 14.7031 12.6645L14.4863 12.8813C14.4774 12.8902 14.4688 12.8997 14.4599 12.9087C14.451 12.9176 14.4415 12.9261 14.4326 12.935L14.3671 12.9995L14.4042 13.0366C14.4134 13.0457 14.4234 13.0548 14.4326 13.0639C14.4417 13.0731 14.4508 13.0831 14.4599 13.0923L14.4882 13.1206C14.4974 13.1297 14.5074 13.1388 14.5165 13.1479C14.5257 13.1571 14.5347 13.1671 14.5439 13.1762L14.5722 13.2046C14.5814 13.2137 14.5914 13.2228 14.6005 13.2319C14.6097 13.2411 14.6187 13.251 14.6279 13.2602L14.6562 13.2885C14.6653 13.2977 14.6754 13.3067 14.6845 13.3159C14.6937 13.325 14.7027 13.335 14.7119 13.3442L14.7402 13.3725C14.7493 13.3817 14.7593 13.3907 14.7685 13.3999C14.7777 13.409 14.7867 13.419 14.7958 13.4282L15.2441 13.8764C15.2532 13.8856 15.2632 13.8946 15.2724 13.9038C15.2816 13.9129 15.2906 13.9229 15.2998 13.9321L15.3837 14.0161C15.3929 14.0252 15.4029 14.0343 15.4121 14.0434C15.4212 14.0526 15.4303 14.0626 15.4394 14.0717L15.8564 14.4887C15.8655 14.4978 15.8756 14.507 15.8847 14.5161C15.8938 14.5252 15.903 14.5353 15.9121 14.5444L16.4609 15.0932C16.4697 15.1021 16.4794 15.1108 16.4882 15.1196C16.4971 15.1284 16.5058 15.1381 16.5146 15.1469L16.5693 15.2016C16.5781 15.2105 16.5878 15.2192 16.5966 15.228C16.6055 15.2368 16.6142 15.2465 16.623 15.2553L16.704 15.3364C16.7129 15.3452 16.7226 15.3539 16.7314 15.3628C16.7402 15.3716 16.749 15.3813 16.7578 15.3901C16.7666 15.3989 16.7763 15.4077 16.7851 15.4165C16.7939 15.4253 16.8027 15.435 16.8115 15.4438L17.4687 16.101C17.4772 16.1095 17.4866 16.118 17.4951 16.1264C17.5035 16.1349 17.512 16.1443 17.5205 16.1528L17.5712 16.2036C17.5796 16.212 17.5892 16.2206 17.5976 16.229C17.606 16.2374 17.6146 16.247 17.623 16.2553L17.6992 16.3315C17.7074 16.3397 17.7164 16.3478 17.7246 16.3559C17.7327 16.3641 17.7408 16.3731 17.749 16.3813L18.0478 16.6801C18.0559 16.6882 18.0651 16.6965 18.0732 16.7046C18.0812 16.7126 18.0896 16.7219 18.0976 16.7299L18.122 16.7544C18.1299 16.7622 18.1386 16.77 18.1464 16.7778C18.1543 16.7857 18.162 16.7944 18.1699 16.8022L18.291 16.9233C18.2988 16.9312 18.3075 16.9389 18.3154 16.9467C18.3232 16.9546 18.331 16.9633 18.3388 16.9712L18.7568 17.3891C18.7642 17.3965 18.7728 17.4042 18.7802 17.4116C18.7876 17.419 18.7953 17.4276 18.8027 17.435L18.8251 17.4575C18.8324 17.4647 18.8404 17.4718 18.8476 17.479C18.8548 17.4862 18.8619 17.4942 18.8691 17.5014L19.2158 17.8481L19.2675 17.9048C19.5078 18.1993 19.4903 18.6341 19.2158 18.9087C18.9412 19.1832 18.5064 19.2007 18.2119 18.9604L18.1552 18.9087L17.8085 18.562C17.8013 18.5548 17.7933 18.5477 17.7861 18.5405C17.7789 18.5333 17.7718 18.5252 17.7646 18.518L17.7421 18.4956C17.7347 18.4882 17.7261 18.4805 17.7187 18.4731C17.7113 18.4657 17.7036 18.4571 17.6962 18.4497L17.2783 18.0317C17.2704 18.0239 17.2617 18.0161 17.2539 18.0083C17.246 18.0004 17.2383 17.9917 17.2304 17.9839L17.1093 17.8628C17.1015 17.8549 17.0928 17.8472 17.0849 17.8393C17.0771 17.8315 17.0693 17.8228 17.0615 17.8149L17.0371 17.7905C17.029 17.7825 17.0197 17.7741 17.0117 17.7661C17.0036 17.758 16.9953 17.7488 16.9873 17.7407L16.6884 17.4419C16.6802 17.4337 16.6712 17.4256 16.663 17.4174C16.6549 17.4093 16.6468 17.4002 16.6386 17.3921L16.5624 17.3159C16.5541 17.3075 16.5445 17.2989 16.5361 17.2905C16.5277 17.2821 16.5191 17.2725 16.5107 17.2641L16.4599 17.2133C16.4514 17.2049 16.442 17.1964 16.4335 17.188C16.4251 17.1795 16.4166 17.1701 16.4081 17.1616L15.7509 16.5044C15.7421 16.4956 15.7324 16.4868 15.7236 16.478C15.7148 16.4692 15.706 16.4595 15.6972 16.4507C15.6884 16.4418 15.6787 16.4331 15.6699 16.4243C15.6611 16.4154 15.6523 16.4058 15.6435 16.3969L15.5624 16.3159C15.5536 16.3071 15.5439 16.2984 15.5351 16.2895C15.5263 16.2807 15.5176 16.271 15.5087 16.2622L15.454 16.2075C15.4452 16.1987 15.4355 16.19 15.4267 16.1811C15.4179 16.1723 15.4092 16.1626 15.4003 16.1538L14.8515 15.6049C14.8424 15.5959 14.8323 15.5867 14.8232 15.5776C14.8141 15.5685 14.805 15.5584 14.7958 15.5493L14.3789 15.1323C14.3697 15.1232 14.3597 15.1141 14.3505 15.1049C14.3414 15.0958 14.3324 15.0858 14.3232 15.0766L14.2392 14.9926C14.23 14.9835 14.22 14.9745 14.2109 14.9653C14.2017 14.9561 14.1927 14.9461 14.1835 14.937L13.7353 14.4887C13.7261 14.4796 13.7161 14.4705 13.707 14.4614C13.6978 14.4522 13.6888 14.4422 13.6796 14.4331L13.6513 14.4048C13.6421 14.3956 13.6322 14.3866 13.623 14.3774C13.6139 14.3682 13.6048 14.3582 13.5956 14.3491L13.5673 14.3208C13.5582 14.3116 13.5482 14.3026 13.539 14.2934C13.5299 14.2843 13.5208 14.2742 13.5117 14.2651L13.4833 14.2368C13.4742 14.2276 13.4642 14.2186 13.455 14.2094C13.4459 14.2003 13.4368 14.1903 13.4277 14.1811L13.3994 14.1528C13.3902 14.1437 13.3802 14.1346 13.371 14.1255C13.3619 14.1163 13.3529 14.1063 13.3437 14.0971L13.3066 14.06L13.2705 14.0971C13.2612 14.1064 13.2524 14.1162 13.2431 14.1255C13.2339 14.1347 13.224 14.1436 13.2148 14.1528L13.1865 14.1811C13.1772 14.1904 13.1684 14.2002 13.1591 14.2094C13.1499 14.2187 13.1401 14.2275 13.1308 14.2368L13.1025 14.2651C13.0932 14.2743 13.0844 14.2842 13.0751 14.2934C13.0659 14.3027 13.0561 14.3115 13.0468 14.3208L13.0185 14.3491C13.0092 14.3583 13.0004 14.3682 12.9912 14.3774C12.9819 14.3867 12.9721 14.3955 12.9628 14.4048L12.9345 14.4331C12.9253 14.4423 12.9164 14.4521 12.9072 14.4614C12.8979 14.4706 12.8881 14.4795 12.8789 14.4887L12.4306 14.937C12.4213 14.9462 12.4125 14.956 12.4033 14.9653C12.394 14.9746 12.3842 14.9834 12.3749 14.9926L12.291 15.0766C12.2817 15.0859 12.2729 15.0957 12.2636 15.1049C12.2544 15.1142 12.2445 15.123 12.2353 15.1323L11.8183 15.5493C11.8091 15.5585 11.8002 15.5684 11.791 15.5776C11.7818 15.5868 11.7718 15.5957 11.7626 15.6049L11.2138 16.1538C11.2049 16.1627 11.1964 16.1722 11.1874 16.1811C11.1785 16.1901 11.169 16.1986 11.1601 16.2075L11.1054 16.2622C11.0965 16.2711 11.088 16.2806 11.079 16.2895C11.0701 16.2985 11.0606 16.307 11.0517 16.3159L10.9706 16.3969C10.9617 16.4059 10.9532 16.4154 10.9443 16.4243C10.9354 16.4332 10.9259 16.4417 10.9169 16.4507C10.908 16.4596 10.8995 16.4691 10.8906 16.478C10.8816 16.4869 10.8721 16.4955 10.8632 16.5044L10.206 17.1616C10.1974 17.1702 10.1892 17.1794 10.1806 17.188C10.1721 17.1965 10.1628 17.2048 10.1542 17.2133L10.1035 17.2641C10.095 17.2726 10.0866 17.282 10.0781 17.2905C10.0696 17.299 10.0602 17.3074 10.0517 17.3159L9.97553 17.3921C9.96724 17.4004 9.95939 17.4092 9.95112 17.4174C9.94283 17.4257 9.934 17.4336 9.92573 17.4419L9.6269 17.7407C9.61873 17.7489 9.61064 17.7579 9.60248 17.7661C9.59433 17.7742 9.58523 17.7824 9.57709 17.7905L9.55268 17.8149C9.54471 17.8229 9.53719 17.8314 9.52924 17.8393C9.52129 17.8473 9.51277 17.8548 9.50483 17.8628L9.38373 17.9839C9.37578 17.9918 9.36823 18.0003 9.3603 18.0083C9.35236 18.0162 9.3438 18.0238 9.33588 18.0317L8.91791 18.4497C8.9104 18.4572 8.90294 18.4656 8.89545 18.4731C8.88795 18.4806 8.8795 18.4881 8.87202 18.4956L8.84955 18.518C8.84224 18.5253 8.83536 18.5332 8.82807 18.5405C8.82075 18.5478 8.81291 18.5547 8.80561 18.562L8.45893 18.9087L8.40229 18.9604C8.10771 19.2007 7.67297 19.1832 7.39838 18.9087C7.1241 18.6341 7.10647 18.1992 7.34663 17.9048L7.39838 17.8481L7.74506 17.5014C7.75236 17.4941 7.75923 17.4863 7.76655 17.479C7.77384 17.4717 7.78169 17.4648 7.78901 17.4575L7.81147 17.435C7.81895 17.4275 7.82643 17.4191 7.83393 17.4116C7.84143 17.4041 7.84985 17.3966 7.85737 17.3891L8.27534 16.9712C8.28325 16.9632 8.29084 16.9547 8.29877 16.9467C8.30671 16.9388 8.31523 16.9313 8.32319 16.9233L8.44428 16.8022C8.45222 16.7943 8.45976 16.7858 8.46772 16.7778C8.47567 16.7699 8.48416 16.7623 8.49213 16.7544L8.51655 16.7299C8.52468 16.7218 8.53281 16.7127 8.54096 16.7046C8.54912 16.6964 8.55818 16.6883 8.56635 16.6801L8.86518 16.3813C8.87345 16.373 8.88131 16.3642 8.88959 16.3559C8.89787 16.3476 8.90669 16.3398 8.91498 16.3315L8.99116 16.2553C8.99962 16.2469 9.00807 16.2375 9.01655 16.229C9.02504 16.2205 9.0344 16.2121 9.04291 16.2036L9.0937 16.1528C9.10224 16.1443 9.11053 16.135 9.11909 16.1264C9.12764 16.1179 9.13688 16.1096 9.14545 16.101L9.80268 15.4438C9.81159 15.4349 9.82013 15.4254 9.82905 15.4165C9.83796 15.4076 9.84747 15.399 9.85639 15.3901C9.8653 15.3812 9.87383 15.3717 9.88276 15.3628C9.89169 15.3538 9.90116 15.3453 9.9101 15.3364L9.99116 15.2553C10.0001 15.2464 10.0086 15.2369 10.0175 15.228C10.0265 15.2191 10.0359 15.2106 10.0449 15.2016L10.0996 15.1469C10.1085 15.138 10.117 15.1285 10.1259 15.1196C10.1349 15.1107 10.1443 15.1022 10.1533 15.0932L10.7021 14.5444C10.7113 14.5352 10.7202 14.5253 10.7294 14.5161C10.7386 14.5069 10.7485 14.4979 10.7578 14.4887L11.1748 14.0717C11.184 14.0625 11.1928 14.0527 11.2021 14.0434C11.2114 14.0342 11.2212 14.0253 11.2304 14.0161L11.3144 13.9321C11.3237 13.9228 11.3325 13.913 11.3417 13.9038C11.351 13.8945 11.3608 13.8857 11.3701 13.8764L11.8183 13.4282C11.8276 13.4189 11.8364 13.4091 11.8456 13.3999C11.8549 13.3906 11.8647 13.3818 11.874 13.3725L11.9023 13.3442C11.9115 13.3349 11.9204 13.3251 11.9296 13.3159C11.9389 13.3066 11.9487 13.2978 11.958 13.2885L11.9863 13.2602C11.9955 13.251 12.0044 13.2412 12.0136 13.2319C12.0229 13.2227 12.0327 13.2138 12.0419 13.2046L12.0703 13.1762C12.0795 13.167 12.0883 13.1572 12.0976 13.1479C12.1069 13.1387 12.1167 13.1298 12.1259 13.1206L12.1542 13.0923C12.1635 13.083 12.1723 13.0732 12.1816 13.0639C12.1909 13.0547 12.2006 13.0458 12.2099 13.0366L12.246 12.9995L12.1816 12.935C12.1727 12.9262 12.1631 12.9175 12.1542 12.9087C12.1454 12.8998 12.1367 12.8901 12.1279 12.8813L11.9111 12.6645C11.9022 12.6557 11.8926 12.647 11.8837 12.6382C11.8749 12.6293 11.8662 12.6196 11.8574 12.6108C11.8485 12.602 11.8388 12.5933 11.83 12.5844C11.8212 12.5756 11.8125 12.5659 11.8037 12.5571L11.538 12.2915C11.5293 12.2828 11.5194 12.2738 11.5107 12.2651L11.4843 12.2387C11.4758 12.2302 11.4674 12.2209 11.4589 12.2124L11.2753 12.0288C11.2668 12.0203 11.2575 12.0119 11.249 12.0034C11.2405 11.9949 11.2321 11.9855 11.2236 11.977L11.1718 11.9253C11.1633 11.9168 11.1539 11.9083 11.1455 11.8999C11.137 11.8914 11.1285 11.882 11.1201 11.8735L11.0947 11.8481C11.0862 11.8397 11.0767 11.8312 11.0683 11.8227C11.0599 11.8143 11.0513 11.8048 11.0429 11.7964L10.8398 11.5932C10.8316 11.585 10.8226 11.577 10.8144 11.5688C10.8062 11.5606 10.7982 11.5516 10.79 11.5434L10.7646 11.518C10.7564 11.5099 10.7474 11.5018 10.7392 11.4936C10.731 11.4854 10.723 11.4764 10.7148 11.4682C10.7066 11.4601 10.6976 11.452 10.6894 11.4438C10.6812 11.4356 10.6731 11.4266 10.665 11.4184L10.3232 11.0766C10.3153 11.0688 10.3066 11.061 10.2988 11.0532C10.2909 11.0453 10.2832 11.0366 10.2753 11.0288L9.97065 10.7241C9.96309 10.7166 9.95473 10.7091 9.94721 10.7016C9.9397 10.6941 9.93226 10.6857 9.92475 10.6782L9.63373 10.3872C9.62653 10.38 9.61844 10.3729 9.61127 10.3657C9.60414 10.3585 9.59691 10.3503 9.58979 10.3432L9.39741 10.1508C9.3905 10.144 9.38279 10.1372 9.37592 10.1303C9.36907 10.1235 9.36225 10.1157 9.35541 10.1089L9.33491 10.0883C9.32807 10.0815 9.32021 10.0746 9.31342 10.0678C9.30665 10.061 9.29966 10.0531 9.29291 10.0464L8.86127 9.61471C8.85514 9.60861 8.84781 9.60223 8.84174 9.59616C8.83584 9.59022 8.83006 9.5835 8.82416 9.5776L8.69721 9.45065C8.69137 9.44485 8.68443 9.43885 8.67866 9.43307L8.6435 9.39792C8.63792 9.3923 8.63246 9.3859 8.6269 9.38034L8.24018 8.99362C8.23532 8.9888 8.22934 8.98375 8.22455 8.97897L8.20991 8.96432C8.20531 8.95968 8.20082 8.95426 8.19623 8.94967L7.74311 8.49655C7.73987 8.49337 7.73551 8.48992 7.73237 8.48678L7.7226 8.47702C7.71964 8.47399 7.71677 8.47021 7.71381 8.46725L7.70405 8.45749C7.70102 8.45452 7.69724 8.45165 7.69428 8.4487C7.69134 8.44569 7.68842 8.44186 7.68549 8.43893L7.58588 8.33932C7.58351 8.33703 7.58036 8.33478 7.57807 8.33249C7.5758 8.33013 7.5735 8.32694 7.57123 8.32467L7.44428 8.19772C7.44316 8.19676 7.44138 8.1958 7.44038 8.19479C7.43942 8.19368 7.43844 8.19188 7.43745 8.19089L7.39838 8.15182L7.34663 8.09518C7.10664 7.80061 7.1239 7.36576 7.39838 7.09128C7.67287 6.8168 8.10772 6.79954 8.40229 7.03952L8.45893 7.09128L8.49799 7.13034C8.49898 7.13133 8.50078 7.13231 8.5019 7.13327C8.5029 7.13427 8.50387 7.13605 8.50483 7.13717L8.63178 7.26413C8.63405 7.26639 8.63723 7.26869 8.63959 7.27096C8.64188 7.27325 8.64414 7.2764 8.64643 7.27878L8.74604 7.37839C8.74896 7.38131 8.7528 7.38424 8.7558 7.38717C8.75876 7.39013 8.76163 7.39391 8.76459 7.39694L8.77436 7.40671C8.77732 7.40966 8.7811 7.41253 8.78413 7.41549L8.79389 7.42526C8.79703 7.4284 8.80048 7.43276 8.80366 7.436L9.25678 7.88913C9.26137 7.89371 9.26679 7.8982 9.27143 7.9028L9.28608 7.91745C9.29086 7.92223 9.29591 7.92821 9.30073 7.93307L9.68745 8.31979C9.69301 8.32536 9.69941 8.33082 9.70502 8.33639L9.74018 8.37155C9.74596 8.37733 9.75195 8.38426 9.75776 8.3901L9.88471 8.51706C9.8906 8.52295 9.89733 8.52873 9.90327 8.53464C9.90934 8.5407 9.91572 8.54803 9.92182 8.55417L10.3535 8.98581C10.3602 8.99256 10.3681 8.99954 10.3749 9.00631C10.3817 9.0131 10.3886 9.02096 10.3955 9.0278L10.416 9.04831C10.4228 9.05514 10.4306 9.06196 10.4374 9.06881C10.4443 9.07568 10.4511 9.08339 10.458 9.0903L10.6503 9.28268C10.6575 9.2898 10.6656 9.29703 10.6728 9.30417C10.68 9.31133 10.6871 9.31942 10.6943 9.32663L10.9853 9.61764C10.9928 9.62515 11.0012 9.63259 11.0087 9.6401C11.0163 9.64763 11.0237 9.65598 11.0312 9.66354L11.3359 9.96823C11.3437 9.97606 11.3524 9.98383 11.3603 9.99167C11.3681 9.9995 11.3759 10.0082 11.3837 10.0161L11.7255 10.3579C11.7337 10.366 11.7427 10.3741 11.7509 10.3823C11.7591 10.3905 11.7672 10.3995 11.7753 10.4077C11.7835 10.4159 11.7925 10.4239 11.8007 10.4321C11.8089 10.4403 11.817 10.4493 11.8251 10.4575L11.8505 10.4829C11.8587 10.491 11.8677 10.4991 11.8759 10.5073C11.8841 10.5155 11.8922 10.5245 11.9003 10.5327L12.1035 10.7358C12.1119 10.7442 12.1214 10.7528 12.1298 10.7612C12.1383 10.7696 12.1468 10.7791 12.1552 10.7876L12.1806 10.813C12.1891 10.8214 12.1985 10.8299 12.207 10.8383C12.2155 10.8468 12.2239 10.8562 12.2324 10.8647L12.2841 10.9165C12.2926 10.925 12.302 10.9334 12.3105 10.9419C12.319 10.9504 12.3274 10.9597 12.3359 10.9682L12.5195 11.1518C12.528 11.1603 12.5373 11.1687 12.5458 11.1772L12.5722 11.2036C12.5809 11.2123 12.5899 11.2222 12.5986 11.2309L12.8642 11.4965C12.873 11.5054 12.8827 11.5141 12.8915 11.5229C12.9004 11.5317 12.9091 11.5414 12.9179 11.5503C12.9267 11.5591 12.9364 11.5678 12.9453 11.5766C12.9541 11.5855 12.9628 11.5951 12.9716 11.604L13.1884 11.8208C13.1972 11.8296 13.2069 11.8383 13.2158 11.8471C13.2246 11.856 13.2333 11.8656 13.2421 11.8745L13.3066 11.9389L13.372 11.8745C13.381 11.8655 13.3895 11.8561 13.3984 11.8471C13.4073 11.8382 13.4168 11.8297 13.4257 11.8208L13.6425 11.604C13.6515 11.595 13.66 11.5856 13.6689 11.5766C13.6778 11.5677 13.6873 11.5592 13.6962 11.5503C13.7052 11.5413 13.7137 11.5318 13.7226 11.5229C13.7315 11.514 13.741 11.5055 13.7499 11.4965L14.0156 11.2309C14.0244 11.2221 14.0332 11.2124 14.0419 11.2036L14.0683 11.1772C14.0769 11.1686 14.0861 11.1604 14.0947 11.1518L14.2783 10.9682C14.2869 10.9596 14.2951 10.9505 14.3037 10.9419C14.3123 10.9333 14.3214 10.9251 14.33 10.9165L14.3818 10.8647C14.3904 10.8561 14.3986 10.8469 14.4072 10.8383C14.4158 10.8298 14.425 10.8215 14.4335 10.813L14.4589 10.7876C14.4675 10.779 14.4758 10.7697 14.4843 10.7612C14.4928 10.7527 14.5022 10.7443 14.5107 10.7358L14.7138 10.5327C14.7221 10.5244 14.73 10.5156 14.7382 10.5073C14.7465 10.499 14.7553 10.4911 14.7636 10.4829L14.789 10.4575C14.7973 10.4492 14.8051 10.4404 14.8134 10.4321C14.8217 10.4238 14.8305 10.416 14.8388 10.4077C14.8471 10.3994 14.855 10.3906 14.8632 10.3823C14.8715 10.374 14.8804 10.3661 14.8886 10.3579L15.2304 10.0161C15.2384 10.0081 15.2459 9.9996 15.2539 9.99167C15.2618 9.98372 15.2703 9.97616 15.2783 9.96823L15.583 9.66354C15.5906 9.65589 15.5978 9.64773 15.6054 9.6401C15.613 9.63248 15.6212 9.62525 15.6289 9.61764L15.9199 9.32663C15.9272 9.31934 15.9341 9.31143 15.9414 9.30417C15.9486 9.29692 15.9566 9.2899 15.9638 9.28268L16.1562 9.0903C16.1632 9.08331 16.1697 9.07578 16.1767 9.06881C16.1837 9.06185 16.1913 9.05524 16.1982 9.04831L16.2187 9.0278C16.2256 9.02088 16.2323 9.0132 16.2392 9.00631C16.2461 8.99944 16.2538 8.99266 16.2607 8.98581L16.6923 8.55417C16.6985 8.54796 16.7047 8.5408 16.7109 8.53464C16.7169 8.52862 16.7234 8.52305 16.7294 8.51706L16.8564 8.3901C16.8623 8.38419 16.8681 8.37743 16.874 8.37155L16.9091 8.33639C16.9148 8.3307 16.921 8.32546 16.9267 8.31979L17.3134 7.93307C17.3183 7.92815 17.3232 7.92233 17.3281 7.91745L17.3427 7.9028C17.3474 7.89808 17.3527 7.89381 17.3574 7.88913L17.8105 7.436C17.8138 7.43271 17.817 7.4285 17.8203 7.42526L17.83 7.41549C17.8331 7.4124 17.8367 7.40976 17.8398 7.40671L17.8496 7.39694C17.8526 7.39384 17.8553 7.39023 17.8583 7.38717C17.8614 7.38411 17.8651 7.38141 17.8681 7.37839L17.9677 7.27878C17.9701 7.27634 17.9722 7.27335 17.9746 7.27096C17.977 7.26856 17.98 7.26649 17.9824 7.26413L18.1093 7.13717C18.1104 7.13602 18.1111 7.13437 18.1123 7.13327C18.1134 7.13215 18.1151 7.13143 18.1162 7.13034L18.1552 7.09128L18.2119 7.03952Z" fill="#FEFFFF"/>
</svg>
