<svg width="25" height="25" viewBox="0 0 25 25" fill="none" xmlns="http://www.w3.org/2000/svg">
<path d="M12.5 0C5.601 0 0 5.601 0 12.5C0 19.399 5.601 25 12.5 25C19.3865 25 24.9777 19.419 24.998 12.537C24.9991 12.5247 24.9998 12.5124 25 12.5C24.9999 12.4889 24.9994 12.4778 24.9985 12.4668C24.9805 5.583 19.388 0 12.5 0ZM12.5 0.75C13.0477 0.75 13.586 0.7905 14.1138 0.86275C14.0913 0.89275 14.1528 0.96025 14.3678 1.0835L14.6235 1.1705C14.9435 1.13075 14.8072 1.02125 14.596 0.94C15.3683 1.07876 16.1246 1.29502 16.8535 1.5855C16.6515 1.631 16.344 1.656 16.04 1.644C16.0475 2.24675 16.315 3.85725 17.2325 3.565C17.0695 3.60075 17.7505 4.27475 17.3985 4.3875C17.211 5.6475 16.1898 3.54725 15.6715 3.57475C14.8965 3.7055 15.8185 4.0885 15.539 4.27625C14.8057 4.90625 16.1735 5.567 16.063 4.50825C16.153 5.36175 16.442 5.3355 17.1338 5.291C15.5535 5.558 18.0138 6.17025 17.2148 6.68175C16.423 6.60875 15.9793 6.90425 16.4268 7.67925C16.2168 8.39675 16.926 8.42825 17.1693 8.67625L17.435 8.65175L17.607 8.62925C17.6003 8.6285 17.593 8.63 17.5865 8.629C18.5733 8.32525 18.063 6.3505 19.1147 6.4795C18.8945 7.24325 20.11 7.9705 19.458 6.86275C19.0135 6.30125 20.8998 7.26675 20.0688 7.54275C20.877 8.60975 20.3073 6.54625 20.9093 7.107C21.3005 7.7885 21.7587 7.28125 21.8652 7.25575C22.1242 7.1835 22.515 7.29725 22.6178 7.358C23.609 8.3045 21.6787 7.912 21.6502 8.63575C21.7552 9.099 20.5903 8.512 20.416 8.38575C19.9053 7.009 18.7417 8.38225 17.886 8.6035C17.857 8.62625 17.154 9.17475 17.0713 9.2475C16.8708 10.4538 15.9013 11.187 15.5415 12.4073C15.4693 13.1123 15.703 14.0875 15.605 14.8483C15.833 15.8238 16.756 16.3823 17.5605 16.8598C18.166 17.2498 18.7972 16.5027 19.4487 16.4942C20.0187 15.6557 20.9313 16.2705 21.4468 16.2085C20.853 17.1435 21.8882 17.866 21.5952 18.8775C21.136 19.4395 21.0067 20.1863 20.7607 20.857C18.639 22.9545 15.7225 24.25 12.5 24.25C10.9383 24.2519 9.39197 23.9419 7.95175 23.338C8.217 23.0967 8.37175 22.7373 8.7285 22.6343C10.3488 23.026 9.6435 21.0213 10.7435 20.5678C11.4807 19.2168 9.1275 19.0018 8.2875 18.5098C6.867 18.2953 7.0005 16.5662 5.7105 16.1922C4.654 16.024 5.03725 14.5015 4.26275 14.583C3.59425 14.7073 3.329 13.7872 2.9565 13.853C2.8665 13.948 2.49 13.2355 2.085 14.0205C0.94125 13.7673 1.7415 12.454 1.25825 11.7188C1.058 11.382 1.82975 9.65525 1.003 10.6587C0.9705 10.6012 0.9485 10.523 0.935 10.4312C1.04072 9.83579 1.19225 9.24938 1.38825 8.67725C1.51 8.542 1.65 8.47475 1.80425 8.5255C2.4155 8.3865 2.21225 9.34675 2.26275 9.9415C2.7235 10.139 2.50775 8.198 3.46525 8.15275C4.117 7.419 4.87275 6.79425 5.66525 6.289C5.97425 6.5095 6.63925 6.48275 7.16075 5.99325C6.57975 5.8765 6.538 5.43325 7.3145 5.25875C8.55 4.72775 6.757 5.84075 7.76575 6.00125C8.86075 6.32375 7.93225 5.04925 8.45125 4.55075C7.90775 4.18075 8.78 2.74225 7.8295 3.38125C8.15825 3.14625 7.647 2.70525 7.9405 2.53325C8.06175 2.87325 8.673 3.34025 8.89025 2.55625C9.501 2.6605 9.41525 1.77575 9.74525 1.29975C11.294 0.754 10.0117 2.2555 9.9535 3.0005C10.452 4.453 11.2928 2.4405 12.1785 2.3905C13.2555 2.42725 13.1325 1.39775 13.1158 0.84675C12.8831 0.803214 12.6484 0.771506 12.4125 0.75175C12.4418 0.75175 12.4708 0.75 12.5 0.75ZM8.34475 1.99175C8.543 1.9675 8.23025 2.39775 7.80275 2.46875C7.23275 2.944 7.7185 2.30175 7.9615 2.19725C8.15575 2.05825 8.27875 1.99975 8.34475 1.99175ZM17.0872 2.30625C17.1045 2.30475 17.1315 2.3095 17.1723 2.32325C17.3558 2.62725 16.9685 2.31575 17.0872 2.30625ZM7.024 2.44925C7.46225 2.481 6.99525 3.50375 6.50825 3.55425C6.24725 3.53 6.069 3.94175 5.86725 4.07625C5.84725 4.16625 5.88325 2.66725 6.56475 2.6095C6.7735 2.487 6.92275 2.442 7.024 2.44925ZM13.3335 2.47675C13.11 2.486 12.944 2.58025 13.0352 2.82325C13.1657 2.949 13.356 2.9795 13.5293 2.9805C14.5968 2.848 13.8252 2.45625 13.3335 2.47675ZM17.1147 2.6715C17.1622 2.676 17.273 2.718 17.479 2.822C17.895 3.347 16.9097 2.653 17.1147 2.67175M15.059 3.05725C15.0455 3.063 15.0342 3.08825 15.0302 3.1435C15.226 3.3635 15.1178 3.03125 15.059 3.05725ZM15.815 3.23875C15.799 3.2345 15.7975 3.26925 15.8295 3.37875C16.0398 3.61825 15.8625 3.25175 15.815 3.23875ZM17.955 3.24125C18.127 3.2405 18.6082 3.53975 18.5112 3.86625C18.0465 4.24175 18.2617 4.04125 18.171 3.625C17.8597 3.34975 17.852 3.24175 17.955 3.24125ZM4.40525 4.75975C4.43925 4.76375 4.48775 4.8045 4.55425 4.90475C4.38825 5.41425 4.25825 4.7425 4.40525 4.75975ZM6.7265 5.05525C6.7575 5.0555 6.808 5.08025 6.88225 5.15025C6.72 5.27275 6.634 5.054 6.7265 5.05525ZM20.949 5.14525C20.9932 5.14 21.0803 5.202 21.2255 5.36975C21.399 5.08475 22.2945 5.74625 21.5175 5.86575C21.371 6.45025 20.7582 5.16725 20.9492 5.145M4.4235 5.37975C4.43975 5.376 4.457 5.386 4.47425 5.41575C4.24125 6.1025 4.30975 5.405 4.4235 5.37975ZM19.5448 6.08525C19.5528 6.08342 19.5611 6.0836 19.569 6.08575C19.709 6.109 20.2607 6.42275 20.4807 6.64125C20.6155 6.94275 20.039 6.40575 19.9223 6.44075C19.5958 6.19725 19.5058 6.097 19.5448 6.08525ZM4.136 6.091C4.1645 6.09675 4.18675 6.126 4.193 6.1935C3.77125 6.48675 4.0125 6.066 4.136 6.091ZM21.23 6.65C21.2515 6.64075 21.3135 6.6755 21.4415 6.796C21.464 7.1015 21.1652 6.6775 21.23 6.65ZM18.6615 7.2285C18.6098 7.23675 18.5302 7.327 18.4217 7.5665C18.7242 7.9195 18.8168 7.204 18.6615 7.2285ZM21.846 7.4805C21.7895 7.488 21.7303 7.55125 21.6908 7.71475C22.1608 7.939 22.0155 7.4585 21.846 7.4805ZM12.7107 8.1755C12.65 8.17 12.565 8.1955 12.4615 8.28125C12.86 8.48725 12.8938 8.1915 12.711 8.17525M13.2625 8.363C13.2375 8.35375 13.188 8.371 13.1038 8.44175C13.1905 8.65875 13.337 8.391 13.2625 8.363ZM15.2475 9.6325C15.2233 9.63825 15.1917 9.665 15.1512 9.72575C15.3047 9.97975 15.3512 9.6075 15.2472 9.6325M2.7055 9.7395C2.68275 9.73975 2.669 9.7965 2.6825 9.95925C2.9265 10.2498 2.774 9.73875 2.7055 9.7395ZM2.56975 10.152C2.547 10.1483 2.51275 10.216 2.46725 10.4178C2.60475 10.818 2.6385 10.1638 2.56975 10.152ZM1.8715 10.363C1.38625 10.313 2.27925 11.1697 2.3145 11.5475C3.21325 11.79 2.18875 12.0645 2.94875 12.3708C4.093 12.7828 3.38575 11.8625 2.9005 11.6687C3.09075 11.363 2.41775 11.1375 2.1705 10.444C2.03825 10.3958 1.941 10.3702 1.8715 10.363ZM16.0473 10.5545C15.9958 10.5545 15.939 10.6495 15.915 10.9327C16.2505 11.0135 16.1608 10.5545 16.0473 10.5545ZM2.81625 10.7585C2.81307 10.7576 2.80976 10.7574 2.8065 10.7579C2.80324 10.7583 2.8001 10.7594 2.79725 10.761C2.771 10.7777 2.76925 10.8592 2.84225 11.0367L2.89875 11.0743C2.9455 10.9085 2.866 10.7713 2.81625 10.7585ZM15.1927 10.7795C15.0457 10.788 14.951 10.8545 15.0553 11.0285L15.0992 11.049H15.349C16.0907 11.0245 15.5157 10.761 15.1927 10.7795ZM2.12 11.691C2.05425 11.677 2.045 11.7533 2.2025 12.019C2.6835 12.1863 2.265 11.7215 2.12 11.691ZM0.77775 11.7285C0.9445 12.4508 1.05075 13.2905 1.36025 13.9253C1.56475 14.7023 1.7155 13.7243 1.7665 14.3365C1.94 15.493 1.235 16.6845 2.1025 17.7935C2.515 18.9118 3.421 19.6953 4.055 20.669C2.01 18.555 0.75 15.6765 0.75 12.5C0.75 12.2405 0.76125 11.9838 0.77775 11.7285ZM3.769 12.3955C3.709 12.403 3.6555 12.467 3.641 12.6322C4.192 12.8575 3.94925 12.3728 3.769 12.3955ZM4.6465 13.3068C4.62225 13.297 4.597 13.4065 4.5805 13.7353L4.5905 13.9165C4.7855 14.4375 4.7195 13.3355 4.6465 13.3068ZM13.4155 14.0402C13.3532 14.0335 13.3525 14.082 13.5255 14.2463C13.9873 14.3378 13.5525 14.0552 13.4155 14.0402ZM14.087 14.194C14.0582 14.1945 14.0208 14.2152 13.9738 14.2692C14.1653 14.5702 14.2112 14.1918 14.087 14.194ZM13.9755 14.5235C13.9315 14.5305 13.8698 14.5598 13.7863 14.623C14.016 14.871 14.1663 14.4925 13.9755 14.5235ZM13.653 14.5717C13.6295 14.5692 13.594 14.6038 13.5455 14.708C13.683 14.9195 13.723 14.5792 13.653 14.5717ZM20.958 16.9C20.9345 16.8975 20.899 16.9317 20.8505 17.0362C20.988 17.2477 21.0283 16.9072 20.958 16.9Z" fill="#005396"/>
</svg>
