<svg width="60" height="61" viewBox="0 0 60 61" fill="none" xmlns="http://www.w3.org/2000/svg">
<circle cx="29.918" cy="30.377" r="21.0801" fill="#C7D6E5"/>
<circle cx="29.918" cy="30.377" r="21.0801" fill="url(#paint0_radial_1720_8425)" fill-opacity="0.6"/>
<path d="M27.3321 11.363C27.4535 11.363 27.6053 11.4226 27.7369 11.6014C27.1499 10.7769 28.3947 11.1345 28.4656 10.3498C29.174 9.83327 28.921 9.49554 29.1234 9.47567L29.346 9.29688C28.9108 9.45581 28.759 9.48561 28.6376 9.48561H28.4352C28.2834 9.48561 28.0304 9.51541 27.4333 9.6942C26.0671 9.79354 25.0854 11.2438 24.6199 11.2835C24.1442 11.5318 24.1645 11.5815 24.2758 11.5815C24.3062 11.5815 24.3466 11.5716 24.3871 11.5716C24.4276 11.5716 24.458 11.5616 24.4883 11.5616C24.5996 11.5616 24.5693 11.6113 23.9216 11.9093C24.0734 11.949 22.7881 12.5053 22.778 13.3794C22.7375 13.7172 22.8792 13.9456 23.112 13.9456C23.3144 13.9456 23.5674 13.7966 23.8406 13.4192C24.7514 12.3861 26.6743 12.2868 27.5041 11.661C26.988 11.6212 27.0892 11.363 27.3321 11.363ZM22.7072 11.7106C22.6161 11.7106 22.7375 11.6014 22.8691 11.4921C23.0108 11.3829 23.1727 11.2736 23.1727 11.2736L23.1626 11.2835C23.7091 11.0749 23.3751 11.0253 23.6686 10.8862H23.6483C23.5876 10.8862 23.6989 10.8067 23.8001 10.7173C23.9014 10.6379 23.9924 10.5485 23.9014 10.5485C23.8508 10.5485 23.7192 10.5783 23.4965 10.6677C23.5674 10.5683 23.8406 10.4988 24.2252 10.2902C23.6686 10.469 23.2334 10.5783 23.1828 10.5783C23.1423 10.5783 23.3751 10.4988 24.0734 10.2902C24.1038 10.2902 24.1341 10.3001 24.1544 10.3001C24.2252 10.3001 24.2556 10.2803 24.2454 10.2604C24.2353 10.2405 24.1948 10.2306 24.124 10.2306C23.1221 10.3101 22.3732 10.9259 22.5958 11.0054C22.7274 10.9657 22.8185 10.9458 22.8792 10.9458C23.0108 10.9458 22.9501 11.0551 22.6869 11.214C22.8084 11.4921 20.6629 12.2073 20.42 12.4656C20.5415 12.396 20.6224 12.3762 20.6629 12.3762C20.8248 12.3762 20.6123 12.6841 20.3998 12.8331C20.5313 12.9523 20.6325 12.992 20.7135 12.992C20.926 12.992 21.0171 12.704 21.1993 12.6146C21.2397 12.694 21.2802 12.7338 21.3308 12.7338C21.5029 12.7338 21.7154 12.3166 21.8874 12.098C21.938 12.1477 21.9988 12.1874 22.0797 12.1874C22.2416 12.1874 22.4845 12.0583 22.8691 11.6908C22.7881 11.7007 22.7274 11.7106 22.7072 11.7106ZM20.3795 13.5384C20.0152 13.7569 19.8229 13.8463 19.742 13.8463C19.5902 13.8463 19.7926 13.5682 19.9747 13.2801C20.1569 13.002 20.3188 12.7238 20.086 12.7238C19.9747 12.7238 19.7723 12.7834 19.4485 12.9424C18.568 13.5185 18.4662 15.5151 17.8084 15.5151H17.7477C18.8103 14.7502 18.4966 13.2503 19.9842 12.8629C21.4516 12.0384 21.0677 11.8894 22.3732 10.9458C21.9886 11.1345 21.4219 11.3431 21.2903 11.3431C21.2094 11.3431 21.3308 11.2438 21.8571 10.9955C21.8065 11.0054 21.766 11.0153 21.7356 11.0153C21.3814 11.0153 24.0633 10.0717 24.1948 10.0518C23.0917 10.2008 21.0677 11.1047 21.0677 11.1047L19.6627 11.7724C14.886 14.4345 11.0285 19.4685 9.72459 24.5122C9.24735 25.7802 8.4803 30.4464 9.24734 32.7691C9.73311 35.3716 11.828 37.1496 12.0506 39.8117C12.4352 41.6394 14.0646 43.7876 14.6515 44.9498C15.0968 45.3868 16.3214 46.6484 16.5339 46.6484C16.6148 46.6484 16.5642 46.4596 16.2404 45.953C16.038 45.3868 14.6414 43.9936 15.2081 43.9936C15.2385 43.9936 15.2688 43.9936 15.3093 44.0035C14.611 43.3082 16.8577 43.4969 15.2891 42.5533C15.1069 42.3348 15.0664 42.2652 15.1069 42.2652C15.1575 42.2652 15.2992 42.3447 15.4611 42.4242C15.6332 42.5036 15.8356 42.5831 15.9975 42.5831C16.2505 42.5831 16.4225 42.4142 16.3213 41.7984C16.3618 41.8182 16.4023 41.8182 16.4327 41.8182C16.6958 41.8182 16.6047 41.3116 16.625 40.805C16.6452 40.2984 16.7768 39.7919 17.4852 39.7919C17.5661 39.7919 17.6572 39.8018 17.7483 39.8117C19.3878 38.9376 17.9608 36.5238 19.8432 35.6398C19.7723 33.6333 17.0298 33.5339 15.9975 32.7194C15.8255 32.8187 15.6635 32.8485 15.5016 32.8485C15.3194 32.8485 15.1575 32.8088 15.0158 32.7591C14.8742 32.7194 14.7426 32.6697 14.6515 32.6697C14.6313 32.6697 14.611 32.6697 14.5908 32.6797C16.3517 32.2227 15.0664 29.8189 13.6091 29.8189H13.5079C13.3966 28.7759 12.8501 29.1732 12.7894 28.3091C12.6983 28.3587 12.6072 28.3786 12.5162 28.3786C12.2733 28.3786 12.0506 28.2097 11.8583 28.0508C11.6661 27.8819 11.5041 27.723 11.3625 27.723C11.2511 27.723 11.1499 27.8323 11.0589 28.1501C11.1601 27.6634 11.1297 27.5045 11.0285 27.5045C10.9273 27.5045 10.7451 27.6733 10.5427 27.8422C10.3504 28.0111 10.1278 28.1799 9.95575 28.1799H9.90515C8.72109 27.3555 11.3011 26.3025 10.6737 25.1801C11.0785 24.753 11.2404 24.0278 11.0582 24.0278C10.9671 24.0278 10.785 24.2066 10.5016 24.6934C10.0968 23.6802 11.1695 21.3856 12.0804 21.2565C12.1107 21.2565 12.131 21.2465 12.1613 21.2465C12.3232 21.2465 12.4852 21.326 12.6269 21.4949C12.7078 21.9617 12.5054 22.9451 12.5864 22.9451C12.6269 22.9451 12.7078 22.7465 12.9102 22.2299C13.1733 21.0479 15.0152 20.1936 15.2075 19.4685C15.2176 19.4784 15.2176 19.4784 15.2277 19.4784C15.4403 19.4784 16.8065 18.2964 17.4036 18.1672C17.6363 17.9388 17.7983 17.8593 17.9197 17.8593C18.0513 17.8593 18.1221 17.9586 18.1727 18.048C18.2233 18.1474 18.2638 18.2368 18.3144 18.2368C18.3549 18.2368 18.4055 18.1772 18.4966 18.0083C18.1828 17.4024 18.9924 16.8263 18.7698 16.8263C18.6888 16.8263 18.4459 16.9057 17.9501 17.1044C17.8691 17.1441 17.8286 17.1541 17.8084 17.1541C17.7477 17.1541 17.9905 16.9951 18.3447 16.8362C18.699 16.6773 19.1442 16.5183 19.5187 16.5183C19.7009 16.5183 19.8628 16.5581 19.9842 16.6574C21.5528 16.2899 19.3068 15.376 19.3878 15.376H19.408C19.8533 15.1177 19.7217 14.1443 20.3795 13.5384ZM14.7521 18.0083C14.7318 18.0083 14.8229 17.8792 15.1265 17.5116C15.754 17.0547 16.26 16.7468 15.6831 16.4488C15.9361 16.3395 16.179 16.2104 16.4118 16.0713C16.4017 16.5581 15.9868 17.7401 15.7641 17.7401C15.7135 17.7401 15.6629 17.6706 15.6427 17.5216C15.7742 17.2931 15.7843 17.2037 15.7337 17.2037C15.6528 17.2037 15.42 17.4024 15.1974 17.611C14.9747 17.7997 14.7723 18.0083 14.7521 18.0083ZM15.3289 18.2765C15.0557 18.2765 15.1063 18.1076 15.9463 17.9388C16.3106 17.8891 16.0272 17.909 16.4624 17.8096C16.0374 18.1474 15.5617 18.2765 15.3289 18.2765ZM29.68 16.866C29.8014 16.8461 29.8925 16.8461 29.9633 16.8461C30.2568 16.8461 30.1253 16.9653 29.9532 17.0845C29.7812 17.2037 29.5687 17.3229 29.6901 17.3229C29.7609 17.3229 29.9532 17.2832 30.3479 17.1739C32.3416 17.0349 29.5686 15.376 30.0139 14.8197L29.8925 14.78C29.0728 15.8031 30.439 15.823 29.68 16.866ZM28.8501 16.9057C28.9918 16.9057 29.174 16.7468 29.3662 16.2998C29.6294 15.9919 29.5181 15.9521 29.2347 15.8031C28.4554 16.0018 28.5263 16.9057 28.8501 16.9057ZM35.833 20.0546C35.8027 20.0546 35.7824 20.0645 35.7622 20.0744C35.8432 20.0943 35.9241 20.1142 36.0051 20.1142C35.9241 20.0744 35.8735 20.0546 35.833 20.0546ZM49.4244 22.5279C49.5965 22.8955 49.6876 23.0444 49.6977 23.0444C49.7685 23.0444 48.6857 20.3691 47.7092 18.9122C44.3099 13.8407 40.1847 10.9756 34.7401 9.6346H34.7299C34.5883 9.6346 34.7502 9.70414 34.9425 9.77367C35.1347 9.8432 35.3675 9.91274 35.3675 9.91274C35.3675 9.91274 35.2157 9.86307 34.7502 9.73394C34.234 9.58494 33.6673 9.52534 33.1309 9.48561C33.0399 9.51541 35.3878 10.3597 36.9361 10.8266C36.42 10.6677 35.8836 10.5286 35.7521 10.5286C35.661 10.5286 35.7521 10.5882 36.1265 10.7471C35.6711 10.618 35.4788 10.5584 35.4586 10.5584C35.4282 10.5584 36.0658 10.767 36.6629 10.9756C37.2701 11.1842 37.847 11.3928 37.685 11.3928C37.6445 11.3928 37.5332 11.3729 37.3612 11.3431C37.8773 11.6212 38.0595 11.7305 38.0291 11.7305C37.9785 11.7305 37.3409 11.4325 36.6831 11.1345C36.0354 10.8365 35.3776 10.5385 35.2865 10.5385C35.2359 10.5385 35.3675 10.6379 35.8128 10.8961C36.42 11.1544 37.0272 11.4127 36.8552 11.4127C36.7742 11.4127 36.5414 11.363 36.086 11.2339C37.0981 11.7404 35.3675 11.5418 35.9545 12.2272C35.6306 11.9292 35.4991 11.8298 35.4687 11.8298C35.4383 11.8298 35.5193 11.949 35.6003 12.0682C35.6812 12.1874 35.742 12.3066 35.6711 12.3066H35.6509C36.3593 13.0616 35.155 12.3861 36.0152 13.0616C35.3675 12.7735 34.2644 12.2967 34.7603 12.2967C34.8817 12.2967 35.1145 12.3265 35.4788 12.406C34.821 11.651 32.9589 11.6212 32.9184 11.5318C32.4529 11.5616 32.4428 11.9093 32.5237 12.545C32.5136 13.5483 31.5117 13.5682 31.6433 14.1443C31.6433 14.1344 31.6534 14.1344 31.6534 14.1344C31.6736 14.1344 31.6838 14.333 31.7445 14.5416C31.8153 14.7403 31.9368 14.9489 32.1999 14.9489C32.3416 14.9489 32.5237 14.8893 32.7464 14.7403C33.0601 15.2965 33.3435 15.4952 33.5661 15.4952C33.9001 15.4952 34.1025 15.0482 34.0822 14.6409C33.7179 14.4423 33.2423 12.7934 33.7685 12.7934C33.8495 12.7934 33.9507 12.8331 34.0822 12.9225C33.2625 14.8992 37.3207 13.5781 35.0234 14.482C35.5396 15.1475 34.6996 15.1177 34.9425 15.9223C34.5478 16.0316 34.1126 16.1309 33.728 16.1309C33.1613 16.1309 32.7261 15.8925 32.7767 15.0581C32.0683 15.4257 33.4852 16.6673 32.0785 16.6673H31.9975C31.3194 17.8891 28.7793 17.4719 30.7729 18.7632C30.8843 19.3294 30.5199 19.4288 30.0544 19.4288C29.933 19.4288 29.8014 19.4188 29.6699 19.4089C29.5383 19.399 29.4067 19.399 29.2853 19.399C28.759 19.399 28.3846 19.5281 28.7084 20.3327C28.4757 21.1671 29.0222 21.5346 29.6901 21.5346C30.4997 21.5346 31.4915 21.0181 31.5623 20.1638C31.9975 19.5182 32.5541 19.25 33.1309 19.25C34.0418 19.25 35.0032 19.9254 35.6306 20.7598C35.6812 20.8393 35.7217 20.8691 35.742 20.8691C35.7926 20.8691 35.742 20.6704 35.7217 20.4717C35.7015 20.3128 35.7015 20.1539 35.7622 20.1042C34.8615 19.8559 34.1733 18.7831 34.4769 18.7831C34.5781 18.7831 34.7907 18.9023 35.1347 19.2202H35.1853C35.7521 19.2202 36.1974 19.6572 36.5414 20.0943C36.8957 20.5313 37.1588 20.9684 37.3915 20.9684C37.4826 20.9684 37.5737 20.8889 37.6547 20.7101C37.6142 20.6505 37.513 20.4817 37.4624 20.3128C37.4017 20.1042 37.4017 19.8956 37.6749 19.8956C37.7862 19.8956 37.938 19.9354 38.1506 20.0148C38.8387 19.836 37.7154 18.0778 38.6262 18.0778C38.7173 18.0778 38.8286 18.0977 38.9703 18.1374C38.9602 18.4454 39.1019 18.5546 39.2334 18.5546C39.4965 18.5546 39.7597 18.1871 39.1221 18.0778C39.365 17.8494 39.5067 17.76 39.6079 17.76C39.9621 17.76 39.6787 18.9122 40.9032 18.9122C41.3182 19.8758 37.3005 18.9818 38.5857 20.8293C38.8792 21.0379 39.2435 21.0777 39.5977 21.0777C39.7091 21.0777 39.8103 21.0777 39.9115 21.0677C40.0127 21.0677 40.1139 21.0578 40.205 21.0578C40.8324 21.0578 41.2777 21.2068 41.0044 22.4783C40.6705 22.7167 40.296 22.7961 39.9115 22.7961C39.5674 22.7961 39.2233 22.7365 38.8893 22.6769C38.5554 22.6173 38.2315 22.5577 37.938 22.5577C37.4826 22.5577 37.1183 22.7067 36.8957 23.2232C35.7116 22.7465 34.1531 22.7266 34.3049 21.2863C32.2404 21.5743 30.0848 21.4253 28.5668 22.667C28.4757 24.4848 25.2979 25.0708 26.0671 27.1369C25.1461 29.0441 27.1803 31.7162 29.2549 31.7162C29.3258 31.7162 29.4067 31.7161 29.4776 31.7062C30.611 31.6963 31.7546 31.1996 32.7565 31.1996C33.2726 31.1996 33.7382 31.3288 34.143 31.7261C34.234 31.7162 34.315 31.7062 34.3858 31.7062C35.9342 31.7062 33.89 34.12 35.742 34.5273C37.4219 36.2358 34.7097 37.9939 36.0354 39.6329C36.1771 40.9143 36.8248 41.9871 36.8248 43.2387C36.9969 43.2585 37.1588 43.2685 37.3308 43.2685C39.4662 43.2685 40.802 41.4408 42.0569 40.0601C41.6724 37.9939 45.0424 37.5867 43.8887 35.2722C43.3523 32.7393 46.4289 31.2394 46.2568 28.7064C46.2872 28.3488 46.186 28.2395 46.0342 28.2395C45.8824 28.2395 45.6597 28.3488 45.4472 28.4481C45.2246 28.5574 44.9817 28.6567 44.7894 28.6567C44.5364 28.6567 44.3441 28.4879 44.3239 27.9316C42.8362 26.5707 42.1581 24.7232 40.7717 23.2232C42.5731 24.0775 43.5952 26.0046 44.4251 27.7528C44.4959 27.7727 44.5667 27.7826 44.6477 27.7826C46.1151 27.7826 48.1594 24.3358 45.933 23.5014C45.8115 23.8292 45.6496 23.9484 45.4573 23.9484C45.1234 23.9484 44.7388 23.551 44.4656 23.1636C44.1923 22.7663 44.0506 22.369 44.2024 22.369C44.3036 22.369 44.5263 22.5279 44.9108 22.9451C45.346 23.2133 45.7711 23.2828 46.2163 23.2828C46.6515 23.2828 47.0968 23.2133 47.5623 23.1736C48.1493 23.402 48.4023 24.1371 48.5845 24.1371C48.6148 24.1371 48.6553 24.1073 48.6857 24.0378C49.1512 25.1304 49.6876 27.0773 50.1733 27.6038C49.9203 25.935 49.8596 24.1669 49.4244 22.5279ZM43.7774 20.2333C42.6338 19.9453 42.2593 18.5546 41.3587 17.75C41.3485 17.5315 41.6825 17.5712 41.6015 17.2037C42.816 17.5712 42.4213 17.9388 42.3099 18.0083C42.7552 18.7334 44 19.2301 43.7774 20.2333ZM28.0607 12.6742C26.9576 12.992 26.8058 12.6444 26.9981 13.3099C27.0791 13.3695 27.2309 13.3894 27.3827 13.3894C27.9191 13.3993 28.6477 13.0914 28.0607 12.6742ZM44.2631 40.0402C45.7103 38.8383 45.8925 37.4079 45.9633 35.9576C45.3156 37.1993 43.3928 38.5701 44.2631 40.0402ZM37.6749 20.6704C37.6648 20.6803 37.6648 20.6803 37.6648 20.6903C37.6749 20.7101 37.685 20.7101 37.685 20.7101C37.685 20.7101 37.685 20.7002 37.6749 20.6704Z" fill="url(#paint1_radial_1720_8425)"/>
<path d="M4.52637 15.6221L9.73301 13.1272L4.96909 9.86558L4.52637 15.6221ZM18.7066 3.18635L18.5153 2.72441L18.7066 3.18635ZM37.5269 1.9528L37.3975 2.43576L37.5269 1.9528ZM53.209 12.4313L52.8124 12.7356L53.209 12.4313ZM58.7716 30.291C58.7716 30.5672 58.9955 30.791 59.2716 30.791C59.5478 30.791 59.7716 30.5672 59.7716 30.291H58.7716ZM7.06853 11.909L7.45822 12.2223C10.4766 8.46775 14.4039 5.5098 18.8979 3.64829L18.7066 3.18635L18.5153 2.72441C13.8653 4.65048 9.80194 7.71101 6.67885 11.5958L7.06853 11.909ZM18.7066 3.18635L18.8979 3.64829C24.7629 1.21894 31.2656 0.792726 37.3975 2.43576L37.5269 1.9528L37.6563 1.46984C31.3118 -0.230175 24.5836 0.210814 18.5153 2.72441L18.7066 3.18635ZM37.5269 1.9528L37.3975 2.43576C43.5294 4.0788 48.9478 7.69926 52.8124 12.7356L53.209 12.4313L53.6057 12.1269C49.6072 6.91585 44.0009 3.16985 37.6563 1.46984L37.5269 1.9528ZM53.209 12.4313L52.8124 12.7356C56.6769 17.772 58.7716 23.9428 58.7716 30.291H59.2716H59.7716C59.7716 23.7227 57.6043 17.3379 53.6057 12.1269L53.209 12.4313Z" fill="#005396"/>
<path d="M55.3076 44.9639L50.101 47.4587L54.8649 50.7204L55.3076 44.9639ZM41.1274 57.3996L41.3187 57.8615L41.1274 57.3996ZM22.3071 58.6331L22.4365 58.1502L22.3071 58.6331ZM6.62495 48.1547L7.02162 47.8503L6.62495 48.1547ZM1.06237 30.2949C1.06237 30.0188 0.83851 29.7949 0.562368 29.7949C0.286226 29.7949 0.0623677 30.0188 0.0623677 30.2949L1.06237 30.2949ZM52.7655 48.6769L52.3758 48.3636C49.3573 52.1182 45.4301 55.0761 40.936 56.9376L41.1274 57.3996L41.3187 57.8615C45.9687 55.9355 50.032 52.8749 53.1551 48.9902L52.7655 48.6769ZM41.1274 57.3996L40.936 56.9376C35.0711 59.367 28.5684 59.7932 22.4365 58.1502L22.3071 58.6331L22.1776 59.1161C28.5222 60.8161 35.2504 60.3751 41.3187 57.8615L41.1274 57.3996ZM22.3071 58.6331L22.4365 58.1502C16.3046 56.5071 10.8862 52.8867 7.02162 47.8503L6.62495 48.1547L6.22827 48.4591C10.2268 53.6701 15.8331 57.4161 22.1776 59.1161L22.3071 58.6331ZM6.62495 48.1547L7.02162 47.8503C3.15708 42.8139 1.06237 36.6431 1.06237 30.2949L0.562368 30.2949L0.0623677 30.2949C0.0623683 36.8633 2.22972 43.2481 6.22827 48.4591L6.62495 48.1547Z" fill="#005396"/>
<defs>
<radialGradient id="paint0_radial_1720_8425" cx="0" cy="0" r="1" gradientUnits="userSpaceOnUse" gradientTransform="translate(35.585 24.1111) rotate(121.49) scale(38.1715)">
<stop offset="0.43309" stop-color="white" stop-opacity="0.7"/>
<stop offset="0.683728" stop-color="#79BFFA" stop-opacity="0.955364"/>
<stop offset="1" stop-color="#FEFFFF"/>
</radialGradient>
<radialGradient id="paint1_radial_1720_8425" cx="0" cy="0" r="1" gradientUnits="userSpaceOnUse" gradientTransform="translate(38.0514 13.6193) rotate(126.062) scale(40.8581 31.9279)">
<stop offset="0.446787" stop-color="#0074CA"/>
<stop offset="0.798476" stop-color="#0C61A0"/>
<stop offset="1" stop-color="#002F5E"/>
</radialGradient>
</defs>
</svg>
