<svg width="150" height="151" viewBox="0 0 150 151" fill="none" xmlns="http://www.w3.org/2000/svg">
<rect y="0.961914" width="150" height="150" rx="75" fill="#C7D6E5"/>
<rect y="0.961914" width="150" height="150" rx="75" fill="url(#paint0_radial_1392_4228)" fill-opacity="0.6"/>
<path d="M65.763 8.34225C66.1968 8.34225 66.7391 8.55515 67.209 9.19383C65.1123 6.24879 69.5588 7.52616 69.8118 4.72305C72.3424 2.87796 71.4386 1.67156 72.1616 1.6006L72.9569 0.961914C71.4025 1.52963 70.8602 1.63608 70.4264 1.63608H69.7034C69.1611 1.63608 68.2574 1.74253 66.1245 2.38121C61.2442 2.73603 57.7377 7.91646 56.0748 8.05839C54.3757 8.94545 54.448 9.12286 54.8456 9.12286C54.9541 9.12286 55.0987 9.08738 55.2433 9.08738C55.3879 9.08738 55.4963 9.0519 55.6048 9.0519C56.0024 9.0519 55.894 9.22931 53.5804 10.2938C54.1226 10.4357 49.5316 12.4227 49.4954 15.5452C49.3508 16.7516 49.8569 17.5677 50.6884 17.5677C51.4114 17.5677 52.3151 17.0354 53.2912 15.6871C56.5447 11.9969 63.4133 11.6421 66.3776 9.40672C64.5339 9.26479 64.8954 8.34225 65.763 8.34225ZM49.2424 9.58413C48.917 9.58413 49.3508 9.19383 49.8208 8.80352C50.3269 8.41322 50.9053 8.02291 50.9053 8.02291L50.8691 8.05839C52.8212 7.31326 51.6283 7.13585 52.6766 6.6391H52.6043C52.3874 6.6391 52.7851 6.35524 53.1466 6.03589C53.5081 5.75204 53.8334 5.4327 53.5081 5.4327C53.3273 5.4327 52.8574 5.53914 52.0621 5.85848C52.3151 5.50366 53.2912 5.25528 54.6649 4.51015C52.6766 5.14884 51.1222 5.53914 50.9414 5.53914C50.7968 5.53914 51.6283 5.25528 54.1226 4.51015C54.2311 4.51015 54.3395 4.54564 54.4118 4.54564C54.6649 4.54564 54.7733 4.47467 54.7372 4.40371C54.701 4.33274 54.5564 4.29726 54.3034 4.29726C50.7245 4.58112 48.0494 6.78103 48.8447 7.06489C49.3147 6.92296 49.64 6.85199 49.8569 6.85199C50.3269 6.85199 50.11 7.2423 49.1701 7.81001C49.6039 8.80352 41.94 11.3583 41.0724 12.2808C41.5062 12.0324 41.7954 11.9615 41.94 11.9615C42.5184 11.9615 41.7593 13.0614 41.0001 13.5936C41.4701 14.0194 41.8316 14.1614 42.1208 14.1614C42.8799 14.1614 43.2053 13.1324 43.856 12.813C44.0006 13.0969 44.1452 13.2388 44.3259 13.2388C44.9405 13.2388 45.6996 11.7486 46.3142 10.9679C46.4949 11.1454 46.7118 11.2873 47.001 11.2873C47.5794 11.2873 48.447 10.826 49.8208 9.51317C49.5316 9.54865 49.3147 9.58413 49.2424 9.58413ZM40.9278 16.1129C39.6264 16.8935 38.9396 17.2128 38.6504 17.2128C38.1081 17.2128 38.8311 16.2193 39.4818 15.1904C40.1325 14.1968 40.7109 13.2033 39.8795 13.2033C39.4818 13.2033 38.7588 13.4162 37.602 13.9839C34.4569 16.0419 34.0932 23.1739 31.7434 23.1739H31.5265C35.3223 20.4417 34.2016 15.0839 39.5157 13.7001C44.7575 10.7551 43.386 10.2228 48.0494 6.85199C46.6757 7.52616 44.6513 8.27129 44.1813 8.27129C43.8921 8.27129 44.3259 7.91646 46.2057 7.0294C46.025 7.06489 45.8804 7.10037 45.7719 7.10037C44.5067 7.10037 54.0865 3.72954 54.5564 3.65858C50.6161 4.19081 43.386 7.41971 43.386 7.41971L38.3672 9.80466C21.3043 19.3139 7.52504 37.2959 2.86739 55.3124C1.16263 59.842 -1.57736 76.5099 1.1626 84.8068C2.89781 94.1032 10.3809 100.455 11.1762 109.964C12.5499 116.493 18.3701 124.166 20.4669 128.317C22.0575 129.879 26.4316 134.385 27.1908 134.385C27.48 134.385 27.2992 133.711 26.1424 131.901C25.4194 129.879 20.4307 124.902 22.4551 124.902C22.5635 124.902 22.672 124.902 22.8166 124.937C20.3222 122.454 28.3476 123.128 22.7443 119.757C22.0936 118.976 21.949 118.728 22.0936 118.728C22.2743 118.728 22.7804 119.012 23.3588 119.296C23.9734 119.58 24.6964 119.863 25.2748 119.863C26.1786 119.863 26.7931 119.26 26.4316 117.06C26.5762 117.131 26.7208 117.131 26.8293 117.131C27.7692 117.131 27.4438 115.322 27.5161 113.512C27.5884 111.702 28.0584 109.893 30.5889 109.893C30.8781 109.893 31.2034 109.928 31.5288 109.964C37.3851 106.841 32.2879 98.2191 39.0119 95.0612C38.7588 87.8938 28.9621 87.5389 25.2748 84.6294C24.6602 84.9842 24.0818 85.0906 23.5034 85.0906C22.8527 85.0906 22.2743 84.9487 21.7682 84.7713C21.2621 84.6294 20.7922 84.452 20.4668 84.452C20.3945 84.452 20.3222 84.452 20.2499 84.4875C26.5401 82.8553 21.949 74.2685 16.7433 74.2685H16.3818C15.9842 70.5429 14.0321 71.9622 13.8152 68.8752C13.4898 69.0526 13.1645 69.1236 12.8391 69.1236C11.9715 69.1236 11.1762 68.5204 10.4894 67.9527C9.8025 67.3495 9.2241 66.7817 8.71799 66.7817C8.32034 66.7817 7.95884 67.1721 7.63349 68.3075C7.99499 66.5689 7.88654 66.0011 7.52504 66.0011C7.16353 66.0011 6.51283 66.6043 5.78983 67.2075C5.10297 67.8107 4.30767 68.4139 3.69311 68.4139H3.51236C-0.717212 65.4689 8.49884 61.7078 6.25752 57.6982C7.70353 56.1725 8.28194 53.5823 7.63123 53.5823C7.30588 53.5823 6.65518 54.221 5.64297 55.9596C4.19696 52.3404 8.02888 44.144 11.2824 43.6827C11.3909 43.6827 11.4632 43.6472 11.5716 43.6472C12.15 43.6472 12.7284 43.9311 13.2345 44.5343C13.5237 46.202 12.8007 49.7147 13.0899 49.7147C13.2345 49.7147 13.5237 49.0051 14.2467 47.16C15.1866 42.9376 21.766 39.8861 22.4528 37.2959C22.489 37.3314 22.489 37.3314 22.5251 37.3314C23.2843 37.3314 28.1646 33.109 30.2974 32.6477C31.1289 31.8316 31.7073 31.5477 32.1411 31.5477C32.611 31.5477 32.8641 31.9026 33.0448 32.2219C33.2256 32.5767 33.3702 32.8961 33.5509 32.8961C33.6955 32.8961 33.8763 32.6832 34.2016 32.08C33.081 29.9155 35.973 27.8576 35.1777 27.8576C34.8885 27.8576 34.0209 28.1414 32.2495 28.8511C31.9603 28.993 31.8157 29.0285 31.7434 29.0285C31.5265 29.0285 32.3941 28.4608 33.6594 27.893C34.9246 27.3253 36.5152 26.7576 37.8528 26.7576C38.5035 26.7576 39.0819 26.8995 39.5157 27.2544C45.119 25.9415 37.0959 22.6771 37.3851 22.6771H37.4574C39.048 21.7546 38.578 18.2773 40.9278 16.1129ZM20.8261 32.08C20.7538 32.08 21.0791 31.6187 22.1636 30.3058C24.4049 28.6737 26.2124 27.5737 24.1519 26.5092C25.0556 26.1189 25.9232 25.6577 26.7547 25.1609C26.7185 26.8995 25.2364 31.1219 24.4411 31.1219C24.2603 31.1219 24.0796 30.8736 24.0073 30.3413C24.4772 29.5252 24.5134 29.2059 24.3326 29.2059C24.0434 29.2059 23.212 29.9155 22.4167 30.6607C21.6214 31.3348 20.8984 32.08 20.8261 32.08ZM22.8866 33.038C21.9106 33.038 22.0913 32.4348 25.0918 31.8316C26.3932 31.6542 25.381 31.7251 26.9354 31.3703C25.4171 32.5767 23.7181 33.038 22.8866 33.038ZM74.1499 27.9995C74.5837 27.9285 74.909 27.9285 75.1621 27.9285C76.2104 27.9285 75.7405 28.3543 75.1259 28.7801C74.5114 29.2059 73.7522 29.6317 74.186 29.6317C74.4391 29.6317 75.1259 29.4898 76.5358 29.0994C83.6574 28.6027 73.7522 22.6771 75.3428 20.6901L74.909 20.5482C71.9809 24.2029 76.8611 24.2738 74.1499 27.9995ZM71.1855 28.1414C71.6916 28.1414 72.3423 27.5737 73.0292 25.977C73.9691 24.877 73.5715 24.7351 72.5593 24.2029C69.7757 24.9125 70.0287 28.1414 71.1855 28.1414ZM96.1292 39.3893C96.0207 39.3893 95.9484 39.4248 95.8761 39.4603C96.1653 39.5313 96.4545 39.6022 96.7437 39.6022C96.4545 39.4603 96.2738 39.3893 96.1292 39.3893ZM144.679 48.2244C145.293 49.5373 145.619 50.0695 145.655 50.0695C145.908 50.0695 142.04 40.5128 138.552 35.3089C126.409 17.193 111.674 6.95844 92.2249 2.16832H92.1888C91.6827 2.16832 92.2611 2.41669 92.948 2.66507C93.6348 2.91345 94.4663 3.16182 94.4663 3.16182C94.4663 3.16182 93.924 2.98441 92.2611 2.52314C90.4174 1.9909 88.393 1.77801 86.4771 1.63608C86.1517 1.74253 94.5386 4.75853 100.07 6.4262C98.2259 5.85848 96.3099 5.36173 95.84 5.36173C95.5146 5.36173 95.84 5.57463 97.1775 6.14234C95.5508 5.68107 94.8639 5.46818 94.7916 5.46818C94.6832 5.46818 96.9606 6.21331 99.0935 6.95844C101.263 7.70357 103.323 8.4487 102.745 8.4487C102.6 8.4487 102.202 8.37773 101.588 8.27129C103.432 9.26479 104.082 9.6551 103.974 9.6551C103.793 9.6551 101.516 8.59063 99.1658 7.52616C96.8522 6.46169 94.5024 5.39721 94.1771 5.39721C93.9963 5.39721 94.4663 5.75204 96.0569 6.67458C98.2259 7.59712 100.395 8.51966 99.7803 8.51966C99.4911 8.51966 98.6597 8.34225 97.0329 7.88098C100.648 9.69058 94.4663 8.98093 96.563 11.4292C95.4062 10.3647 94.9362 10.0099 94.8278 10.0099C94.7193 10.0099 95.0085 10.4357 95.2977 10.8615C95.5869 11.2873 95.8038 11.7131 95.5508 11.7131H95.4785C98.009 14.4097 93.7071 11.9969 96.7799 14.4097C94.4663 13.3807 90.5259 11.6776 92.2972 11.6776C92.7311 11.6776 93.5625 11.784 94.8639 12.0679C92.5141 9.37124 85.8625 9.26479 85.7179 8.94545C84.055 9.0519 84.0188 10.2938 84.308 12.5647C84.2719 16.1484 80.693 16.2193 81.163 18.2773C81.163 18.2418 81.1991 18.2418 81.1991 18.2418C81.2714 18.2418 81.3076 18.9515 81.5245 19.6966C81.7775 20.4063 82.2113 21.1514 83.1512 21.1514C83.6574 21.1514 84.308 20.9385 85.1033 20.4063C86.224 22.3933 87.2362 23.1029 88.0315 23.1029C89.2245 23.1029 89.9475 21.5062 89.8752 20.0514C88.5738 19.3418 86.8747 13.4517 88.7545 13.4517C89.0437 13.4517 89.4052 13.5936 89.8752 13.913C86.947 20.974 101.443 16.2548 93.2372 19.4837C95.0808 21.861 92.0803 21.7546 92.948 24.6287C91.5381 25.019 89.9836 25.3738 88.6099 25.3738C86.5855 25.3738 85.0311 24.5222 85.2118 21.5417C82.6813 22.8545 87.7423 27.2898 82.7175 27.2898H82.4282C80.0062 31.6542 70.9325 30.1639 78.0541 34.7766C78.4517 36.7991 77.1503 37.1539 75.4874 37.1539C75.0536 37.1539 74.5837 37.1185 74.1137 37.083C73.6438 37.0475 73.1738 37.0475 72.74 37.0475C70.8602 37.0475 69.5226 37.5088 70.6794 40.3828C69.848 43.3634 71.8001 44.6762 74.186 44.6762C77.078 44.6762 80.6207 42.8311 80.8738 39.7796C82.4283 37.4733 84.4165 36.5153 86.4771 36.5153C89.7306 36.5153 93.1648 38.9281 95.4062 41.9086C95.5869 42.1924 95.7315 42.2989 95.8038 42.2989C95.9846 42.2989 95.8038 41.5892 95.7315 40.8796C95.6592 40.3119 95.6592 39.7442 95.8761 39.5668C92.6587 38.6797 90.2005 34.8476 91.285 34.8476C91.6465 34.8476 92.4057 35.2734 93.6348 36.4088H93.8156C95.84 36.4088 97.4306 37.97 98.6597 39.5313C99.9249 41.0925 100.865 42.6537 101.696 42.6537C102.022 42.6537 102.347 42.3699 102.636 41.7312C102.492 41.5183 102.13 40.9151 101.949 40.3119C101.732 39.5667 101.732 38.8216 102.709 38.8216C103.106 38.8216 103.648 38.9635 104.408 39.2474C106.866 38.6087 102.853 32.3283 106.107 32.3283C106.432 32.3283 106.83 32.3993 107.336 32.5412C107.3 33.6412 107.806 34.0315 108.276 34.0315C109.216 34.0315 110.155 32.7186 107.878 32.3283C108.746 31.5122 109.252 31.1929 109.613 31.1929C110.878 31.1929 109.866 35.3089 114.24 35.3089C115.723 38.7507 101.371 35.5572 105.962 42.157C107.01 42.9021 108.312 43.044 109.577 43.044C109.975 43.044 110.336 43.044 110.698 43.0085C111.059 43.0085 111.421 42.9731 111.746 42.9731C113.987 42.9731 115.578 43.5053 114.602 48.047C113.409 48.8986 112.071 49.1825 110.698 49.1825C109.469 49.1825 108.24 48.9696 107.047 48.7567C105.854 48.5438 104.697 48.3309 103.648 48.3309C102.022 48.3309 100.72 48.8631 99.9249 50.7082C95.6954 49.0051 90.1282 48.9341 90.6705 43.7892C83.2959 44.8181 75.5959 44.2859 70.1733 48.7212C69.848 55.2145 58.4968 57.3079 61.2442 64.6883C57.9546 71.5009 65.2208 81.0457 72.6316 81.0457C72.8846 81.0457 73.1738 81.0457 73.4269 81.0102C77.4757 80.9747 81.5606 79.2006 85.1395 79.2006C86.9832 79.2006 88.6461 79.6619 90.0921 81.0811C90.4174 81.0457 90.7066 81.0102 90.9597 81.0102C96.4907 81.0102 89.1883 89.6324 95.8038 91.0872C101.805 97.1901 92.1165 103.471 96.8522 109.325C97.3583 113.902 99.6719 117.734 99.6719 122.205C100.286 122.276 100.865 122.312 101.479 122.312C109.107 122.312 113.879 115.783 118.362 110.851C116.988 103.471 129.026 102.016 124.905 93.7483C122.989 84.7003 133.978 79.3425 133.364 70.2945C133.472 69.0171 133.111 68.6268 132.569 68.6268C132.026 68.6268 131.231 69.0171 130.472 69.372C129.677 69.7623 128.809 70.1171 128.122 70.1171C127.218 70.1171 126.532 69.5139 126.459 67.5269C121.145 62.6658 118.723 56.0661 113.77 50.7082C120.205 53.7597 123.856 60.6433 126.821 66.8882C127.074 66.9592 127.327 66.9946 127.616 66.9946C132.858 66.9946 140.16 54.6822 132.207 51.7017C131.773 52.8726 131.195 53.2984 130.508 53.2984C129.315 53.2984 127.941 51.8791 126.965 50.4953C125.989 49.076 125.483 47.6567 126.025 47.6567C126.387 47.6567 127.182 48.2245 128.556 49.7147C130.11 50.6727 131.629 50.9211 133.219 50.9211C134.774 50.9211 136.364 50.6727 138.027 50.5308C140.124 51.3469 141.028 53.9726 141.678 53.9726C141.787 53.9726 141.932 53.8662 142.04 53.6178C143.703 57.5208 145.619 64.4754 147.354 66.3559C146.45 60.3949 146.233 54.079 144.679 48.2244ZM124.507 40.028C120.422 38.999 119.085 34.0315 115.867 31.1574C115.831 30.3768 117.024 30.5187 116.735 29.2059C121.073 30.5187 119.663 31.8316 119.265 32.08C120.856 34.6702 125.302 36.4443 124.507 40.028ZM68.3658 13.0259C64.4255 14.1614 63.8832 12.9195 64.5701 15.2968C64.8593 15.5097 65.4015 15.5807 65.9438 15.5807C67.8597 15.6161 70.4625 14.5162 68.3658 13.0259ZM126.242 110.78C131.412 106.487 132.062 101.377 132.316 96.1966C130.002 100.632 123.133 105.529 126.242 110.78ZM102.709 41.5892C102.672 41.6247 102.672 41.6247 102.672 41.6602C102.709 41.7312 102.745 41.7312 102.745 41.7312C102.745 41.7312 102.745 41.6957 102.709 41.5892Z" fill="url(#paint1_radial_1392_4228)"/>
<defs>
<radialGradient id="paint0_radial_1392_4228" cx="0" cy="0" r="1" gradientUnits="userSpaceOnUse" gradientTransform="translate(95.1625 53.669) rotate(121.49) scale(135.809)">
<stop offset="0.43309" stop-color="white" stop-opacity="0.7"/>
<stop offset="0.683728" stop-color="#79BFFA" stop-opacity="0.955364"/>
<stop offset="1" stop-color="#FEFFFF"/>
</radialGradient>
<radialGradient id="paint1_radial_1392_4228" cx="0" cy="0" r="1" gradientUnits="userSpaceOnUse" gradientTransform="translate(104.054 16.4019) rotate(126.062) scale(145.949 114.05)">
<stop offset="0.446787" stop-color="#0074CA"/>
<stop offset="0.798476" stop-color="#0C61A0"/>
<stop offset="1" stop-color="#002F5E"/>
</radialGradient>
</defs>
</svg>
