<svg width="25" height="26" viewBox="0 0 25 26" fill="none" xmlns="http://www.w3.org/2000/svg">
<path d="M23.629 6.29785C23.7782 6.11922 24.0521 6.11263 24.1901 6.3C24.6992 6.9909 25 7.84466 25 8.76868V18.4909C25 20.792 23.1346 22.6575 20.8334 22.6575H4.16702C1.86587 22.6575 4.76274e-05 20.792 0 18.4909V8.76868C1.4598e-05 7.95855 0.232147 7.20295 0.632422 6.56337C0.761562 6.35703 1.05045 6.35371 1.20641 6.5406L9.24831 16.1769L9.40212 16.3509C11.0286 18.0894 13.8375 18.0312 15.3852 16.1769L23.629 6.29785Z" fill="#FEFFFF"/>
<path d="M20.7286 4.26611C21.2934 4.26613 21.8305 4.3851 22.3165 4.59865C22.5236 4.68964 22.5705 4.95311 22.4261 5.1271L14.3803 14.8154C13.3254 16.0855 11.376 16.0856 10.3211 14.8154L2.57394 5.48628C2.44631 5.33259 2.46492 5.10312 2.62807 4.9879C3.27205 4.53357 4.05757 4.26615 4.90557 4.26611H20.7286Z" fill="#FEFFFF"/>
</svg>
