<svg width="22" height="23" viewBox="0 0 22 23" fill="none" xmlns="http://www.w3.org/2000/svg">
<path fill-rule="evenodd" clip-rule="evenodd" d="M11.0039 5.76385C14.1848 5.76385 16.7031 8.28177 16.7031 11.4621C16.7031 14.6444 14.1848 17.1633 11.0039 17.1633C7.82311 17.1631 5.30469 14.6443 5.30469 11.4621C5.30475 8.28184 7.82315 5.76396 11.0039 5.76385ZM11.0039 7.75115C8.88409 7.75127 7.29401 9.47424 7.29395 11.4621C7.29395 13.5835 9.01547 15.1729 11.0039 15.173C12.9906 15.173 14.7148 13.4501 14.7148 11.4621C14.7148 9.34253 12.9905 7.75115 11.0039 7.75115Z" fill="#FEFFFF"/>
<path d="M16.835 4.30584C17.0074 4.30439 17.179 4.33782 17.3389 4.40349C17.4987 4.46921 17.6446 4.56583 17.7676 4.68865C17.8906 4.81149 17.9882 4.95803 18.0557 5.11931C18.1231 5.28077 18.1587 5.45468 18.1602 5.63006C18.1589 5.80555 18.1239 5.97917 18.0566 6.1408C17.9893 6.30248 17.8907 6.44929 17.7676 6.57244C17.6445 6.69544 17.4989 6.79279 17.3389 6.85857C17.1788 6.92435 17.0076 6.95768 16.835 6.95623C16.6622 6.95774 16.4902 6.92441 16.3301 6.85857C16.1701 6.79278 16.0244 6.69545 15.9014 6.57244C15.7782 6.44929 15.6796 6.30248 15.6123 6.1408C15.545 5.97918 15.51 5.80553 15.5088 5.63006C15.5103 5.45468 15.5459 5.28077 15.6133 5.11931C15.6807 4.95804 15.7784 4.81149 15.9014 4.68865C16.0245 4.5657 16.171 4.46922 16.3311 4.40349C16.491 4.33783 16.6624 4.30433 16.835 4.30584Z" fill="#FEFFFF"/>
<path fill-rule="evenodd" clip-rule="evenodd" d="M15.5049 0.462088C16.699 0.593718 17.4935 0.725285 18.1582 0.992361C18.9505 1.38913 19.4817 1.65469 20.1426 2.31853C20.7164 2.87901 21.1685 3.55588 21.4688 4.30486C21.8251 5.14152 22.0061 6.04459 22 6.95623V15.967C21.8667 17.1612 21.7335 17.9554 21.4688 18.6193C21.0725 19.4149 20.8055 19.9437 20.1445 20.6076C19.5787 21.1846 18.9007 21.6356 18.1543 21.9328C17.4934 22.198 16.699 22.462 15.5068 22.4621H6.49316C5.30081 22.3304 4.50659 22.198 3.84375 21.9328C3.04779 21.5342 2.51812 21.2693 1.85547 20.6076C1.19263 19.9437 0.794059 19.2813 0.529297 18.6193C0.264535 17.9554 0 17.1613 0 15.967V6.95818C0.13329 5.7642 0.26651 4.96873 0.529297 4.30681C0.927379 3.51124 1.19262 2.98055 1.85547 2.31853C2.42091 1.74168 3.09787 1.28986 3.84375 0.992361C4.68261 0.635847 5.58389 0.455514 6.49316 0.462088H15.5049ZM6.49316 2.45037C5.43442 2.58198 4.903 2.71529 4.50684 2.84881C3.97543 2.98045 3.57875 3.24592 3.18066 3.64275C2.78272 4.04143 2.65137 4.43862 2.38477 4.96892C2.25143 5.36759 1.98834 5.89595 1.98828 6.95623V15.9689C2.1216 17.0297 2.25332 17.5604 2.38477 17.9572C2.51809 18.4876 2.78259 18.8866 3.18066 19.2834C3.57875 19.6821 3.97543 19.8131 4.50684 20.0783C4.90302 20.2099 5.43426 20.4757 6.49316 20.4758H15.5049C16.5656 20.3441 17.0951 20.2118 17.4932 20.0783C18.0225 19.9467 18.4204 19.6819 18.8184 19.2834C19.2146 18.8865 19.3485 18.4876 19.6133 17.9572C19.7466 17.5604 20.0107 17.0296 20.0107 15.9689V6.95623C19.8775 5.89605 19.7447 5.36567 19.6133 4.96892C19.4818 4.43854 19.2146 4.04149 18.8184 3.64275C18.4203 3.24604 18.0226 3.11205 17.4932 2.84881C17.0951 2.71527 16.5656 2.45044 15.5068 2.45037H6.49316Z" fill="#FEFFFF"/>
</svg>
