<svg width="25" height="26" viewBox="0 0 25 26" fill="none" xmlns="http://www.w3.org/2000/svg">
<path d="M1.33302 4.35C5.19307 0.489596 5.7927 2.2467 8.83197 5.2852C11.9829 8.43682 6.25906 9.56374 11.2103 14.5137C16.1616 19.4638 17.285 13.7373 20.4375 16.8877C23.4767 19.9261 25.2247 20.5348 21.3727 24.3845C20.8903 24.7721 17.8256 29.4356 7.0556 18.6684C-3.71505 7.90039 0.944897 4.83243 1.33302 4.35Z" fill="#FEFFFF"/>
<path d="M15.4139 5.60589L15.5084 5.61932L15.7476 5.67046C18.1243 6.22636 19.9807 8.0846 20.5376 10.4604L20.5887 10.6997L20.6022 10.7941C20.6451 11.264 20.3259 11.6991 19.8529 11.7913C19.3798 11.8834 18.9207 11.5998 18.7842 11.1482L18.7612 11.0555L18.7248 10.8856C18.3291 9.19743 17.0104 7.87836 15.3233 7.48366L15.153 7.44726L15.0607 7.42429C14.609 7.28799 14.3248 6.82879 14.4167 6.35561C14.5087 5.88254 14.9441 5.56316 15.4139 5.60589Z" fill="#FEFFFF"/>
<path d="M15.4334 1.21027L15.6683 1.23887C20.5049 1.8822 24.3167 5.68887 24.9653 10.5254L24.9943 10.7603L24.9999 10.8552C25.0049 11.3271 24.6517 11.7354 24.1727 11.7891C23.6937 11.8428 23.2591 11.5228 23.1594 11.0615L23.1438 10.9675L23.12 10.7733C22.583 6.7691 19.4271 3.61731 15.4226 3.08457L15.228 3.06073L15.134 3.04557C14.6726 2.94641 14.3523 2.51187 14.4055 2.03279C14.4587 1.55369 14.8666 1.20011 15.3385 1.20463L15.4334 1.21027Z" fill="#FEFFFF"/>
</svg>
