<svg width="22" height="23" viewBox="0 0 22 23" fill="none" xmlns="http://www.w3.org/2000/svg">
<path fill-rule="evenodd" clip-rule="evenodd" d="M2.72061e-07 2.29991C2.72061e-07 1.81244 0.193646 1.34495 0.538338 1.00025C0.88303 0.655562 1.35053 0.461917 1.838 0.461917H20.16C20.4016 0.461522 20.6409 0.508779 20.8641 0.600983C21.0874 0.693187 21.2903 0.828526 21.4612 0.999253C21.6322 1.16998 21.7677 1.37274 21.8602 1.59592C21.9526 1.81911 22.0001 2.05834 22 2.29991V20.6219C22.0003 20.8635 21.9529 21.1028 21.8606 21.3261C21.7683 21.5494 21.6328 21.7523 21.462 21.9232C21.2912 22.0941 21.0884 22.2297 20.8651 22.3221C20.6419 22.4145 20.4026 22.462 20.161 22.4619H1.838C1.59655 22.4619 1.35746 22.4143 1.1344 22.3219C0.911335 22.2295 0.708671 22.094 0.537984 21.9232C0.367297 21.7524 0.231932 21.5497 0.139623 21.3266C0.0473133 21.1035 -0.000131096 20.8644 2.72061e-07 20.6229V2.29991ZM8.708 8.84991H11.687V10.3459C12.117 9.48591 13.217 8.71191 14.87 8.71191C18.039 8.71191 18.79 10.4249 18.79 13.5679V19.3899H15.583V14.2839C15.583 12.4939 15.153 11.4839 14.061 11.4839C12.546 11.4839 11.916 12.5729 11.916 14.2839V19.3899H8.708V8.84991ZM3.208 19.2529H6.416V8.71191H3.208V19.2529ZM6.875 5.27391C6.88105 5.54859 6.83217 5.8217 6.73124 6.07723C6.63031 6.33275 6.47935 6.56555 6.28723 6.76194C6.09511 6.95834 5.8657 7.11439 5.61246 7.22092C5.35921 7.32745 5.08724 7.38233 4.8125 7.38233C4.53776 7.38233 4.26579 7.32745 4.01255 7.22092C3.7593 7.11439 3.52989 6.95834 3.33777 6.76194C3.14565 6.56555 2.99469 6.33275 2.89376 6.07723C2.79283 5.8217 2.74395 5.54859 2.75 5.27391C2.76187 4.73477 2.98439 4.2217 3.36989 3.8446C3.75539 3.46749 4.27322 3.25633 4.8125 3.25633C5.35178 3.25633 5.86961 3.46749 6.25512 3.8446C6.64062 4.2217 6.86313 4.73477 6.875 5.27391Z" fill="#FEFFFF"/>
</svg>
